<?xml version="1.0" encoding="utf-8"?>
<!-- Generator: Adobe Illustrator 16.0.4, SVG Export Plug-In . SVG Version: 6.00 Build 0)  -->
<!DOCTYPE svg PUBLIC "-//W3C//DTD SVG 1.1//EN" "http://www.w3.org/Graphics/SVG/1.1/DTD/svg11.dtd">
<svg version="1.1" id="Layer_1" xmlns="http://www.w3.org/2000/svg" xmlns:xlink="http://www.w3.org/1999/xlink" x="0px" y="0px"
	 width="64px" height="64px" viewBox="0 0 64 64" enable-background="new 0 0 64 64" xml:space="preserve">
<path d="M55.918,28.208c0,1.645-0.121,2.979-0.271,2.979c-0.149,0-0.271-1.577-0.271-3.521c0-1.945-0.606-3.521-1.354-3.521
	s-1.355,1.576-1.355,3.521c0,1.944-0.121,3.521-0.271,3.521c-0.149,0-0.271-0.243-0.271-0.542s-0.606-0.542-1.354-0.542
	c-0.749,0-1.355,0.243-1.355,0.542s-0.121,0.542-0.271,0.542c-0.15,0-0.271-1.091-0.271-2.438c0-1.346-0.606-2.438-1.354-2.438
	c-0.749,0-1.355,1.091-1.355,2.438c0,1.347-0.121,2.438-0.271,2.438c-0.15,0-0.271-1.753-0.271-3.916v-0.836
	c0-2.163-0.606-3.916-1.354-3.916c-0.749,0-1.354,1.753-1.354,3.916v0.836c0,2.163-0.122,3.916-0.271,3.916
	c-0.15,0-0.271-1.753-0.271-3.916v-0.294c0-2.163-0.606-3.916-1.354-3.916c-0.749,0-1.354,1.753-1.354,3.916v0.294
	c0,2.163-0.122,3.916-0.271,3.916c-0.15,0-0.271-1.753-0.271-3.916v-6.253c0-2.163-0.606-3.916-1.354-3.916
	s-1.354,1.753-1.354,3.916v6.253c0,2.163-0.122,3.916-0.271,3.916c-0.149,0-0.271-0.364-0.271-0.812
	c0-0.449-0.606-0.813-1.354-0.813c-0.748,0-1.354,0.364-1.354,0.813c0,0.449-0.122,0.812-0.271,0.812
	c-0.149,0-0.271-1.091-0.271-2.438c0-1.346-0.606-2.438-1.354-2.438c-0.748,0-1.354,1.091-1.354,2.438
	c0,1.347-0.122,2.438-0.271,2.438c-0.149,0-0.271-1.753-0.271-3.916v-6.253c0-2.163-0.606-3.916-1.355-3.916
	c-0.748,0-1.354,1.753-1.354,3.916v6.253c0,2.163-0.122,3.916-0.271,3.916c-0.149,0-0.271-1.753-0.271-3.916v-0.294
	c0-2.163-0.606-3.916-1.355-3.916c-0.748,0-1.354,1.753-1.354,3.916v0.294c0,2.163-0.122,3.916-0.271,3.916
	c-0.149,0-0.271-1.577-0.271-3.521c0-1.945-0.606-3.521-1.355-3.521s-1.354,1.576-1.354,3.521c0,1.944-0.122,3.521-0.271,3.521
	c-0.149,0-0.271-0.728-0.271-1.625c0-0.897-0.606-1.625-1.355-1.625s-1.354,0.728-1.354,1.625c0,0.898-0.122,1.625-0.271,1.625
	c-0.149,0-0.271-1.753-0.271-3.916v-2.461c0-2.162-0.606-3.916-1.355-3.916s-1.354,1.753-1.354,3.916v2.461
	c0,2.163-0.122,3.916-0.271,3.916c-0.149,0-0.271-1.753-0.271-3.916V16.685c0-2.163-0.606-3.916-1.354-3.916
	c-0.749,0-1.354,1.753-1.354,3.916v10.586c0,2.163-0.122,3.916-0.271,3.916c-0.15,0-0.271-1.577-0.271-3.521
	c0-1.945-0.606-3.521-1.354-3.521c-0.749,0-1.354,1.576-1.354,3.521c0,1.944-0.122,3.521-0.271,3.521
	c-0.15,0-0.271-0.728-0.271-1.625c0-0.897-0.606-1.625-1.354-1.625c-0.749,0-1.354,0.728-1.354,1.625v1.625v1.625
	c0,0,0,0.728,0,1.625s0.606,1.626,1.354,1.626c0.748,0,1.354-0.729,1.354-1.626s0.121-1.625,0.271-1.625
	c0.149,0,0.271,1.576,0.271,3.521s0.606,3.521,1.354,3.521c0.748,0,1.354-1.575,1.354-3.521s0.121-3.521,0.271-3.521
	c0.149,0,0.271,1.754,0.271,3.916v10.587c0,2.162,0.606,3.916,1.354,3.916c0.748,0,1.354-1.754,1.354-3.916V36.729
	c0-2.162,0.121-3.916,0.271-3.916c0.149,0,0.271,1.754,0.271,3.916v2.461c0,2.162,0.606,3.916,1.354,3.916s1.355-1.754,1.355-3.916
	v-2.461c0-2.162,0.121-3.916,0.271-3.916c0.149,0,0.271,0.728,0.271,1.625s0.606,1.626,1.354,1.626s1.355-0.729,1.355-1.626
	s0.121-1.625,0.271-1.625c0.149,0,0.271,1.576,0.271,3.521s0.606,3.521,1.354,3.521s1.355-1.575,1.355-3.521
	s0.121-3.521,0.271-3.521c0.149,0,0.271,1.754,0.271,3.916v0.294c0,2.163,0.606,3.916,1.354,3.916c0.749,0,1.355-1.753,1.355-3.916
	v-0.294c0-2.162,0.121-3.916,0.271-3.916c0.15,0,0.271,1.754,0.271,3.916v6.252c0,2.163,0.606,3.916,1.354,3.916
	c0.749,0,1.355-1.753,1.355-3.916v-6.252c0-2.162,0.121-3.916,0.271-3.916c0.15,0,0.271,1.092,0.271,2.438
	c0,1.347,0.606,2.438,1.354,2.438c0.749,0,1.354-1.092,1.354-2.438c0-1.346,0.122-2.438,0.271-2.438c0.15,0,0.271,0.363,0.271,0.812
	s0.606,0.812,1.354,0.812c0.749,0,1.354-0.363,1.354-0.812s0.122-0.812,0.271-0.812c0.15,0,0.271,1.754,0.271,3.916v6.252
	c0,2.163,0.606,3.916,1.354,3.916s1.354-1.753,1.354-3.916v-6.252c0-2.162,0.122-3.916,0.271-3.916c0.149,0,0.271,1.754,0.271,3.916
	v0.294c0,2.163,0.606,3.916,1.354,3.916c0.748,0,1.354-1.753,1.354-3.916v-0.294c0-2.162,0.122-3.916,0.271-3.916
	c0.149,0,0.271,1.754,0.271,3.916v0.836c0,2.162,0.606,3.915,1.354,3.915c0.748,0,1.354-1.753,1.354-3.915v-0.836
	c0-2.162,0.122-3.916,0.271-3.916c0.149,0,0.271,1.092,0.271,2.438c0,1.347,0.606,2.438,1.355,2.438
	c0.748,0,1.354-1.092,1.354-2.438c0-1.346,0.122-2.438,0.271-2.438c0.149,0,0.271,0.243,0.271,0.542c0,0.3,0.606,0.542,1.355,0.542
	c0.748,0,1.354-0.242,1.354-0.542c0-0.299,0.122-0.542,0.271-0.542c0.149,0,0.271,1.576,0.271,3.521s0.606,3.521,1.355,3.521
	s1.354-1.575,1.354-3.521s0.122-3.521,0.271-3.521c0.149,0,0.271,1.335,0.271,2.979c0,1.646,0.486,2.979,1.084,2.979
	c0.598,0,1.083-1.334,1.083-2.979v-2.979v-1.625c0,0,0-1.334,0-2.979c0-1.646-0.485-2.979-1.083-2.979
	C56.404,25.229,55.918,26.562,55.918,28.208z"/>
</svg>
