<?xml version="1.0" encoding="utf-8"?>
<!-- Generator: Adobe Illustrator 17.0.2, SVG Export Plug-In . SVG Version: 6.00 Build 0)  -->
<!DOCTYPE svg PUBLIC "-//W3C//DTD SVG 1.1//EN" "http://www.w3.org/Graphics/SVG/1.1/DTD/svg11.dtd">
<svg version="1.1" id="Capa_1" xmlns="http://www.w3.org/2000/svg" xmlns:xlink="http://www.w3.org/1999/xlink" x="0px" y="0px"
	 width="64px" height="64px" viewBox="0 0 64 64" enable-background="new 0 0 64 64" xml:space="preserve">
<path d="M60.77,34.479c0-12.198-7.841-21.094-20.214-23.859C40.25,6.162,36.534,2.625,32,2.625s-8.25,3.537-8.555,7.995
	C11.072,13.385,3.23,22.282,3.23,34.479c0,3.803,1.998,12.355,2.083,12.718l0.107,0.456c-0.561,0.688-0.853,1.599-0.853,2.327v5.48
	c0,1.38,0.962,2.102,1.912,2.102c0.447,0,0.903-0.158,1.318-0.456c2.741-1.972,12.64-8.403,24.925-8.403
	c8.107,0,15.726,2.8,22.643,8.321c0.54,0.433,1.05,0.523,1.382,0.523c0.618,0,1.173-0.296,1.521-0.811
	c0.24-0.355,0.362-0.785,0.362-1.276v-5.48c0-0.532-0.154-1.101-0.413-1.616l0.291-0.686C59.993,44.168,60.77,38.382,60.77,34.479z
	 M18.016,15.577c-1.684,1.91-2.933,4.309-3.588,7.274c-0.417,1.885,2.476,2.686,2.893,0.798c0.982-4.443,3.431-7.345,6.799-9.038
	c0.876-0.44,1.813-0.801,2.804-1.083c1.166-0.332,2.403-0.561,3.7-0.691V16.5c0,0.043,0.009,0.079,0.012,0.12
	c0.125,1.791,2.926,1.77,2.983-0.066c0.001-0.019,0.005-0.034,0.005-0.053v-3.57c1.185,0.158,2.316,0.402,3.382,0.737
	c0.98,0.308,1.902,0.699,2.762,1.17c3.145,1.721,5.428,4.56,6.367,8.811c0.417,1.889,3.309,1.088,2.893-0.798
	c-0.701-3.174-2.076-5.709-3.945-7.679c7.97,3.437,12.685,10.281,12.685,19.307c0,2.929-0.493,7.179-1.42,10.312
	c-3.39-2.04-11.713-6.171-23.547-6.171c-8.256,0-16.652,2.03-24.982,6.038c-0.587-2.716-1.59-7.719-1.59-10.179
	C6.23,25.797,10.591,19.132,18.016,15.577z M32,5.625c2.689,0,4.941,1.912,5.468,4.447C35.717,9.838,33.895,9.71,32,9.71
	s-3.717,0.128-5.468,0.362C27.059,7.537,29.311,5.625,32,5.625z M55.631,53.452c-7.034-5.144-14.731-7.749-22.908-7.749
	c-11.466,0-20.953,5.192-25.155,7.929V49.98c0.002-0.119,0.109-0.373,0.151-0.422c8.118-5.004,16.365-7.541,24.513-7.541
	c11.117,0,19.284,4.684,23.157,7.472c0.099,0.083,0.236,0.364,0.242,0.491V53.452z"/>
</svg>
