<?xml version="1.0" encoding="iso-8859-1"?>
<!-- Generator: Adobe Illustrator 16.0.4, SVG Export Plug-In . SVG Version: 6.00 Build 0)  -->
<!DOCTYPE svg PUBLIC "-//W3C//DTD SVG 1.1//EN" "http://www.w3.org/Graphics/SVG/1.1/DTD/svg11.dtd">
<svg version="1.1" id="Capa_1" xmlns="http://www.w3.org/2000/svg" xmlns:xlink="http://www.w3.org/1999/xlink" x="0px" y="0px"
	 width="66.219px" height="51.425px" viewBox="0 0 66.219 51.425" style="enable-background:new 0 0 66.219 51.425;"
	 xml:space="preserve">
<g>
	<path id="path3828" style="fill:#040606;" d="M46.454,46.769c0.168-0.019,0.328-0.033,0.482-0.042
		C46.782,46.736,46.622,46.75,46.454,46.769z M45.655,46.88c0.182-0.03,0.358-0.057,0.53-0.079
		C46.014,46.824,45.836,46.85,45.655,46.88z M44.688,47.06c0.239-0.05,0.473-0.095,0.701-0.136
		C45.161,46.965,44.926,47.01,44.688,47.06z M44.53,47.091c-0.012,0.002-0.02,0.004-0.031,0.006
		C44.51,47.095,44.52,47.094,44.53,47.091z M40.071,48.264c0.314-0.104,0.653-0.205,1.009-0.304
		C40.725,48.059,40.386,48.16,40.071,48.264z M59.818,41.149c0.012-0.002,0.021-0.005,0.033-0.008
		C59.84,41.144,59.83,41.146,59.818,41.149z M62.504,40.408c-0.562,0.192-0.64,0.23-0.255,0.137
		c-0.273,0.068-0.573,0.139-0.914,0.216c-0.317,0.088-0.672,0.175-1.019,0.261c0.242-0.069,0.067-0.046-0.541,0.087
		c-0.496,0.11-1.021,0.225-1.562,0.347c-2.051,0.458-4.506,1.083-6.889,1.88c-2.619,0.876-2.716,0.699-0.181-0.395
		c2.771-1.196,6.678-2.546,11.454-3.312c0.003-0.001,0.267-0.052,0.526-0.052c0.266,0,0.434,0.055,0.475,0.154
		c0.007,0.018,0.012,0.041,0.01,0.071c-0.002,0.04,0.029,0.036,0.046-0.026c-0.017,0.062-0.082,0.17-0.127,0.248
		C63.573,39.946,63.143,40.188,62.504,40.408L62.504,40.408z M63.188,40.281c0.026-0.01,0.049-0.019,0.071-0.027
		C63.237,40.263,63.213,40.271,63.188,40.281z M62.768,40.412c0.01-0.003,0.023-0.006,0.033-0.009
		C62.791,40.405,62.778,40.408,62.768,40.412z M42.345,6.745c0.161,7.501,0.139,10.624,0.106,13.381
		c0.033-2.756,0.051-5.872-0.152-13.315c-0.038-1.38,0.249-2.569,0.655-2.549c0.007,0,0.02,0.002,0.027,0.002
		C42.6,4.257,42.315,5.375,42.345,6.745L42.345,6.745z M42.106,39.359c-0.013-0.164-0.022-0.349-0.031-0.549
		C42.084,39.009,42.094,39.195,42.106,39.359z M42.16,39.841c-0.02-0.127-0.037-0.272-0.051-0.445
		C42.123,39.569,42.14,39.714,42.16,39.841z M42.229,40.151c-0.019-0.056-0.036-0.127-0.052-0.214
		C42.193,40.024,42.21,40.095,42.229,40.151z M42.338,40.318c-0.032-0.001-0.06-0.043-0.087-0.103
		C42.278,40.275,42.306,40.316,42.338,40.318z M43.879,40.225c-0.045,0.047-0.093,0.08-0.143,0.081
		C43.786,40.304,43.833,40.272,43.879,40.225z M44.012,40.011c-0.03,0.065-0.061,0.119-0.093,0.163
		C43.951,40.13,43.982,40.076,44.012,40.011z M44.146,39.623c-0.03,0.116-0.062,0.218-0.097,0.305
		C44.083,39.84,44.116,39.739,44.146,39.623z M44.25,39.12c-0.028,0.167-0.058,0.323-0.091,0.458
		C44.192,39.443,44.223,39.288,44.25,39.12z M44.328,38.537c-0.008-0.055-0.068,0.128-0.191,0.565
		c-0.217,0.764-0.638,1.211-0.554,1.21c-0.084,0.001-0.191,0.026-0.244,0.05c0.053-0.024,0.008-0.043-0.097-0.041
		s-0.151,0.025-0.1,0.046c-0.051-0.021-0.139-0.041-0.198-0.04c0.059-0.001-0.457-0.568-0.663-1.503
		c-0.177-0.799-0.227-0.945-0.217-0.409c-0.008-0.393-0.009-0.833-0.001-1.306c-0.01-0.18,0.003-0.385,0-0.571
		c0.008-0.044,0.018-0.145,0.024-0.349c0.011-0.297,0.024-0.604,0.041-0.919c0.197-3.708,0.422-8.561,0.422-11.305
		c0-1.209,0.012-2.201,0.025-3.253c0.031-2.583,0.063-5.237-0.081-11.341c-0.064-2.76,0.461-5.004,1.188-4.914
		c0.727,0.09,1.117,2.459,0.916,5.214c-0.332,4.525-0.732,10.877-0.601,13.7c0.084,1.841,0.13,3.365,0.183,5.131
		c0.053,1.775,0.115,3.841,0.234,6.756c0.017,0.42,0.024,0.828,0.022,1.216c-0.002,0.344,0.005,0.51,0.016,0.506
		c-0.016,0.24-0.027,0.486-0.052,0.71C44.381,37.995,44.357,38.274,44.328,38.537L44.328,38.537z M44.48,36.584
		c0-0.015,0.001-0.022,0.001-0.039C44.481,36.558,44.48,36.57,44.48,36.584z M10.429,50.189c4.004,1.224,7.654,1.236,7.693,1.236
		c10.359,0,17.658-1.69,21.957-3.107c0.333-0.11,0.677-0.219,1.028-0.327c0.364-0.111,0.468-0.152,0.366-0.131
		c0.222-0.059,0.439-0.118,0.671-0.174c0.546-0.153,1.096-0.296,1.635-0.425c-0.443,0.113-0.176,0.097,0.815-0.071
		c0.554-0.094,1.112-0.176,1.66-0.242c1.371-0.169,2.269-0.208,1.994-0.214c-0.163-0.004-0.326-0.009-0.497-0.02
		c-0.18-0.012-0.383-0.011-0.598-0.002c0.215-0.009,0.418-0.01,0.598,0.002c0.344,0.022,0.658,0.019,0.995,0.034
		c0.127-0.002,0.244,0,0.369-0.002c-0.008,0.011,0.241,0.034,0.667,0.05c0.351,0.015,0.698,0.025,1.033,0.025
		c6.546,0,10.194-1.605,12.103-2.951c0.641-0.452,1.132-0.903,1.507-1.31c0.647-0.707,1.19-1.792,1.409-2.526
		c-0.018,0.024-0.04,0.046-0.05,0.071c-0.232,0.703-0.802,1.708-1.417,2.379c-0.261,0.285-0.63,0.591-1.016,0.901
		c-0.408,0.37-0.856,0.715-1.329,0.989c-2.041,1.18-5.229,2.235-10.14,2.369c4.905-0.134,8.086-1.189,10.126-2.369
		c0.238-0.137,0.465-0.292,0.685-0.46c0.362-0.276,0.523-0.438,0.388-0.33c-0.078,0.062-0.16,0.125-0.25,0.189
		c0.185-0.13,0.332-0.258,0.492-0.388c1.125-1.019,1.978-2.29,2.354-3.28c0.032-0.098,0.064-0.194,0.084-0.276
		c0.013-0.042,0.024-0.084,0.035-0.125c0.043-0.229,0.05-0.434,0.031-0.621c0.001,0.008,0.007,0.014,0.007,0.023
		c0.028,0.33,0.009,0.437,0.04,0.23c0.021-0.141,0.026-0.269,0.007-0.374c-0.17-0.97-1.173-1.051-1.421-1.055
		c0.135,0,0.52,0.025,0.889,0.183c-0.38-0.223-0.816-0.248-0.948-0.247c-1.525,0.074-3.056,0.305-4.4,0.574
		c-2.405,0.481-4.908-1.045-5.277-3.781c-0.451-3.337-0.857-7.831-0.926-11.815c-0.076-4.365,1.011-10.241,1.91-14.34
		c0.592-2.698-0.499-5.924-2.804-6.54c-1.205-0.322-2.622-0.612-4.231-0.862C44.078,0.362,38.231,0,31.295,0
		C24.25,0,19.409,0.597,16.28,1.224c-2.708,0.542-4.39,3.63-3.966,6.357c0.659,4.235,1.49,10.211,1.565,13.826
		c0.067,3.2-0.456,7.354-0.964,10.562c-0.035,0.218-0.08,0.429-0.132,0.634c-0.088,0.346-0.062,0.368,0.042,0.042
		c-0.08,0.248-0.332,1.105-0.839,1.962c-0.009-0.103-0.318,0.08-0.929,0.551c-0.275,0.212-0.573,0.4-0.887,0.562
		c-1.228,0.631-2.054,0.688-1.64,0.721c-0.414-0.032-0.899-0.035-1.083-0.022c0.184-0.013,0.048-0.042-0.304-0.054
		c-0.218-0.006-0.431-0.01-0.638-0.01c-3.104,0-5.129,0.687-6.02,2.042c-0.933,1.417-0.235,3.073-0.231,3.085
		C1.956,46.626,6.727,49.056,10.429,50.189"/>
	<path id="path3830" style="fill:#040606;" d="M65.764,38.47c0.201,0.313,0.255,0.725,0.166,1.23
		c-0.017,0.092-0.063,0.22-0.097,0.333c0.052-0.069,0.119-0.136,0.14-0.205c0.008-0.034,0.246-0.083,0.246-0.125
		c0-0.288-0.092-0.551-0.125-0.741c-0.083-0.474-0.404-0.729-0.744-0.873C65.505,38.18,65.653,38.296,65.764,38.47"/>
	<path id="path3832" style="fill:#040606;" d="M65.721,39.968c0.022-0.077,0.024-0.077,0-0.001
		C65.698,40.042,65.7,40.044,65.721,39.968"/>
</g>
<g>
</g>
<g>
</g>
<g>
</g>
<g>
</g>
<g>
</g>
<g>
</g>
<g>
</g>
<g>
</g>
<g>
</g>
<g>
</g>
<g>
</g>
<g>
</g>
<g>
</g>
<g>
</g>
<g>
</g>
</svg>
