<?xml version="1.0" encoding="iso-8859-1"?>
<!-- Generator: Adobe Illustrator 17.0.0, SVG Export Plug-In . SVG Version: 6.00 Build 0)  -->
<!DOCTYPE svg PUBLIC "-//W3C//DTD SVG 1.1//EN" "http://www.w3.org/Graphics/SVG/1.1/DTD/svg11.dtd">
<svg version="1.1" id="Capa_1" xmlns="http://www.w3.org/2000/svg" xmlns:xlink="http://www.w3.org/1999/xlink" x="0px" y="0px"
	 width="64px" height="64px" viewBox="0 0 64 64" style="enable-background:new 0 0 64 64;" xml:space="preserve">
<g>
	<path d="M60.467,26.436c0-1.879-1.523-3.401-3.401-3.401c-1.105,0-2.08,0.533-2.702,1.35c-0.384-4.465-1.362-11.556-3.803-15.256
		C46.828,3.47,38.74,5.167,38.74,5.167s-3.111-0.239-3.111,4.934c0,2.278-2.51,2.562-3.469,2.588c-0.01,0-0.029,0.001-0.043,0.001
		c-0.043,0.001-0.082,0.001-0.117,0.001c-0.035,0-0.074,0-0.117-0.001c-0.013,0-0.033,0-0.043-0.001
		c-0.959-0.026-3.469-0.31-3.469-2.588c0-5.173-3.111-4.934-3.111-4.934s-8.088-1.697-11.821,3.96
		c-2.441,3.7-3.419,10.791-3.803,15.256c-0.621-0.817-1.596-1.349-2.701-1.349c-1.879,0-3.401,1.523-3.401,3.401
		c0,8.472,21.789,9.13,28.467,9.13C38.678,35.566,60.467,34.907,60.467,26.436z M11.232,22.118c0,0,12.016,1.69,20.932,1.7
		c8.779-0.01,20.611-1.7,20.611-1.7c0.156,1.366,0.282,2.713,0.372,3.745c-2.564,1.232-9.828,2.9-21.148,2.9
		c-11.317,0-18.579-1.667-21.145-2.899C10.945,24.832,11.073,23.485,11.232,22.118z"/>
	<path d="M19.857,53.666c1.663,2.911,2.495,2.246,2.911,0.083c0.416-2.162,2.135,0.741,3.41,0.998
		c1.133,0.228,2.412-1.112,3.66-1.471c1.244-0.357,2.156,0.797,2.161,0.805c0.007-0.007,0.919-1.162,2.162-0.805
		c1.248,0.359,2.53,1.713,3.66,1.471c1.202-0.257,2.994-3.16,3.41-0.998c0.416,2.162,1.248,2.828,2.911-0.083
		c1.663-2.911,3.743,6.903,3.826,1.58c0.055-3.525-2.078-8.217-3.526-10.985c-0.681-1.302-2.227-1.56-3.528-0.874
		c-3.397,1.791-5.741,1.023-7.17-0.044c-1.178-0.88-2.312-0.88-3.49,0c-1.429,1.067-3.773,1.835-7.171,0.044
		c-1.3-0.685-2.846-0.428-3.527,0.874c-1.447,2.768-3.581,7.46-3.526,10.985C16.115,60.569,18.194,50.755,19.857,53.666z"/>
</g>
</svg>
