<?xml version="1.0" encoding="iso-8859-1"?>
<!-- Generator: Adobe Illustrator 17.0.0, SVG Export Plug-In . SVG Version: 6.00 Build 0)  -->
<!DOCTYPE svg PUBLIC "-//W3C//DTD SVG 1.1//EN" "http://www.w3.org/Graphics/SVG/1.1/DTD/svg11.dtd">
<svg version="1.1" id="Capa_1" xmlns="http://www.w3.org/2000/svg" xmlns:xlink="http://www.w3.org/1999/xlink" x="0px" y="0px"
	 width="64px" height="64px" viewBox="0 0 64 64" style="enable-background:new 0 0 64 64;" xml:space="preserve">
<g>
	<rect x="24.11" y="30.814" width="15.779" height="3.537"/>
	<path d="M24.11,53.667H39.89V40.792H24.11V53.667z M32.476,44.872h6.505v4.442h-6.505V44.872z M25.04,44.872h6.505v4.442H25.04
		V44.872z"/>
	<path d="M58.956,24.285H46.691v-8.434c0-1.35-1.098-2.448-2.448-2.448H19.758c-1.351,0-2.449,1.098-2.449,2.448v8.434H5.043v4.897
		h53.913V24.285z M43.97,24.285H20.029v-8.162H43.97V24.285z"/>
	<rect x="24.11" y="35.983" width="15.779" height="3.176"/>
	<path d="M5.043,53.667h17.435V30.815H5.043V53.667z M13.307,36.15c3.363,0,6.09,2.727,6.09,6.09c0,3.364-2.727,6.09-6.09,6.09
		c-3.364,0-6.09-2.727-6.09-6.09C7.217,38.877,9.943,36.15,13.307,36.15z"/>
	<path d="M58.956,53.667V30.815H41.522v22.852H58.956z M50.693,36.15c3.364,0,6.09,2.727,6.09,6.09c0,3.364-2.726,6.09-6.09,6.09
		c-3.363,0-6.09-2.727-6.09-6.09C44.603,38.877,47.33,36.15,50.693,36.15z"/>
</g>
</svg>
