<?xml version="1.0" encoding="iso-8859-1"?>
<!-- Generator: Adobe Illustrator 17.0.0, SVG Export Plug-In . SVG Version: 6.00 Build 0)  -->
<!DOCTYPE svg PUBLIC "-//W3C//DTD SVG 1.1//EN" "http://www.w3.org/Graphics/SVG/1.1/DTD/svg11.dtd">
<svg version="1.1" id="Capa_1" xmlns="http://www.w3.org/2000/svg" xmlns:xlink="http://www.w3.org/1999/xlink" x="0px" y="0px"
	 width="64px" height="64px" viewBox="0 0 64 64" style="enable-background:new 0 0 64 64;" xml:space="preserve">
<g>
	<path d="M11.323,34.679c-2.48,0.888-3.926,1.945-3.926,3.081c0,3.141,11.015,5.688,24.602,5.688s24.602-2.547,24.602-5.688
		c0-1.136-1.445-2.193-3.926-3.081c0.031,0.768,0.064,1.535,0.079,2.333l0.015,0.742l-0.632,0.39
		c-0.345,0.213-3.673,2.04-16.717,2.456v0.085h-1.3c-0.739,0-1.445-0.005-2.107-0.013c-0.691,0.008-1.398,0.013-2.136,0.013
		l-1.3-0.049V40.6c-13.044-0.416-16.372-2.243-16.717-2.456l-0.632-0.39l0.015-0.742C11.26,36.214,11.292,35.448,11.323,34.679z"/>
	<path d="M12.544,37.037c0,0,3.18,1.963,17.335,2.298v0.049c0.734,0,1.435-0.005,2.122-0.013c0.687,0.008,1.388,0.013,2.122,0.013
		v-0.049C48.276,39,51.456,37.037,51.456,37.037c-0.019-0.954-0.056-1.874-0.096-2.785c-0.737-16.411-4.85-25.801-6.133-28.453
		c-0.9-1.859-2.995-2.802-5.067-2.802c-1.047,0-2.089,0.241-2.968,0.726C35.716,4.536,33.582,4.748,32,4.778
		c-1.582-0.03-3.716-0.242-5.191-1.056c-0.879-0.485-1.921-0.726-2.968-0.726c-2.073,0-4.168,0.943-5.067,2.802
		c-1.283,2.652-5.396,12.042-6.133,28.453C12.599,35.163,12.563,36.083,12.544,37.037z M14.187,31.014c0,0,0.013-2.81,0.268-4.683
		c0,0,10.225,1.414,17.683,1.422c1.961-0.002,4.12-0.105,6.232-0.254l-0.052-0.655c-0.067-0.856,0.575-1.607,1.429-1.674
		l6.069-0.473c0.806,0,1.487,0.63,1.55,1.434l0.038,0.483c1.366-0.167,2.206-0.284,2.206-0.284c0.271,2.371,0.202,4.683,0.202,4.683
		c-0.661,0.14-1.343,0.263-2.031,0.377l0.078,0.99c0.028,0.352-0.069,0.692-0.262,0.981c-0.034,0.051-0.065,0.104-0.106,0.152
		c-0.27,0.316-0.647,0.508-1.061,0.541l-6.07,0.473c-0.806,0-1.487-0.63-1.55-1.434l-0.063-0.796
		c-3.493,0.172-6.18,0.137-6.611,0.13c-0.444,0.007-3.249,0.042-6.874-0.139C21.876,32.121,17.773,31.764,14.187,31.014z"/>
	<path d="M39.913,29.156l2.554-0.201c0.397-0.038,0.727,0.259,0.758,0.646c0.031,0.388-0.259,0.727-0.646,0.758l-2.555,0.201
		l0.131,1.659l0.014,0.175l0.046,0.589c0.006,0.077,0.07,0.136,0.146,0.136v0.693v0.011l0-0.011l0.013-0.694l3.809-0.3l2.138-0.168
		c0.069-0.005,0.141-0.089,0.135-0.159l-0.07-0.887l-0.38-4.825l-0.042-0.538c-0.006-0.077-0.07-0.136-0.146-0.136l-5.958,0.469
		c-0.081,0.006-0.143,0.078-0.136,0.16l0.052,0.659L39.913,29.156z"/>
	<path d="M20.873,49.774l-3.033,3.37c-0.434,0.482-0.467,1.226-0.075,1.662c0.392,0.436,1.062,0.399,1.496-0.083l3.033-3.37
		c0.434-0.482,0.467-1.226,0.075-1.662C21.977,49.255,21.307,49.292,20.873,49.774z"/>
	<path d="M24.09,49.729l-2.469,3.896c-0.353,0.557-0.272,1.297,0.182,1.652c0.454,0.355,1.108,0.191,1.461-0.366l2.469-3.896
		c0.353-0.557,0.272-1.297-0.182-1.652C25.098,49.007,24.443,49.171,24.09,49.729z"/>
	<path d="M26.06,55.718c0.521,0.211,1.114-0.137,1.325-0.777l1.47-4.477c0.21-0.64-0.042-1.331-0.563-1.542
		c-0.521-0.211-1.115,0.137-1.325,0.777l-1.47,4.477C25.287,54.816,25.539,55.506,26.06,55.718z"/>
	<path d="M30.925,54.87l0.808-4.68c0.116-0.669-0.233-1.306-0.778-1.422c-0.545-0.116-1.081,0.332-1.196,1.002l-0.808,4.68
		c-0.116,0.669,0.233,1.306,0.778,1.422S30.809,55.539,30.925,54.87z"/>
	<path d="M46.243,54.806c0.392-0.436,0.359-1.18-0.075-1.662l-3.033-3.37c-0.434-0.482-1.104-0.519-1.496-0.083
		c-0.392,0.436-0.359,1.18,0.075,1.662l3.033,3.37C45.181,55.205,45.851,55.242,46.243,54.806z"/>
	<path d="M38.457,49.362c-0.454,0.355-0.535,1.095-0.182,1.652l2.469,3.896c0.353,0.557,1.007,0.721,1.461,0.366
		c0.454-0.355,0.535-1.095,0.182-1.652l-2.469-3.896C39.565,49.171,38.911,49.007,38.457,49.362z"/>
	<path d="M35.717,48.922c-0.521,0.211-0.774,0.902-0.563,1.542l1.47,4.477c0.21,0.64,0.803,0.988,1.325,0.777
		s0.774-0.902,0.563-1.542l-1.47-4.477C36.831,49.058,36.238,48.71,35.717,48.922z"/>
	<path d="M34.279,55.872c0.545-0.116,0.893-0.753,0.778-1.422l-0.808-4.68c-0.116-0.669-0.651-1.118-1.196-1.002
		c-0.545,0.116-0.893,0.753-0.778,1.422l0.808,4.68C33.199,55.539,33.734,55.988,34.279,55.872z"/>
</g>
</svg>
