<?xml version="1.0" encoding="utf-8"?>
<!-- Generator: Adobe Illustrator 15.0.0, SVG Export Plug-In . SVG Version: 6.00 Build 0)  -->
<!DOCTYPE svg PUBLIC "-//W3C//DTD SVG 1.1//EN" "http://www.w3.org/Graphics/SVG/1.1/DTD/svg11.dtd">
<svg version="1.1" id="Layer_1" xmlns="http://www.w3.org/2000/svg" xmlns:xlink="http://www.w3.org/1999/xlink" x="0px" y="0px"
	 width="64px" height="64px" viewBox="0 0 64 64" enable-background="new 0 0 64 64" xml:space="preserve">
<g>
	<path d="M48.406,34.245v-11.21c0-3.788-3.079-6.866-6.866-6.866H22.461c-3.788,0-6.867,3.078-6.867,6.866v10.369
		c-4.719,1.28-13.02,4.954-13.02,8.146c0,2.52,3.854,4.725,10.854,6.21l0.338,0.071l0.214-0.27
		c2.215-2.753,9.926-4.676,18.757-4.676c8.441,0,16.068,1.822,18.543,4.437l0.225,0.23l0.313-0.073
		c6.198-1.476,9.609-3.579,9.609-5.93C61.426,39.212,54.801,35.827,48.406,34.245z M15.594,35.193v0.208
		C15.53,35.362,15.545,35.286,15.594,35.193z"/>
</g>
</svg>
