<?xml version="1.0" encoding="iso-8859-1"?>
<!-- Generator: Adobe Illustrator 17.0.0, SVG Export Plug-In . SVG Version: 6.00 Build 0)  -->
<!DOCTYPE svg PUBLIC "-//W3C//DTD SVG 1.1//EN" "http://www.w3.org/Graphics/SVG/1.1/DTD/svg11.dtd">
<svg version="1.1" id="Capa_1" xmlns="http://www.w3.org/2000/svg" xmlns:xlink="http://www.w3.org/1999/xlink" x="0px" y="0px"
	 width="64px" height="64px" viewBox="0 0 64 64" style="enable-background:new 0 0 64 64;" xml:space="preserve">
<path d="M20.07,37.561h24.613c2.08,0,3.767-1.687,3.767-3.767v-0.879c0-2.08-1.687-3.767-3.767-3.767H20.07
	c-2.081,0-3.768,1.687-3.768,3.767v0.879C16.303,35.875,17.989,37.561,20.07,37.561z M43.899,29.943
	c1.803,0,3.265,1.462,3.265,3.265s-1.462,3.265-3.265,3.265c-1.804,0-3.266-1.461-3.266-3.265S42.096,29.943,43.899,29.943z
	 M26.349,29.943h11.867v4.039H26.349V29.943z M20.405,29.943c1.804,0,3.265,1.462,3.265,3.265s-1.461,3.265-3.265,3.265
	c-1.803,0-3.265-1.461-3.265-3.265S18.602,29.943,20.405,29.943z"/>
<path d="M11.785,30.825h-0.007c-0.037,0.149-0.074,0.339-0.116,0.484l-0.148,0.533h0.556l-0.157-0.533
	C11.867,31.161,11.823,30.975,11.785,30.825z"/>
<path d="M13.415,29.943h-3.202v3.412h3.202V29.943z M12.345,32.913l-0.194-0.645h-0.719l-0.179,0.645h-0.585l0.764-2.512h0.745
	l0.783,2.512H12.345z"/>
<path d="M58.371,51.364v-2.25h0.879V38.817h-0.879V17.971c0-0.277-0.225-0.502-0.502-0.502H6.31c-0.277,0-0.503,0.225-0.503,0.502
	v20.846H4.75v10.297h1.058v2.25c0,0.277,0.226,0.502,0.503,0.502h51.559C58.146,51.866,58.371,51.641,58.371,51.364z M53.809,20.645
	l2.26,2.099v19.925h-47.3V22.743l2.177-2.099H53.809z M8.099,18.222c0.602,0,1.088,0.487,1.088,1.088
	c0,0.601-0.486,1.088-1.088,1.088c-0.601,0-1.088-0.487-1.088-1.088C7.011,18.709,7.498,18.222,8.099,18.222z M8.099,50.621
	c-0.601,0-1.088-0.487-1.088-1.088s0.487-1.088,1.088-1.088c0.602,0,1.088,0.487,1.088,1.088S8.7,50.621,8.099,50.621z
	 M19.442,51.02c-0.78,0-1.413-0.633-1.413-1.414c0-0.78,0.633-1.413,1.413-1.413s1.413,0.633,1.413,1.413
	C20.855,50.387,20.223,51.02,19.442,51.02z M25.842,49.104c0,0.277-0.225,0.502-0.503,0.502h-0.826
	c-0.278,0-0.503-0.225-0.503-0.502v-0.827c0-0.277,0.225-0.503,0.503-0.503h0.826c0.278,0,0.503,0.225,0.503,0.503V49.104z
	 M32.377,47.105c-0.521,0-0.942-0.422-0.942-0.942s0.422-0.942,0.942-0.942c0.519,0,0.941,0.422,0.941,0.942
	S32.896,47.105,32.377,47.105z M40.994,49.104c0,0.277-0.225,0.502-0.502,0.502h-0.827c-0.277,0-0.502-0.225-0.502-0.502v-0.827
	c0-0.277,0.225-0.503,0.502-0.503h0.827c0.277,0,0.502,0.225,0.502,0.503V49.104z M45.227,51.02c-0.781,0-1.413-0.633-1.413-1.414
	c0-0.78,0.632-1.413,1.413-1.413c0.78,0,1.413,0.633,1.413,1.413C46.641,50.387,46.008,51.02,45.227,51.02z M56.068,50.867
	c-0.601,0-1.088-0.487-1.088-1.088c0-0.601,0.487-1.088,1.088-1.088c0.602,0,1.089,0.487,1.089,1.088
	C57.157,50.38,56.67,50.867,56.068,50.867z M56.068,20.645c-0.601,0-1.088-0.487-1.088-1.088c0-0.601,0.487-1.088,1.088-1.088
	c0.602,0,1.089,0.487,1.089,1.088C57.157,20.158,56.67,20.645,56.068,20.645z"/>
</svg>
