<?xml version="1.0" encoding="iso-8859-1"?>
<!-- Generator: Adobe Illustrator 17.0.0, SVG Export Plug-In . SVG Version: 6.00 Build 0)  -->
<!DOCTYPE svg PUBLIC "-//W3C//DTD SVG 1.1//EN" "http://www.w3.org/Graphics/SVG/1.1/DTD/svg11.dtd">
<svg version="1.1" id="Capa_1" xmlns="http://www.w3.org/2000/svg" xmlns:xlink="http://www.w3.org/1999/xlink" x="0px" y="0px"
	 width="64px" height="64px" viewBox="0 0 64 64" style="enable-background:new 0 0 64 64;" xml:space="preserve">
<g>
	<path d="M11.378,20.363c0.792-0.744,1.669-1.395,2.643-1.95c4.808-2.735,11.205-2.735,17.979-2.735c6.773,0,13.171,0,17.979,2.735
		c0.974,0.554,1.852,1.206,2.643,1.949c-1.459-7.256-6.829-12.686-13.874-14.815c-0.604-0.119-1.194-0.207-1.769-0.264
		c2.727,1.39,4.297,2.976,4.429,3.114c0.382,0.398,0.369,1.031-0.029,1.414c-0.194,0.186-0.443,0.278-0.692,0.278
		c-0.262,0-0.523-0.103-0.72-0.307c-0.175-0.181-3.162-3.182-8.204-4.24c-5.193,1.07-8.276,4.195-8.319,4.24
		c-0.196,0.205-0.459,0.308-0.722,0.308c-0.249,0-0.498-0.093-0.692-0.278C21.631,9.429,21.618,8.796,22,8.397
		c0.132-0.138,1.706-1.727,4.437-3.118c-0.121,0.012-0.237,0.016-0.36,0.031C18.626,7.253,12.894,12.825,11.378,20.363z"/>
	<path d="M56.027,37.467c0-6.319-1.101-10.613-3.026-13.541C48.897,17.685,41.032,17.678,32,17.678s-16.897,0.007-21.001,6.247
		c-1.925,2.928-3.026,7.222-3.026,13.541c0,2.482,0.56,4.855,1.573,7.044c-0.143-0.782-0.224-1.578-0.224-2.388
		c0-3.539,1.422-6.367,3.793-8.539c4.177-3.827,11.312-5.609,18.885-5.609s14.708,1.783,18.885,5.609
		c2.371,2.172,3.793,4.999,3.793,8.539c0,0.811-0.081,1.607-0.224,2.389C55.467,42.322,56.027,39.949,56.027,37.467z"/>
	<path d="M42.329,42.689C39.186,41.037,32,43.433,32,43.433s-7.186-2.395-10.329-0.743c-2.24,1.177-2.431,4.406,3.508,12.036
		c0,0-4.022-5.85,4.543-6.712c1.053,0.437,2.195,1.587,2.279,1.672v0.018c0,0,0.008-0.008,0.009-0.009
		c0.001,0.001,0.009,0.009,0.009,0.009v-0.018c0.083-0.085,1.223-1.232,2.275-1.67c8.545,0.867,4.528,6.71,4.528,6.71
		C44.76,47.095,44.569,43.867,42.329,42.689z"/>
</g>
</svg>
