<?xml version="1.0" encoding="iso-8859-1"?>
<!-- Generator: Adobe Illustrator 17.0.0, SVG Export Plug-In . SVG Version: 6.00 Build 0)  -->
<!DOCTYPE svg PUBLIC "-//W3C//DTD SVG 1.1//EN" "http://www.w3.org/Graphics/SVG/1.1/DTD/svg11.dtd">
<svg version="1.1" id="Capa_1" xmlns="http://www.w3.org/2000/svg" xmlns:xlink="http://www.w3.org/1999/xlink" x="0px" y="0px"
	 width="64px" height="64px" viewBox="0 0 64 64" style="enable-background:new 0 0 64 64;" xml:space="preserve">
<g>
	<path d="M31.319,44.558c14.32,0,25.929-7.549,25.929-16.861c0-3.647-1.786-7.02-4.813-9.779c0.754,2.359,1.173,4.841,1.173,7.37
		c0,7.653-8.019,13.607-19.499,14.481c-0.026,0.002-0.052,0.003-0.077,0.003c-0.518,0-0.956-0.399-0.996-0.924
		c-0.009-0.117,0.012-0.228,0.042-0.336c0.108-0.397,0.446-0.705,0.879-0.738c10.393-0.791,17.651-5.926,17.651-12.487
		c0-3.245-0.814-6.606-2.272-9.711C46.026,8.526,39.382,2.802,31.319,2.802c-8.063,0-14.707,5.724-18.018,12.776
		c-1.458,3.105-2.272,6.466-2.272,9.711c0,2.673,1.24,5.195,3.587,7.294c0.291,0.26,0.383,0.651,0.288,1.004
		c-0.039,0.146-0.102,0.288-0.21,0.408c-0.368,0.411-0.999,0.447-1.412,0.078c-2.782-2.488-4.253-5.526-4.253-8.784
		c0-2.529,0.419-5.011,1.173-7.37c-3.026,2.758-4.813,6.132-4.813,9.779C5.39,37.01,16.999,44.558,31.319,44.558z"/>
	<path d="M41.026,58.205c1.209,0,2.19-0.889,2.19-1.985c0,0-4.484-7.675-5.693-7.675H34c0,1.481-1.2,2.681-2.681,2.681
		c-1.481,0-2.681-1.2-2.681-2.681h-3.523c-1.209,0-5.693,7.675-5.693,7.675c0,1.096,0.98,1.985,2.19,1.985H41.026z"/>
</g>
</svg>
