<?xml version="1.0" encoding="utf-8"?>
<!-- Generator: Adobe Illustrator 15.0.0, SVG Export Plug-In . SVG Version: 6.00 Build 0)  -->
<!DOCTYPE svg PUBLIC "-//W3C//DTD SVG 1.1//EN" "http://www.w3.org/Graphics/SVG/1.1/DTD/svg11.dtd">
<svg version="1.1" id="Layer_1" xmlns="http://www.w3.org/2000/svg" xmlns:xlink="http://www.w3.org/1999/xlink" x="0px" y="0px"
	 width="64px" height="64px" viewBox="0 0 64 64" enable-background="new 0 0 64 64" xml:space="preserve">
<g>
	<g>
		<path d="M31.999,2.904C15.956,2.904,2.904,15.956,2.904,32c0,16.042,13.052,29.096,29.095,29.096
			c16.044,0,29.098-13.054,29.098-29.096C61.097,15.956,48.043,2.904,31.999,2.904z M31.999,56.292
			C18.604,56.292,7.707,45.396,7.707,32c0-13.396,10.897-24.293,24.292-24.293c13.396,0,24.293,10.897,24.293,24.293
			C56.292,45.396,45.396,56.292,31.999,56.292z"/>
	</g>
	<g>
		<path fill="#231F20" d="M47.008,17.85L29.28,28.378c-0.109,0.066-0.181,0.175-0.197,0.304c-0.003,0.016-0.003,0.03,0,0.042
			l-10.8,18.179l0.187,0.187l18.125-10.766c0.03,0.008,0.062,0.011,0.093,0.011l0.048-0.003c0.131-0.014,0.238-0.087,0.303-0.195
			L47.567,18.41c0.068-0.116,0.068-0.259-0.003-0.383C47.452,17.826,47.188,17.741,47.008,17.85z M46.046,19.371l-9.442,15.896
			l-6.453-6.453L46.046,19.371z"/>
	</g>
</g>
</svg>
