<?xml version="1.0" encoding="utf-8"?>
<!-- Generator: Adobe Illustrator 16.0.0, SVG Export Plug-In . SVG Version: 6.00 Build 0)  -->
<!DOCTYPE svg PUBLIC "-//W3C//DTD SVG 1.1//EN" "http://www.w3.org/Graphics/SVG/1.1/DTD/svg11.dtd">
<svg version="1.1" id="Layer_1" xmlns="http://www.w3.org/2000/svg" xmlns:xlink="http://www.w3.org/1999/xlink" x="0px" y="0px"
	 width="100px" height="100px" viewBox="0 0 100 100" enable-background="new 0 0 100 100" xml:space="preserve">
<g>
	<path d="M27.889,74.951h8.75v-8.784h-8.75V74.951z M29.889,68.167h4.75v4.784h-4.75V68.167z"/>
	<path d="M35.264,34.983c0-1.654-1.346-3-3-3s-3,1.346-3,3v27.184h-5.375v16.784h16.75V62.167h-5.375V34.983z M38.639,64.167v12.784
		h-12.75V64.167h5.375V34.983c0-0.553,0.447-1,1-1c0.553,0,1,0.447,1,1v29.184H38.639z"/>
	<path d="M45.805,58.75h8.75v-8.784h-8.75V58.75z M47.805,51.966h4.75v4.784h-4.75V51.966z"/>
	<path d="M53.18,34.983c0-1.654-1.346-3-3-3c-1.654,0-3,1.346-3,3v10.983h-5.375V62.75h5.375v10.982c0,1.654,1.346,3,3,3
		c1.654,0,3-1.346,3-3V62.75h5.375V45.966H53.18V34.983z M56.555,47.966V60.75H51.18v12.982c0,0.554-0.447,1-1,1s-1-0.446-1-1V60.75
		h-5.375V47.966h5.375V34.983c0-0.553,0.448-1,1-1s1,0.447,1,1v12.983H56.555z"/>
	<path d="M60.116,30.374v16.784h5.375v27.184c0,1.654,1.346,3,3,3s3-1.346,3-3V47.158h5.375V30.374H60.116z M74.866,45.158h-5.375
		v29.184c0,0.553-0.447,1-1,1c-0.552,0-1-0.447-1-1V45.158h-5.375V32.374h12.75V45.158z"/>
	<path d="M72.866,34.374h-8.75v8.784h8.75V34.374z M70.866,41.158h-4.75v-4.784h4.75V41.158z"/>
</g>
</svg>
