<?xml version="1.0" encoding="iso-8859-1"?>
<!-- Generator: Adobe Illustrator 17.0.0, SVG Export Plug-In . SVG Version: 6.00 Build 0)  -->
<!DOCTYPE svg PUBLIC "-//W3C//DTD SVG 1.1//EN" "http://www.w3.org/Graphics/SVG/1.1/DTD/svg11.dtd">
<svg version="1.1" id="Capa_1" xmlns="http://www.w3.org/2000/svg" xmlns:xlink="http://www.w3.org/1999/xlink" x="0px" y="0px"
	 width="64px" height="64px" viewBox="0 0 64 64" style="enable-background:new 0 0 64 64;" xml:space="preserve">
<g>
	<path d="M55.056,19.836c-1.059,7.058-10.941,8.47-10.941,6.176c0-2.294,0.706-15.529-3-16.587
		c-3.706-1.059-2.294-6.529-4.235-7.058c-1.463-0.399-3.123-0.302-3.854-0.229c-0.731-0.072-2.392-0.17-3.854,0.229
		c-1.941,0.529-0.529,6-4.235,7.058c-3.706,1.059-3,14.293-3,16.587c0,2.294-9.882,0.882-10.941-6.176
		c-1.059-7.058-9.882,10.058-1.235,16.94c7.833,6.235,20.88,6.242,23.265,6.188c2.385,0.054,15.432,0.047,23.265-6.188
		C64.938,29.895,56.115,12.778,55.056,19.836z M25.29,23.763c-0.731,0-1.323-0.593-1.323-1.323c0-0.731,0.593-1.323,1.323-1.323
		c0.731,0,1.323,0.593,1.323,1.323C26.613,23.17,26.021,23.763,25.29,23.763z M30.054,24.821c-0.731,0-1.323-0.593-1.323-1.323
		c0-0.731,0.593-1.323,1.323-1.323c0.731,0,1.323,0.593,1.323,1.323C31.378,24.229,30.785,24.821,30.054,24.821z M36.407,24.821
		c-0.731,0-1.323-0.593-1.323-1.323c0-0.731,0.593-1.323,1.323-1.323c0.731,0,1.323,0.593,1.323,1.323
		C37.73,24.229,37.138,24.821,36.407,24.821z M41.171,23.763c-0.731,0-1.323-0.593-1.323-1.323c0-0.731,0.593-1.323,1.323-1.323
		s1.323,0.593,1.323,1.323C42.495,23.17,41.902,23.763,41.171,23.763z"/>
	<path d="M48.684,49.461c-0.242-9.925-2.098-3.228-2.017,3.909c-0.111-9.834-1.989,3.943-3.236,3.425
		c-0.077-0.034-0.147-0.067-0.228-0.102c-0.006-0.003-0.012-0.006-0.012-0.006l0,0c-0.703-0.302-1.576-0.522-2.557-0.691
		c0.01-0.11,0.033-0.217,0.033-0.33v-3.014c0-1.119-0.913-5.5-3.5-5.5h-8.281c-2.587,0-3.5,4.381-3.5,5.5v3.014
		c0,0.099,0.021,0.192,0.029,0.289c-1.082,0.173-2.035,0.406-2.795,0.732l0,0c0,0-0.006,0.003-0.012,0.006
		c-0.081,0.035-0.151,0.068-0.228,0.102c-1.246,0.518-3.125-13.259-3.236-3.425c0.081-7.137-1.775-13.834-2.017-3.909
		c0.148-6.084-1.426,10.566,6.069,10.388l-0.005-0.018c2.239,0.08,5.688,0.775,9.579,0.807v0.006c0.046,0,0.089-0.003,0.135-0.003
		c0.046,0,0.089,0.003,0.135,0.003v-0.006c3.891-0.032,7.34-0.726,9.579-0.807l-0.005,0.018
		C50.109,60.027,48.535,43.377,48.684,49.461z M28.386,52.653c0-0.648,0.458-2.014,0.813-2.5h7.654
		c0.355,0.486,0.813,1.852,0.813,2.5v3.007c-1.427-0.095-2.986-0.13-4.627-0.134v-0.002c-0.046,0-0.089,0.001-0.135,0.001
		c-0.046,0-0.089-0.001-0.135-0.001v0.002c-1.546,0.003-3.026,0.032-4.385,0.115V52.653z"/>
</g>
</svg>
