<?xml version="1.0" encoding="iso-8859-1"?>
<!-- Generator: Adobe Illustrator 17.0.0, SVG Export Plug-In . SVG Version: 6.00 Build 0)  -->
<!DOCTYPE svg PUBLIC "-//W3C//DTD SVG 1.1//EN" "http://www.w3.org/Graphics/SVG/1.1/DTD/svg11.dtd">
<svg version="1.1" id="Capa_1" xmlns="http://www.w3.org/2000/svg" xmlns:xlink="http://www.w3.org/1999/xlink" x="0px" y="0px"
	 width="64px" height="64px" viewBox="0 0 64 64" style="enable-background:new 0 0 64 64;" xml:space="preserve">
<g>
	<path d="M54.03,21.184c-1.059,7.058-10.941,8.47-10.941,6.176c0-2.294,0.706-15.529-3-16.587c-3.706-1.059-2.294-6.529-4.235-7.058
		C34.392,3.316,32.731,3.413,32,3.485c-0.731-0.072-2.392-0.17-3.854,0.229c-1.941,0.529-0.529,6-4.235,7.058
		c-3.706,1.059-3,14.293-3,16.587c0,2.294-9.882,0.882-10.941-6.176c-1.059-7.058-9.882,10.058-1.235,16.94
		c7.833,6.235,20.88,6.242,23.265,6.188c2.385,0.054,15.432,0.047,23.265-6.188C63.912,31.242,55.089,14.126,54.03,21.184z
		 M24.263,25.111c-0.731,0-1.323-0.593-1.323-1.323s0.593-1.323,1.323-1.323c0.731,0,1.323,0.593,1.323,1.323
		S24.994,25.111,24.263,25.111z M29.028,26.169c-0.731,0-1.323-0.593-1.323-1.323c0-0.731,0.593-1.323,1.323-1.323
		s1.323,0.593,1.323,1.323C30.351,25.577,29.759,26.169,29.028,26.169z M35.38,26.169c-0.731,0-1.323-0.593-1.323-1.323
		c0-0.731,0.593-1.323,1.323-1.323c0.731,0,1.323,0.593,1.323,1.323C36.704,25.577,36.111,26.169,35.38,26.169z M40.145,25.111
		c-0.731,0-1.323-0.593-1.323-1.323s0.593-1.323,1.323-1.323c0.731,0,1.323,0.593,1.323,1.323S40.876,25.111,40.145,25.111z"/>
	<path d="M36.013,49.324c0,0-2.387-0.289-3.053,3.053c-1.277,6.411,2.207,4.468,2.207,4.468c3.505-2.219,7.329,0.997,10.872,3.297
		c3.543,2.3,1.075-1.865,1.075-1.865C41.411,49.295,36.013,49.324,36.013,49.324z"/>
	<path d="M27.987,49.324c0,0-5.398-0.029-11.102,8.953c0,0-2.468,4.164,1.075,1.865c3.543-2.299,7.368-5.516,10.872-3.297
		c0,0,3.484,1.943,2.207-4.468C30.375,49.035,27.987,49.324,27.987,49.324z"/>
</g>
</svg>
