<?xml version="1.0" encoding="utf-8"?>
<!-- Generator: Adobe Illustrator 17.0.0, SVG Export Plug-In . SVG Version: 6.00 Build 0)  -->
<!DOCTYPE svg PUBLIC "-//W3C//DTD SVG 1.1//EN" "http://www.w3.org/Graphics/SVG/1.1/DTD/svg11.dtd">
<svg version="1.1" id="Capa_1" xmlns="http://www.w3.org/2000/svg" xmlns:xlink="http://www.w3.org/1999/xlink" x="0px" y="0px"
	 width="25.411px" height="24.212px" viewBox="0 0 25.411 24.212" enable-background="new 0 0 25.411 24.212" xml:space="preserve">
<path d="M5.756,22.349l2.141,1.167v0.696l-0.355-0.193v0.193L5.17,22.919l-2.265,1.293V24.01l-0.354,0.202v-0.696l2.208-1.263v-7.61
	L0,14.304l0.069-0.96l0.394,0.028V5.665l4.01,0.305V1.566C2.186,1.548,0.375,1.321,0.375,1.045c0-0.277,1.811-0.503,4.098-0.522V0
	h0.572v0.523c2.286,0.018,4.096,0.244,4.096,0.521c0,0.277-1.81,0.503-4.096,0.521v4.448L9.63,6.361v2.586
	c-2.053,1.143-3.466,3.296-3.564,5.789l-0.31-0.022V22.349z M21.42,14.638h-0.002l3.993-0.334l-0.068-0.959l-0.391,0.028V5.665
	l-6.059,0.498l-0.101,0.07l-0.04-0.058L16.48,6.362v2.65c1.996,1.159,3.361,3.282,3.456,5.732l0.842-0.06v7.318l-2.208,1.263v0.696
	l2.437-1.394l2.554,1.394v-0.696l-2.141-1.167V14.638z M16.027,20.655h0.138v3.46h-0.944v-3.081
	c-0.709,0.275-1.48,0.427-2.288,0.427c-0.752,0-1.475-0.133-2.146-0.373v3.027H9.843v-3.458c-1.943-1.085-3.258-3.16-3.258-5.543
	c0-3.506,2.843-6.348,6.348-6.348c3.507,0,6.349,2.841,6.349,6.347C19.282,17.495,17.969,19.57,16.027,20.655z M15.46,15.114
	c0-1.394-1.132-2.528-2.527-2.528c-1.393,0-2.527,1.134-2.527,2.528c0,1.392,1.134,2.526,2.527,2.526
	C14.327,17.64,15.46,16.506,15.46,15.114z M25.41,5.014l-0.093-0.569L20.19,5.281l4.549-3.093l-0.324-0.477l-5.577,3.79
	l-0.619,0.101l0.093,0.57l0.395-0.064l0.044,0.066l0.142-0.011l0.166-0.113L25.41,5.014z"/>
</svg>
