<?xml version="1.0" encoding="iso-8859-1"?>
<!-- Generator: Adobe Illustrator 17.0.0, SVG Export Plug-In . SVG Version: 6.00 Build 0)  -->
<!DOCTYPE svg PUBLIC "-//W3C//DTD SVG 1.1//EN" "http://www.w3.org/Graphics/SVG/1.1/DTD/svg11.dtd">
<svg version="1.1" id="Capa_1" xmlns="http://www.w3.org/2000/svg" xmlns:xlink="http://www.w3.org/1999/xlink" x="0px" y="0px"
	 width="64px" height="64px" viewBox="0 0 64 64" style="enable-background:new 0 0 64 64;" xml:space="preserve">
<g>
	<path d="M49.888,42.941c-0.548,0-1.06,0.056-1.522,0.146l4.911-22.14l-0.055-0.012c0.08-0.228,0.132-0.463,0.132-0.714
		c0-4.955-16.272-5.099-18.128-5.099c-1.856,0-18.13,0.144-18.13,5.099c0,0.637,0.273,1.193,0.744,1.681l4.705,21.21
		c-0.491-0.106-1.043-0.172-1.637-0.172c-1.948,0-3.527,0.646-3.527,1.444c0,0.799,1.579,1.445,3.527,1.445
		c1.948,0,3.526-0.646,3.526-1.445c0-0.222-0.133-0.43-0.351-0.618l-2.052-9.247c2.022,2.045,6.873,6.269,12.74,6.613v6.303
		c-0.909,0.191-1.572,0.747-1.572,1.411c0,0.821,1.009,1.487,2.252,1.487c1.243,0,2.252-0.666,2.252-1.487
		c0-0.664-0.663-1.22-1.572-1.411v-6.299c5.993-0.308,10.921-5.132,12.913-7.392l-2.201,9.923c-0.299,0.212-0.483,0.455-0.483,0.717
		c0,0.799,1.579,1.445,3.526,1.445c1.948,0,3.527-0.646,3.527-1.445C53.415,43.588,51.836,42.941,49.888,42.941z M35.226,22.603
		c-8.936,0-14.113-1.472-15.262-2.38c1.148-0.908,6.326-2.379,15.262-2.379c8.935,0,14.112,1.471,15.26,2.379
		C49.338,21.131,44.16,22.603,35.226,22.603z"/>
</g>
</svg>
