<?xml version="1.0" encoding="utf-8"?>
<!-- Generator: Adobe Illustrator 16.0.0, SVG Export Plug-In . SVG Version: 6.00 Build 0)  -->
<!DOCTYPE svg PUBLIC "-//W3C//DTD SVG 1.1//EN" "http://www.w3.org/Graphics/SVG/1.1/DTD/svg11.dtd">
<svg version="1.1" id="Layer_6" xmlns="http://www.w3.org/2000/svg" xmlns:xlink="http://www.w3.org/1999/xlink" x="0px" y="0px"
	 width="100px" height="100px" viewBox="0 0 100 100" enable-background="new 0 0 100 100" xml:space="preserve">
<path d="M52.97,87.218c0.189,1.039,0.651,1.989,1.319,2.813c-11.867,1.104-22.337-2.364-31.154-10.429
	c-7.435-6.799-11.623-15.326-12.757-25.324C8.001,33.33,23.035,13.641,43.828,10.449c2.025-0.311,4.074-0.459,6.112-0.682
	c0.144,0,0.289,0,0.433,0c2.182,0.227,4.388,0.324,6.544,0.699c10.814,1.885,19.474,7.297,25.95,16.148
	c3.675,5.027,6.05,10.621,7.001,16.704l-11.532,1.87c-0.25-0.083-0.528-0.16-0.875-0.236c-2.005-0.438-2.645-1.34-2.082-3.314
	c0.376-1.316,0.995-2.566,1.558-3.824c0.588-1.313,0.981-2.607,0.679-4.098c-0.271-1.34-0.23-2.707,0.996-3.832
	c-1.142-1.299-2.197-2.557-3.322-3.748c-0.531-0.561-0.976-0.357-1.14,0.43c-0.04,0.193-0.033,0.396-0.078,0.588
	c-0.414,1.754-1.496,2.156-2.911,1.084c-0.236-0.18-0.443-0.434-0.708-0.527c-0.445-0.156-0.951-0.355-1.389-0.281
	c-1.521,0.258-1.772,0.076-1.636-1.432c0.097-1.064-0.277-1.467-1.331-1.418c-0.361,0.018-0.721,0.092-1.082,0.1
	c-1.14,0.018-1.854-0.846-1.573-1.949c0.146-0.57,0.461-1.096,0.598-1.666c0.103-0.424,0.235-1.082,0.019-1.295
	c-0.871-0.855-1.809-1.68-2.839-2.328c-1.854-1.17-3.729-0.314-5.573,0.119c-0.198,1.506-0.405,1.709-1.841,1.283
	c-1.708-0.51-3.332-1.223-4.496-2.691c-0.146-0.186-0.496-0.33-0.729-0.305c-1.763,0.201-3.522,0.432-5.274,0.705
	c-0.252,0.041-0.647,0.379-0.643,0.574c0.006,0.338,0.229,0.92,0.439,0.957c0.569,0.1,1.229,0.098,1.759-0.105
	c0.725-0.281,1.341-0.83,2.046-1.18c0.854-0.424,1.471-0.111,1.714,0.811c0.289,1.092-0.101,2.018-0.991,2.586
	c-1.213,0.771-2.543,1.359-3.799,2.066c-0.882,0.494-1.786,0.982-2.569,1.611c-0.629,0.506-1.067,1.291-0.567,2.098
	c0.464,0.75,1.289,0.574,1.973,0.332c0.702-0.248,1.367-0.615,2.021-0.98c0.399-0.223,0.727-0.57,1.118-0.809
	c0.78-0.475,1.195-0.314,1.493,0.533c0.5,1.424,1.453,1.754,2.728,0.928c0.551-0.357,1.047-0.809,1.622-1.119
	c0.848-0.457,1.757,0.029,1.839,0.92c0.12,1.305,0.424,1.559,1.718,1.414c0.763-0.086,1.524-0.199,2.286-0.301
	c0.067,0.078,0.134,0.154,0.201,0.232c-0.266,0.496-0.42,1.127-0.822,1.457c-0.621,0.506-1.386,0.863-2.134,1.182
	c-1.087,0.463-2.064,0.742-2.101,0.805c0,0,1.526,0.617,0.721,0.846c-1.326,0.375-3.333,2.525-0.45,1.633
	c0.517-0.158,1.045-0.285,1.771-0.482c-0.606,1.824-1.888,2.541-3.157,3.221c-3.796,2.031-3.93,6.898-1.992,9.396
	c0.42,0.543,0.771,1.152,1.069,1.771c0.345,0.713,0.321,1.568-0.364,1.943c-0.46,0.252-1.386,0.199-1.796-0.115
	c-0.998-0.764-1.902-1.693-2.687-2.684c-0.998-1.256-1.716-2.748-2.772-3.945c-3.412-3.863-7.263-3.012-10.56-0.104
	c-0.834,0.736-0.724,1.402,0.196,2.008c0.327,0.213,0.685,0.393,1.049,0.539c1.464,0.592,2.938,1.156,4.402,1.746
	c0.301,0.121,0.61,0.262,0.86,0.463c0.507,0.408,0.535,0.844-0.127,1.107c-0.484,0.191-1.003,0.307-1.515,0.418
	c-0.961,0.209-1.979,0.268-2.875,0.631c-0.52,0.211-1.116,0.855-1.185,1.369c-0.059,0.439,0.524,1.039,0.942,1.443
	c0.312,0.299,0.838,0.363,1.227,0.602c0.541,0.328,1.124,0.648,1.545,1.104c0.712,0.771,1.215,0.963,2.138,0.447
	c0.889-0.496,1.745-1.049,2.603-1.598c1.017-0.648,1.209-0.568,1.796,0.473c0.729,1.295,1.734,2.361,3.366,2.072
	c1.166-0.209,2.272-0.746,3.407-1.129c0.773-0.262,1.535-0.643,2.329-0.736c1.625-0.195,2.87,1.18,2.962,3.084
	c0.091,1.904-0.791,3.33-2.135,4.568c-1.318,1.213-2.027,2.6-1.421,4.484c0.645,2.004-0.042,3.725-1.575,5.057
	c-1.063,0.926-2.239,1.729-3.412,2.518c-1.374,0.922-3.661,5.979-3.157,7.76c0.096,0.334,0.124,0.379,0.099,0.74
	c-0.131,1.898-1.105,1.564-2.801,1.861c-0.958,0.168-0.864-1.861-1.083-2.789c-0.211-0.891-0.21-1.881-0.071-2.793
	c0.136-0.896,0.557-1.748,0.864-2.615c0.641-1.818,0.177-3.365-1.158-4.684c-0.584-0.578-1.224-1.102-1.824-1.664
	c-2.182-2.041-3.241-4.607-3.356-7.547c-0.058-1.48,0.669-2.154,2.136-2.293c0.307-0.029,0.613-0.07,0.921-0.105
	c-0.172-1.23-0.623-1.697-1.826-1.773c-1.143-0.07-1.808-0.715-2.248-1.656c-0.205-0.439-0.242-0.955-0.415-1.412
	c-0.413-1.09-0.703-2.273-1.344-3.215c-0.578-0.848-1.051-1.58-1.029-2.658c0.01-0.504-0.352-1.09-0.703-1.508
	c-0.795-0.943-1.676-1.816-2.547-2.693c-0.342-0.344-0.752-0.621-1.317-1.078c-0.039,0.863-0.04,1.422-0.094,1.973
	c-0.078,0.781-0.087,1.596-0.337,2.322c-0.139,0.406-0.734,0.947-1.075,0.914c-0.434-0.041-1.061-0.533-1.175-0.949
	c-0.209-0.762-0.265-1.645-0.104-2.42c0.755-3.637,1.075-7.287,0.651-10.986c-0.155-1.355-0.343-2.705-0.534-4.207
	c-7.101,8.354-10.503,23.531-3.518,36.945c6.481,12.445,19.353,19.54,32.878,18.659C52.746,85.623,52.785,86.421,52.97,87.218z
	 M64.967,80.329c-1.307-0.457-2.86-0.537-4.451-0.143c-3.533,0.886-5.845,3.795-5.167,6.504c0.396,2.51,4.091,4.189,7.616,3.302
	c3.105-0.768,5.267-3.121,5.284-5.516h0.003l0.084-25.299l18.247-3.335v20.336c-1.327-0.469-2.916-0.551-4.526-0.152
	c-3.569,0.895-5.904,3.832-5.22,6.573c0.683,2.734,4.129,4.229,7.697,3.345c3.251-0.821,5.334-3.051,5.334-5.846V46.345
	l-24.902,4.038V80.329z"/>
</svg>
