<?xml version="1.0" encoding="iso-8859-1"?>
<!-- Generator: Adobe Illustrator 17.0.0, SVG Export Plug-In . SVG Version: 6.00 Build 0)  -->
<!DOCTYPE svg PUBLIC "-//W3C//DTD SVG 1.1//EN" "http://www.w3.org/Graphics/SVG/1.1/DTD/svg11.dtd">
<svg version="1.1" id="Capa_1" xmlns="http://www.w3.org/2000/svg" xmlns:xlink="http://www.w3.org/1999/xlink" x="0px" y="0px"
	 width="64px" height="64px" viewBox="0 0 64 64" style="enable-background:new 0 0 64 64;" xml:space="preserve">
<path d="M50.188,7.014L28.742,28.46c-0.974,0.242-1.917,0.195-2.583-0.47c-1.577-1.577,0.705-5.026,1.89-6.59
	c0.341-0.45,0.223-0.605-0.289-0.367l-4.692,2.184c-0.512,0.238-1.007,0.882-1.127,1.434c-0.371,1.705-1.25,5.115-2.586,6.451
	c-1.503,1.503-10.5,3.251-13.544,3.807c-0.555,0.101-1.011,0.636-1.057,1.199c-0.377,4.63-2.681,10.057-3.659,12.186
	c-0.236,0.513-0.032,0.712,0.48,0.474c6.71-3.107,11.445-1.577,12.53-0.491c0.943,0.943-1.88,9.958-2.856,12.964
	c-0.174,0.537,0.083,0.753,0.58,0.485l9.187-4.959c0.497-0.268,0.994-0.934,1.119-1.484c0.6-2.641,2.34-9.727,4.123-11.51
	c1.542-1.542,4.178-1.989,5.623-2.119c0.562-0.05,1.245-0.452,1.521-0.944l1.914-3.403c0.277-0.492,0.144-0.603-0.329-0.295
	c-1.436,0.935-4.425,2.445-6.429,0.441c-0.873-0.873-0.722-2.352-0.124-3.956L52.641,9.289c0.435-0.362,1.522-1.147,2.435-0.775
	c0,0,3.457-4.105,5.79-4.061c0,0,0.799-1.793,1.534-3.219L50.366,3.934C50.366,3.934,51.375,5.533,50.188,7.014z M20.768,42.997
	l-1.152,1.152c-0.399,0.399-1.046,0.399-1.446,0l-3.072-3.072c-0.399-0.399-0.399-1.046,0-1.446l1.152-1.152
	c0.399-0.399,1.046-0.399,1.446,0l3.072,3.072C21.167,41.95,21.167,42.597,20.768,42.997z M25.404,36.915
	c0.399,0.399,0.399,1.046,0,1.446l-1.152,1.152c-0.399,0.399-1.046,0.399-1.446,0l-3.072-3.072c-0.399-0.399-0.399-1.046,0-1.446
	l1.152-1.152c0.399-0.399,1.046-0.399,1.446,0l0.513,0.513l2.364,2.364L25.404,36.915z"/>
</svg>
