<?xml version="1.0" encoding="iso-8859-1"?>
<!-- Generator: Adobe Illustrator 17.0.0, SVG Export Plug-In . SVG Version: 6.00 Build 0)  -->
<!DOCTYPE svg PUBLIC "-//W3C//DTD SVG 1.1//EN" "http://www.w3.org/Graphics/SVG/1.1/DTD/svg11.dtd">
<svg version="1.1" id="Capa_1" xmlns="http://www.w3.org/2000/svg" xmlns:xlink="http://www.w3.org/1999/xlink" x="0px" y="0px"
	 width="64px" height="64px" viewBox="0 0 64 64" style="enable-background:new 0 0 64 64;" xml:space="preserve">
<g>
	<path d="M14.502,27.91c-4.257,0-7.707,3.451-7.707,7.707c0,4.257,3.451,7.707,7.707,7.707c4.257,0,7.707-3.451,7.707-7.707
		C22.209,31.361,18.759,27.91,14.502,27.91z M14.502,40.825c-2.871,0-5.207-2.336-5.207-5.207c0-1.812,0.933-3.407,2.341-4.34v3.251
		c0,1.581,1.286,2.867,2.866,2.867s2.866-1.286,2.866-2.867v-3.251c1.408,0.933,2.341,2.528,2.341,4.34
		C19.709,38.489,17.373,40.825,14.502,40.825z M14.868,28.713v0.466v1.268v4.081c0,0.202-0.164,0.367-0.366,0.367
		s-0.366-0.165-0.366-0.367v-4.081v-1.268v-0.466H14.868z"/>
	<path d="M32,28.021c-4.257,0-7.707,3.451-7.707,7.707c0,4.257,3.451,7.707,7.707,7.707c4.257,0,7.707-3.451,7.707-7.707
		C39.707,31.472,36.257,28.021,32,28.021z M32,40.936c-2.871,0-5.207-2.336-5.207-5.207s2.336-5.207,5.207-5.207
		c0.3,0,0.589,0.04,0.875,0.088l-2.266,2.267c-1.117,1.117-1.117,2.936,0,4.054c0.542,0.541,1.262,0.839,2.027,0.839
		s1.485-0.298,2.026-0.84l2.394-2.394c0.091,0.385,0.151,0.781,0.151,1.193C37.207,38.6,34.871,40.936,32,40.936z M37.891,31.933
		l-0.884-0.884l-0.287,0.287l-0.891,0.891l-2.934,2.935c-0.178,0.177-0.341,0.176-0.519,0c-0.143-0.144-0.143-0.376,0-0.519
		l2.916-2.916l0.901-0.901l0.296-0.296l-0.884-0.884l0,0L37.891,31.933L37.891,31.933z"/>
	<path d="M49.498,27.91c-4.257,0-7.707,3.451-7.707,7.707c0,4.257,3.451,7.707,7.707,7.707s7.707-3.451,7.707-7.707
		C57.205,31.361,53.755,27.91,49.498,27.91z M52.364,39.958v-3.107c0-1.581-1.286-2.867-2.866-2.867s-2.866,1.286-2.866,2.867v3.107
		c-1.408-0.933-2.341-2.528-2.341-4.34c0-2.871,2.336-5.207,5.207-5.207s5.207,2.336,5.207,5.207
		C54.705,37.43,53.772,39.025,52.364,39.958z M49.132,42.666v-0.61v-1.269v-3.937c0-0.202,0.164-0.367,0.366-0.367
		s0.366,0.165,0.366,0.367v3.937v1.269v0.61H49.132z"/>
	<path d="M10.404,48.687H9.251c-0.164,0-0.298-0.134-0.298-0.298v-2.535c0-0.385-0.292-0.699-0.65-0.699s-0.65,0.313-0.65,0.699
		v3.31c0,0.385,0.313,0.699,0.699,0.699h2.053c0.386,0,0.699-0.264,0.699-0.587S10.79,48.687,10.404,48.687z"/>
	<path d="M13.413,45.023c-0.669,0-1.191,0.189-1.546,0.554c-0.478,0.434-0.721,1.081-0.721,1.925c0,0.827,0.242,1.474,0.712,1.916
		c0.363,0.374,0.886,0.564,1.555,0.564s1.191-0.19,1.549-0.558c0.474-0.448,0.714-1.094,0.714-1.922
		c0-0.844-0.241-1.491-0.708-1.916C14.604,45.213,14.082,45.023,13.413,45.023z M14.376,47.502c0,0.436-0.091,0.771-0.271,0.997
		c-0.172,0.215-0.398,0.319-0.692,0.319c-0.296,0-0.524-0.104-0.697-0.32c-0.183-0.226-0.274-0.561-0.274-0.997
		s0.092-0.771,0.273-0.997c0.174-0.215,0.402-0.32,0.698-0.32c0.294,0,0.521,0.104,0.691,0.32
		C14.285,46.733,14.376,47.069,14.376,47.502z"/>
	<path d="M20.809,45.155c-0.347,0-0.682,0.282-0.765,0.641l-0.394,1.706l-0.353-1.7c-0.076-0.363-0.415-0.647-0.771-0.647
		c-0.359,0-0.696,0.286-0.768,0.651l-0.322,1.645l-0.382-1.655c-0.083-0.359-0.428-0.641-0.784-0.641
		c-0.186,0-0.351,0.078-0.452,0.213c-0.106,0.141-0.136,0.331-0.082,0.521l0.949,3.348c0.1,0.351,0.428,0.625,0.746,0.625
		c0.325,0,0.64-0.285,0.715-0.648l0.375-1.817l0.375,1.817c0.075,0.363,0.396,0.648,0.729,0.648c0.327,0,0.66-0.275,0.758-0.626
		l0.941-3.346c0.056-0.195,0.025-0.387-0.081-0.528C21.143,45.228,20.988,45.155,20.809,45.155z"/>
	<path d="M31.154,45.146c-0.471,0-0.938,0.428-1.065,0.975l-0.437,1.898l-0.439-1.899c-0.127-0.546-0.599-0.975-1.073-0.975
		c-0.49,0-0.89,0.467-0.89,1.042v2.85c0,0.594,0.276,1.042,0.642,1.042s0.642-0.448,0.642-1.042v-1.127l0.267,1.191
		c0.107,0.474,0.438,0.978,0.84,0.978c0.403,0,0.734-0.503,0.841-0.977l0.272-1.208v1.144c0,0.594,0.276,1.042,0.642,1.042
		s0.642-0.448,0.642-1.042v-2.85C32.036,45.614,31.641,45.146,31.154,45.146z"/>
	<path d="M36.303,45.905c-0.22-0.313-0.514-0.531-0.872-0.649c-0.207-0.068-0.464-0.104-0.765-0.109h-1.112
		c-0.574,0-1.042,0.467-1.042,1.042v2.85c0,0.574,0.468,1.042,1.042,1.042h1.112c0.759,0,1.328-0.318,1.693-0.946
		c0.259-0.447,0.391-0.996,0.391-1.631c0-0.248-0.03-0.514-0.091-0.793C36.596,46.42,36.476,46.15,36.303,45.905z M33.831,48.251
		v-1.276c0-0.417,0.168-0.641,0.237-0.641h0.438c0.358,0,0.585,0.089,0.691,0.271c0.126,0.215,0.189,0.538,0.189,0.961
		c0,0.308-0.044,0.574-0.13,0.79c-0.146,0.366-0.386,0.536-0.751,0.536h-0.438C33.999,48.892,33.831,48.667,33.831,48.251z"/>
	<path d="M49.961,45.049c-0.369,0-0.669,0.325-0.669,0.724v0.676c0,0.178-0.145,0.323-0.323,0.323h-0.711
		c-0.179,0-0.323-0.145-0.323-0.323v-0.676c0-0.399-0.3-0.724-0.669-0.724s-0.67,0.325-0.67,0.724v3.473
		c0,0.399,0.301,0.724,0.67,0.724s0.669-0.325,0.669-0.724v-0.971c0-0.178,0.145-0.323,0.323-0.323h0.711
		c0.179,0,0.323,0.145,0.323,0.323v0.971c0,0.399,0.3,0.724,0.669,0.724s0.669-0.325,0.669-0.724v-3.473
		C50.63,45.374,50.33,45.049,49.961,45.049z"/>
	<path d="M51.73,45.049c-0.369,0-0.67,0.325-0.67,0.724v3.473c0,0.399,0.301,0.724,0.67,0.724s0.669-0.325,0.669-0.724v-3.473
		C52.399,45.374,52.1,45.049,51.73,45.049z"/>
	<path d="M0.917,54.25h62.166V17.417H0.917V54.25z M3.417,19.917h57.166V51.75H3.417V19.917z"/>
	<path d="M15.752,25.752c0-0.965,0.785-1.75,1.75-1.75H30.75v2.746h2.5v-2.746h13.248c0.965,0,1.75,0.785,1.75,1.75v0.996h2.5
		v-0.996c0-2.343-1.906-4.25-4.25-4.25H17.502c-2.344,0-4.25,1.907-4.25,4.25v0.996h2.5V25.752z"/>
</g>
</svg>
