<?xml version="1.0" encoding="iso-8859-1"?>
<!-- Generator: Adobe Illustrator 17.0.0, SVG Export Plug-In . SVG Version: 6.00 Build 0)  -->
<!DOCTYPE svg PUBLIC "-//W3C//DTD SVG 1.1//EN" "http://www.w3.org/Graphics/SVG/1.1/DTD/svg11.dtd">
<svg version="1.1" id="Capa_1" xmlns="http://www.w3.org/2000/svg" xmlns:xlink="http://www.w3.org/1999/xlink" x="0px" y="0px"
	 width="64px" height="64px" viewBox="0 0 64 64" style="enable-background:new 0 0 64 64;" xml:space="preserve">
<g>
	<path d="M1.464,61.902h7.145v-7.145H1.464V61.902z M1.964,55.257h6.145v6.145H1.964V55.257z"/>
	<path d="M1.464,53.847h7.145v-7.145H1.464V53.847z M2.464,47.701h5.145v5.145H2.464V47.701z"/>
	<path d="M1.464,45.493h7.145v-7.145H1.464V45.493z M2.964,39.847h4.145v4.145H2.964V39.847z"/>
	<path d="M1.464,36.828h7.145v-7.145H1.464V36.828z M3.464,31.683h3.145v3.145H3.464V31.683z"/>
	<path d="M28.464,61.902h7.145v-7.145h-7.145V61.902z M28.964,55.257h6.145v6.145h-6.145V55.257z"/>
	<path d="M35.609,46.701h-7.145v7.145h7.145V46.701z M34.609,52.847h-5.145v-5.145h5.145V52.847z"/>
	<path d="M35.609,38.347h-7.145v7.145h7.145V38.347z M34.109,43.993h-4.145v-4.145h4.145V43.993z"/>
	<path d="M35.609,29.683h-7.145v7.145h7.145V29.683z M33.609,34.828h-3.145v-3.145h3.145V34.828z"/>
	<path d="M37.464,61.902h7.145v-7.145h-7.145V61.902z M37.964,55.257h6.145v6.145h-6.145V55.257z"/>
	<path d="M37.464,53.847h7.145v-7.145h-7.145V53.847z M38.464,47.701h5.145v5.145h-5.145V47.701z"/>
	<path d="M37.464,45.493h7.145v-7.145h-7.145V45.493z M38.964,39.847h4.145v4.145h-4.145V39.847z"/>
	<path d="M46.464,61.902h7.145v-7.145h-7.145V61.902z M46.964,55.257h6.145v6.145h-6.145V55.257z"/>
	<path d="M53.609,46.701h-7.145v7.145h7.145V46.701z M52.609,52.847h-5.145v-5.145h5.145V52.847z"/>
	<path d="M55.391,61.902h7.145v-7.145h-7.145V61.902z M55.891,55.257h6.145v6.145h-6.145V55.257z"/>
	<path d="M55.391,53.847h7.145v-7.145h-7.145V53.847z M56.391,47.701h5.145v5.145h-5.145V47.701z"/>
	<path d="M46.464,45.493h7.145v-7.145h-7.145V45.493z M47.964,39.847h4.145v4.145h-4.145V39.847z"/>
	<path d="M37.464,36.828h7.145v-7.145h-7.145V36.828z M39.464,31.683h3.145v3.145h-3.145V31.683z"/>
	<path d="M35.609,21.099h-7.145v7.145h7.145V21.099z M33.109,25.745h-2.145v-2.145h2.145V25.745z"/>
	<path d="M19.464,61.902h7.145v-7.145h-7.145V61.902z M19.964,55.257h6.145v6.145h-6.145V55.257z"/>
	<path d="M26.609,46.701h-7.145v7.145h7.145V46.701z M25.609,52.847h-5.145v-5.145h5.145V52.847z"/>
	<path d="M26.609,38.347h-7.145v7.145h7.145V38.347z M25.109,43.993h-4.145v-4.145h4.145V43.993z"/>
	<path d="M26.609,29.683h-7.145v7.145h7.145V29.683z M24.609,34.828h-3.145v-3.145h3.145V34.828z"/>
	<path d="M26.609,21.099h-7.145v7.145h7.145V21.099z M24.109,25.745h-2.145v-2.145h2.145V25.745z"/>
	<path d="M35.609,12.425h-7.145v7.145h7.145V12.425z M32.609,16.57h-1.145v-1.145h1.145V16.57z"/>
	<path d="M10.464,61.902h7.145v-7.145h-7.145V61.902z M10.964,55.257h6.145v6.145h-6.145V55.257z"/>
	<path d="M17.609,46.701h-7.145v7.145h7.145V46.701z M16.609,52.847h-5.145v-5.145h5.145V52.847z"/>
	<path d="M17.609,38.347h-7.145v7.145h7.145V38.347z M16.109,43.993h-4.145v-4.145h4.145V43.993z"/>
	<path d="M17.609,29.683h-7.145v7.145h7.145V29.683z M15.609,34.828h-3.145v-3.145h3.145V34.828z"/>
	<path d="M17.609,21.099h-7.145v7.145h7.145V21.099z M15.109,25.745h-2.145v-2.145h2.145V25.745z"/>
	<path d="M17.609,12.425h-7.145v7.145h7.145V12.425z M14.609,16.57h-1.145v-1.145h1.145V16.57z"/>
	<rect x="28.464" y="3.758" width="7.145" height="7.145"/>
</g>
</svg>
