<?xml version="1.0" encoding="iso-8859-1"?>
<!-- Generator: Adobe Illustrator 17.0.0, SVG Export Plug-In . SVG Version: 6.00 Build 0)  -->
<!DOCTYPE svg PUBLIC "-//W3C//DTD SVG 1.1//EN" "http://www.w3.org/Graphics/SVG/1.1/DTD/svg11.dtd">
<svg version="1.1" id="Capa_1" xmlns="http://www.w3.org/2000/svg" xmlns:xlink="http://www.w3.org/1999/xlink" x="0px" y="0px"
	 width="64px" height="64px" viewBox="0 0 64 64" style="enable-background:new 0 0 64 64;" xml:space="preserve">
<g>
	<path d="M57.065,23.034c-1.105,0-2.08,0.533-2.702,1.35c-0.384-4.465-1.362-11.556-3.803-15.256
		C46.828,3.47,38.74,5.167,38.74,5.167s-3.111-0.239-3.111,4.934c0,2.278-2.51,2.562-3.469,2.588c-0.01,0-0.029,0.001-0.043,0.001
		c-0.043,0.001-0.082,0.001-0.117,0.001c-0.035,0-0.074,0-0.117-0.001c-0.013,0-0.033,0-0.043-0.001
		c-0.959-0.026-3.469-0.31-3.469-2.588c0-5.173-3.111-4.934-3.111-4.934s-8.088-1.697-11.821,3.96
		c-2.441,3.7-3.419,10.791-3.803,15.256c-0.621-0.817-1.596-1.349-2.701-1.349c-1.879,0-3.401,1.523-3.401,3.401
		c0,8.472,21.789,9.13,28.467,9.13c6.679,0,28.467-0.659,28.467-9.13C60.467,24.557,58.944,23.034,57.065,23.034z M11.232,22.118
		c0,0,12.016,1.69,20.932,1.7c8.779-0.01,20.611-1.7,20.611-1.7c0.156,1.366,0.282,2.713,0.372,3.745
		c-2.564,1.232-9.828,2.9-21.148,2.9c-11.317,0-18.579-1.667-21.145-2.899C10.945,24.832,11.073,23.485,11.232,22.118z"/>
	<path d="M17.696,59.065c0,0,10.561,3.444,14.127-7.703c3.566,11.148,14.127,7.703,14.127,7.703s-5.379,1.567-4.753-8.721
		c0.627-10.288-6.58-10.027-6.58-10.027c-1.095,0-2.083,0.452-2.794,1.177c-0.711-0.725-1.699-1.177-2.794-1.177
		c0,0-7.207-0.261-6.58,10.027C23.075,60.632,17.696,59.065,17.696,59.065z"/>
</g>
</svg>
