<?xml version="1.0" encoding="iso-8859-1"?>
<!-- Generator: Adobe Illustrator 16.0.4, SVG Export Plug-In . SVG Version: 6.00 Build 0)  -->
<!DOCTYPE svg PUBLIC "-//W3C//DTD SVG 1.1//EN" "http://www.w3.org/Graphics/SVG/1.1/DTD/svg11.dtd">
<svg version="1.1" id="Capa_1" xmlns="http://www.w3.org/2000/svg" xmlns:xlink="http://www.w3.org/1999/xlink" x="0px" y="0px"
	 width="66.786px" height="41.445px" viewBox="0 0 66.786 41.445" style="enable-background:new 0 0 66.786 41.445;"
	 xml:space="preserve">
<g>
	<path id="path3826" style="fill:#040606;" d="M10.344,21.09c0.465-2.111,2.969-2.404,5.412-1.12
		c11.24,5.898,27.686,8.111,37.305,6.622c2.729-0.422,4.93-0.02,5.078,1.579c0.148,1.6-1.463,4.421-4.104,5.22
		c-10.09,3.046-30.389-0.231-40.363-5.588C11.238,26.498,9.879,23.202,10.344,21.09L10.344,21.09z M61.477,38.871
		c7.076-2.279,6.627-7.579,1.324-11.18c-2.283-1.551-4.496-2.275-4.516-2.385l-0.035-0.198c0,0-2.514-15.775-7.926-20.424
		c-6.377-5.349-14.537-5.193-20.48-4.007c-2.709,0.54-2.576,1.226,0.145,1.691c6.602,1.128,13.24,4.273,17.088,5.574
		c2.615,0.885,5.68,2.441,2.934,2.156c-4.875-0.505-20.393-8.4-29.586-7.614c-4.459,0.409-5.57,4.235-5.57,4.235l-3.359,9.512
		c0,0-0.197,0.555-0.443,1.239c-0.242,0.685-2.697,1.435-5.318,2.301C2.969,20.683,0.061,22.368,0,25.503
		C0.381,32.503,33.834,47.425,61.477,38.871"/>
</g>
<g>
</g>
<g>
</g>
<g>
</g>
<g>
</g>
<g>
</g>
<g>
</g>
<g>
</g>
<g>
</g>
<g>
</g>
<g>
</g>
<g>
</g>
<g>
</g>
<g>
</g>
<g>
</g>
<g>
</g>
</svg>
