<?xml version="1.0" encoding="utf-8"?>
<!-- Generator: Adobe Illustrator 16.0.0, SVG Export Plug-In . SVG Version: 6.00 Build 0)  -->
<!DOCTYPE svg PUBLIC "-//W3C//DTD SVG 1.1//EN" "http://www.w3.org/Graphics/SVG/1.1/DTD/svg11.dtd">
<svg version="1.1" id="Layer_1" xmlns="http://www.w3.org/2000/svg" xmlns:xlink="http://www.w3.org/1999/xlink" x="0px" y="0px"
	 width="50px" height="50px" viewBox="0 0 50 50" enable-background="new 0 0 50 50" xml:space="preserve">
<g>
	<path d="M28.507,31.847c0.093-0.625,0.606-2.154,0.904-3.158c-0.105,0.002-0.212-0.007-0.315-0.036
		c-0.222-0.059-0.415-0.181-0.56-0.348c-0.223,0.035-0.449,0.003-0.652-0.092c-0.208-0.096-0.375-0.25-0.489-0.44
		c-0.225-0.004-0.44-0.074-0.625-0.204c-0.078-0.054-0.142-0.122-0.202-0.191c0.074,1.172,0.124,2.227,0.14,2.548
		c0.041,0.797-0.435,2.653-0.271,3.424c0.165,0.772,1.378,2.911,1.419,3.272c0.041,0.361-0.338,0.518-0.532,0.719
		c-0.194,0.202-0.131,0.509,0.024,0.689c0.156,0.181,0.583,0.345,0.739,0.69c0.156,0.345-0.082,1.677-0.099,2.02
		c-0.017,0.343,0.435,0.247,0.591,0c0.156-0.246,0.846-1.396,0.887-2.094s-0.275-1.633-0.345-2.045S28.408,32.512,28.507,31.847z"/>
	<path d="M23.86,19.701c-0.512-0.146-1.021-0.292-1.463-0.418c-1.634-0.464-7.723-1.664-8.277-1.774s-0.897-0.337-1.109-0.456
		c-0.211-0.119-1.683-1.786-2.34-1.835S9.719,15.76,9.981,16.08c0.262,0.32,1.642,1.65,2.217,1.848
		c0.575,0.197,0.972,0.322,1.577,0.517c0.433,0.14,6.415,2.373,9.891,3.796c-0.005-0.027-0.017-0.051-0.02-0.079
		c-0.02-0.23,0.03-0.453,0.137-0.646c-0.106-0.192-0.156-0.414-0.137-0.642c0.021-0.23,0.109-0.441,0.248-0.613
		C23.833,20.083,23.827,19.891,23.86,19.701z"/>
	<path d="M39.938,9.059c-0.32-0.148-2.353,0.517-2.784,1.01s-3.025,5.933-3.424,6.701c0.025-0.185-0.505-0.776-0.342-1.081
		c0.163-0.305,0.958-0.803,1.007-1s-0.542-0.665-0.468-0.801c0.074-0.135,0.209-0.258,0.123-0.369
		c-0.086-0.111-0.689-0.099-0.862-0.222c-0.172-0.123-0.558-0.44-0.813-0.64c-0.254-0.2-1.527-0.025-2.02,0.394
		s-0.657,1.057-0.714,1.232c-0.057,0.175-0.283,0.185-0.32,0.394c-0.037,0.209,0.53,0.887,0.714,0.961
		c0.185,0.074,1.025,0.575,1.22,0.689c0.195,0.115-0.012,0.259-0.16,0.172c-0.148-0.086-7.454-4.776-7.957-5.099
		c-0.503-0.323-3.24-0.185-3.597,0c-0.357,0.185,1.158,1.108,1.527,1.01c0.37-0.099,1.22-0.505,1.479-0.345
		c0.258,0.16,6.898,5.531,7.144,5.913c0.247,0.382,0.427,1.889,0.222,2.217c-0.05,0.081-0.137,0.125-0.243,0.149
		c-1.338-1.168-3.223-2.807-3.41-2.937c-0.289-0.204-0.691-0.132-0.894,0.156c-0.146,0.208-0.146,0.469-0.031,0.676
		c-0.236,0.005-0.463,0.136-0.569,0.364c-0.107,0.229-0.062,0.487,0.087,0.672c-0.233,0.045-0.433,0.214-0.498,0.458
		c-0.065,0.245,0.024,0.489,0.201,0.646c-0.22,0.086-0.388,0.287-0.411,0.538c-0.021,0.251,0.109,0.478,0.312,0.601
		c-0.203,0.123-0.333,0.35-0.312,0.6c0.023,0.252,0.191,0.452,0.411,0.538c-0.178,0.157-0.267,0.402-0.202,0.645
		c0.065,0.246,0.265,0.413,0.499,0.459c-0.149,0.185-0.194,0.443-0.087,0.669c0.107,0.23,0.333,0.361,0.569,0.367
		c-0.115,0.208-0.112,0.469,0.031,0.675c0.145,0.206,0.389,0.296,0.623,0.26c-0.075,0.224-0.029,0.48,0.149,0.658
		c0.178,0.179,0.435,0.224,0.659,0.148c-0.036,0.233,0.054,0.479,0.261,0.624c0.208,0.145,0.467,0.145,0.675,0.033
		c0.006,0.235,0.137,0.462,0.365,0.568c0.229,0.107,0.486,0.061,0.671-0.086c0.046,0.232,0.213,0.432,0.459,0.497
		c0.243,0.066,0.488-0.023,0.643-0.202c0.086,0.222,0.287,0.389,0.54,0.41c0.251,0.022,0.477-0.108,0.6-0.31
		c0.123,0.203,0.349,0.332,0.602,0.31c0.251-0.022,0.45-0.189,0.535-0.41c0.158,0.179,0.402,0.267,0.647,0.202
		c0.244-0.066,0.41-0.266,0.457-0.497c0.185,0.147,0.443,0.192,0.673,0.086c0.227-0.107,0.358-0.333,0.363-0.57
		c0.208,0.114,0.468,0.114,0.676-0.032c0.289-0.203,0.36-0.604,0.158-0.894c-0.135-0.192-1.894-2.211-3.066-3.554
		c1.325-1.071,2.713-2.154,2.835-2.467c0.238-0.608-0.113-1.527-0.148-1.995c-0.035-0.468,3.019-7.371,3.178-7.76
		c0.16-0.39,1.232,0.062,1.725-0.172C40.135,10.081,40.258,9.207,39.938,9.059z"/>
</g>
<g id="Ribbon_6">
	<g id="Regal_Vector_Pack_02">
	</g>
</g>
</svg>
