<?xml version="1.0" encoding="utf-8"?>
<!-- Generator: Adobe Illustrator 15.0.0, SVG Export Plug-In . SVG Version: 6.00 Build 0)  -->
<!DOCTYPE svg PUBLIC "-//W3C//DTD SVG 1.1//EN" "http://www.w3.org/Graphics/SVG/1.1/DTD/svg11.dtd">
<svg version="1.1" id="Layer_1" xmlns="http://www.w3.org/2000/svg" xmlns:xlink="http://www.w3.org/1999/xlink" x="0px" y="0px"
	 width="64px" height="64px" viewBox="0 0 64 64" enable-background="new 0 0 64 64" xml:space="preserve">
<g>
	<path d="M61.072,21.062l0.167-1.254l-1.096,0.634c-0.189,0.109-4.713,2.753-8.012,7.693c-0.523,0.788-1.123,1.828-1.734,3.026
		c-0.719-4.078-2.211-9.362-5.278-12.223c-1.789-1.672-3.76-3.218-6.04-3.218c-2.16,0-4.26,1.353-6.602,4.256l-0.641-0.005
		c-2.217-2.712-4.705-4.089-7.394-4.089c-2.831,0-5.24,1.603-6.549,3.101c-2.542,2.906-4.036,8.611-4.843,12.919
		c-6.54,1.722-10.29,4.323-10.29,7.145c0,5.177,12.676,9.233,28.858,9.233c16.178,0,28.854-4.057,28.854-9.233
		c0-1.986-1.815-3.854-5.252-5.405c0.633-0.617,1.229-1.35,1.815-2.232C60.317,26.499,61.045,21.28,61.072,21.062z M52.066,34.412
		c-0.923,0.533-1.798,1.039-2.732,2.153c0.959-2.478,2.421-5.625,3.832-7.739c2.1-3.147,4.802-5.363,6.393-6.504
		c-0.44,1.901-1.446,5.24-3.556,8.397C54.463,33.027,53.244,33.731,52.066,34.412z"/>
</g>
</svg>
