<?xml version="1.0" encoding="iso-8859-1"?>
<!-- Generator: Adobe Illustrator 17.0.0, SVG Export Plug-In . SVG Version: 6.00 Build 0)  -->
<!DOCTYPE svg PUBLIC "-//W3C//DTD SVG 1.1//EN" "http://www.w3.org/Graphics/SVG/1.1/DTD/svg11.dtd">
<svg version="1.1" id="Capa_1" xmlns="http://www.w3.org/2000/svg" xmlns:xlink="http://www.w3.org/1999/xlink" x="0px" y="0px"
	 width="64px" height="64px" viewBox="0 0 64 64" style="enable-background:new 0 0 64 64;" xml:space="preserve">
<g>
	<circle cx="34.9" cy="8.6" r="0.754"/>
	<circle cx="33.58" cy="10.6" r="0.754"/>
	<path d="M35.276,12.337l-2.073,23.207h1.382l0.958-23.01c0.223,0.132,0.414,0.18,0.414,0.18s0.055,0.019,0.182,0.038l-0.949,22.792
		h0.482l0.717-22.767c0.152,0.01,0.35,0.015,0.604,0.006l-0.717,22.761h0.615l0.389-22.774c0.18-0.012,0.379-0.028,0.604-0.053
		l-0.39,22.827h1.144l-0.493-22.872c1.625-0.411,0.529-3.084,0.529-4.676c0-1.66,3.246-3.019,1.435-3.245
		c-1.812-0.227-4.151,0.943-3.585,2.377c0.566,1.435-1.32,2.529-1.623,3.888C34.755,11.664,34.992,12.079,35.276,12.337z"/>
	<path d="M35.605,61.016c12.377-0.201,10.264-8.603,8.553-11.623c-1.711-3.019-2.867-5.182-1.962-6.993s4.931-8.806,0.403-11.321
		c0,0-1.158-0.503-1.561,1.61c-0.195,1.023-0.887,1.431-1.791,1.587l0.043,2.036h-1.83L37.219,50.45h2.059v2.642h-6.667V50.45h1.344
		l0.588-14.139h-1.969l0.231-2.343c-0.624-0.563-1.858-1.48-3.288-1.478l-0.002,0.002c-0.041-0.001-0.082-0.006-0.125-0.006
		c-1.777,0-3.219,1.441-3.219,3.22c0,0.097,0.008,0.19,0.017,0.284l-0.017,0.019c0,0,0.012,0.058,0.035,0.159
		c0.016,0.108,0.033,0.215,0.06,0.32c0.03,0.119,0.069,0.235,0.112,0.349c0.284,1.052,0.893,3.047,2.006,5.663
		c0.579,1.359-0.667,4.125-2.592,6.893C23.869,52.161,23.226,61.217,35.605,61.016z M43.391,52.073c0.562,0,1.019,0.455,1.019,1.019
		c0,0.562-0.456,1.019-1.019,1.019c-0.563,0-1.019-0.456-1.019-1.019C42.373,52.528,42.828,52.073,43.391,52.073z M42.373,55.62
		c0.562,0,1.019,0.456,1.019,1.019c0,0.563-0.456,1.02-1.019,1.02s-1.02-0.456-1.02-1.02C41.353,56.076,41.81,55.62,42.373,55.62z
		 M39.693,57.658c0.562,0,1.02,0.456,1.02,1.019s-0.457,1.019-1.02,1.019s-1.02-0.456-1.02-1.019S39.13,57.658,39.693,57.658z"/>
	<polygon points="35.792,50.45 36.615,50.45 36.856,36.312 36.238,36.312 	"/>
	<polygon points="34.558,50.45 35.188,50.45 35.633,36.312 35.148,36.312 	"/>
</g>
</svg>
