<?xml version="1.0" encoding="iso-8859-1"?>
<!-- Generator: Adobe Illustrator 17.0.0, SVG Export Plug-In . SVG Version: 6.00 Build 0)  -->
<!DOCTYPE svg PUBLIC "-//W3C//DTD SVG 1.1//EN" "http://www.w3.org/Graphics/SVG/1.1/DTD/svg11.dtd">
<svg version="1.1" id="Capa_1" xmlns="http://www.w3.org/2000/svg" xmlns:xlink="http://www.w3.org/1999/xlink" x="0px" y="0px"
	 width="64px" height="64px" viewBox="0 0 64 64" style="enable-background:new 0 0 64 64;" xml:space="preserve">
<g>
	<path d="M35.271,34.435c1.51,2.507,2.396,5.431,2.396,8.565c0,9.19-7.477,16.667-16.667,16.667S4.333,52.19,4.333,43
		S11.81,26.333,21,26.333c3.038,0,5.88,0.83,8.335,2.256l2.176-1.987C28.474,24.648,24.871,23.5,21,23.5
		C10.248,23.5,1.5,32.248,1.5,43S10.248,62.5,21,62.5S40.5,53.752,40.5,43c0-3.988-1.208-7.697-3.271-10.79L35.271,34.435z"/>
	<path d="M33.109,26.496l-0.369,0.337l-0.382,0.349l-2.133,1.948c1.762,1.176,3.286,2.68,4.49,4.422l1.909-2.169l0.343-0.39
		l0.331-0.376l9.632-10.944l-3.036-3.027L33.109,26.496z"/>
	<path d="M57.565,1.365c-0.747-0.747-1.695-1.01-2.118-0.588l-0.765,0.765c-0.715,1.764-2.014,3.719-3.817,5.522
		c-1.803,1.803-3.758,3.102-5.523,3.817l-0.157,0.157c0.757,1.204,0.522,2.92-0.61,4.165l3.702,3.702
		c1.177-1.07,2.769-1.328,3.958-0.713l0.227-0.227c0.718-1.758,2.012-3.703,3.806-5.497c1.794-1.795,3.74-3.089,5.497-3.806
		c0,0,0.347-0.347,0.774-0.774c0.428-0.427,0.168-1.38-0.579-2.127L57.565,1.365z"/>
	<path d="M28.566,29.29c-2.245-1.244-4.823-1.957-7.566-1.957c-8.639,0-15.667,7.028-15.667,15.667S12.361,58.667,21,58.667
		S36.667,51.639,36.667,43c0-2.833-0.767-5.485-2.087-7.78c-0.087-0.152-0.18-0.299-0.272-0.448
		c-0.092-0.148-0.175-0.303-0.272-0.448c-1.199-1.795-2.762-3.322-4.578-4.493c-0.146-0.094-0.296-0.182-0.446-0.271
		C28.862,29.472,28.719,29.375,28.566,29.29z M18.444,50.983l-5.303-5.303l1.414-1.414l5.303,5.303L18.444,50.983z"/>
</g>
</svg>
