<?xml version="1.0" encoding="iso-8859-1"?>
<!-- Generator: Adobe Illustrator 17.0.0, SVG Export Plug-In . SVG Version: 6.00 Build 0)  -->
<!DOCTYPE svg PUBLIC "-//W3C//DTD SVG 1.1//EN" "http://www.w3.org/Graphics/SVG/1.1/DTD/svg11.dtd">
<svg version="1.1" id="Capa_1" xmlns="http://www.w3.org/2000/svg" xmlns:xlink="http://www.w3.org/1999/xlink" x="0px" y="0px"
	 width="64px" height="64px" viewBox="0 0 64 64" style="enable-background:new 0 0 64 64;" xml:space="preserve">
<g>
	<path d="M31.523,48.271c-2.02,1.531-2.158,3.341-2.158,4.942c0,1.601,2.158,7.797,10.789,7.517
		c8.633-0.278,8.215-8.841,8.215-8.841s0.004-2.853-3.828-4.904c-3.397-1.818,5.436-9.199,1.74-10.62
		c-1.137-0.437-2.902,2.143-4.664,2.645v2.647h-4.883v-3.983c-0.229,0.044-0.479,0.075-0.756,0.085
		c-1.949,0.069-1.322-4.665-3.48-4.525c-2.158,0.14-1.113,5.64,0,8.911C33.611,45.417,33.541,46.739,31.523,48.271z M44.123,57.112
		c-0.404,0-0.73-0.327-0.73-0.73c0-0.404,0.326-0.731,0.73-0.731c0.404,0,0.73,0.327,0.73,0.731
		C44.853,56.785,44.527,57.112,44.123,57.112z M45.586,53.614c0,0.404-0.328,0.731-0.732,0.731c-0.402,0-0.73-0.327-0.73-0.731
		c0-0.403,0.328-0.73,0.73-0.73C45.258,52.884,45.586,53.211,45.586,53.614z M43.81,48.968c0.576,0,1.043,0.468,1.043,1.044
		c0,0.577-0.467,1.044-1.043,1.044c-0.578,0-1.045-0.467-1.045-1.044C42.766,49.436,43.232,48.968,43.81,48.968z M35.978,44.651
		h5.639v2.335h-5.639V44.651z M35.978,49.61h5.639v2.335h-5.639V49.61z"/>
	<path d="M35.551,6.767c-0.422,0-0.766,0.343-0.766,0.766c0,0.422,0.344,0.766,0.766,0.766c0.189,0,0.363-0.072,0.496-0.188
		l0.594,0.452l-0.662,0.869c0,0,0.844,0.848,1.381,1.823v29.712h3.631v-29.36c0.26-0.396,0.604-0.73,1.045-0.782V6.438l1.297-2.594
		c0.207-0.413,0.103-1.006-0.229-1.325l-0.467-0.445c-0.332-0.319-0.828-0.281-1.109,0.086l-1.201,1.575l-0.705-0.554
		c0.018-0.067,0.031-0.137,0.031-0.21c0-0.422-0.342-0.766-0.766-0.766c-0.422,0-0.766,0.344-0.766,0.766
		c0,0.423,0.344,0.766,0.766,0.766c0.197,0,0.375-0.076,0.512-0.199l0.674,0.529L39.09,5.354L38.48,4.876
		c0.041-0.093,0.064-0.195,0.064-0.303c0-0.422-0.344-0.766-0.768-0.766c-0.422,0-0.764,0.344-0.764,0.766
		c0,0.423,0.342,0.766,0.764,0.766c0.164,0,0.314-0.052,0.439-0.14l0.619,0.487l-0.844,1.107l-0.598-0.469
		c0.022-0.07,0.035-0.143,0.035-0.22c0-0.422-0.342-0.766-0.766-0.766c-0.422,0-0.766,0.344-0.766,0.766
		c0,0.423,0.344,0.766,0.766,0.766c0.193,0,0.369-0.074,0.504-0.193l0.57,0.448l-0.844,1.106l-0.617-0.471
		c0.023-0.072,0.039-0.148,0.039-0.229C36.316,7.109,35.973,6.767,35.551,6.767z M35.551,7.88c-0.191,0-0.348-0.156-0.348-0.348
		c0-0.192,0.156-0.349,0.348-0.349c0.191,0,0.348,0.156,0.348,0.349C35.898,7.724,35.742,7.88,35.551,7.88z M38.887,3.32
		c-0.191,0-0.348-0.156-0.348-0.349c0-0.191,0.156-0.348,0.348-0.348c0.193,0,0.35,0.156,0.35,0.348
		C39.236,3.164,39.08,3.32,38.887,3.32z M37.777,4.922c-0.191,0-0.348-0.156-0.348-0.349c0-0.191,0.156-0.348,0.348-0.348
		c0.193,0,0.35,0.156,0.35,0.348C38.127,4.766,37.971,4.922,37.777,4.922z M36.664,6.452c-0.191,0-0.348-0.155-0.348-0.348
		c0-0.191,0.156-0.348,0.348-0.348c0.193,0,0.35,0.156,0.35,0.348C37.014,6.297,36.857,6.452,36.664,6.452z M41.51,4.299
		c0.309,0,0.557,0.249,0.557,0.557c0,0.308-0.248,0.557-0.557,0.557c-0.307,0-0.557-0.249-0.557-0.557
		C40.953,4.548,41.203,4.299,41.51,4.299z M40.4,5.9c0.309,0,0.557,0.249,0.557,0.557c0,0.308-0.248,0.557-0.557,0.557
		c-0.307,0-0.557-0.249-0.557-0.557C39.844,6.149,40.094,5.9,40.4,5.9z M39.287,7.432c0.309,0,0.557,0.249,0.557,0.557
		c0,0.308-0.248,0.557-0.557,0.557c-0.307,0-0.557-0.249-0.557-0.557C38.73,7.681,38.98,7.432,39.287,7.432z M38.174,8.858
		c0.307,0,0.557,0.249,0.557,0.557c0,0.308-0.25,0.557-0.557,0.557c-0.309,0-0.557-0.249-0.557-0.557
		C37.617,9.107,37.865,8.858,38.174,8.858z"/>
</g>
</svg>
