<?xml version="1.0" encoding="iso-8859-1"?>
<!-- Generator: Adobe Illustrator 17.0.0, SVG Export Plug-In . SVG Version: 6.00 Build 0)  -->
<!DOCTYPE svg PUBLIC "-//W3C//DTD SVG 1.1//EN" "http://www.w3.org/Graphics/SVG/1.1/DTD/svg11.dtd">
<svg version="1.1" id="Capa_1" xmlns="http://www.w3.org/2000/svg" xmlns:xlink="http://www.w3.org/1999/xlink" x="0px" y="0px"
	 width="64px" height="64px" viewBox="0 0 64 64" style="enable-background:new 0 0 64 64;" xml:space="preserve">
<path d="M6.254,27.764C4.457,27.764,3,29.221,3,31.018v6.292c0,1.797,1.457,3.255,3.254,3.255c1.797,0,3.255-1.457,3.255-3.255
	v-0.795h4.503v3.236c0,0.977,0.624,2.257,1.394,2.859l9.094,7.107v12.009h16V49.563l9.084-6.966
	c0.775-0.595,1.404-1.869,1.404-2.846v-3.236h4.503v0.795c0,1.797,1.457,3.255,3.255,3.255c1.797,0,3.254-1.457,3.254-3.255v-6.292
	c0-1.797-1.457-3.254-3.254-3.254c-1.797,0-3.255,1.457-3.255,3.254v0.971h-4.503V17.515h4.503v0.966
	c0,1.797,1.457,3.255,3.255,3.255c1.797,0,3.254-1.457,3.254-3.255V12.19c0-1.797-1.457-3.254-3.254-3.254
	c-1.797,0-3.255,1.457-3.255,3.254v0.8h-4.503V5.527c0-0.977-0.726-1.452-1.621-1.06l-15.305,6.701
	c-0.895,0.392-2.346,0.39-3.24-0.004L15.631,4.471c-0.894-0.394-1.619,0.079-1.619,1.056v7.462H9.509v-0.8
	c0-1.797-1.457-3.254-3.255-3.254C4.457,8.935,3,10.392,3,12.19v6.292c0,1.797,1.457,3.255,3.254,3.255
	c1.797,0,3.255-1.457,3.255-3.255v-0.966h4.503v14.474H9.509v-0.971C9.509,29.221,8.052,27.764,6.254,27.764z"/>
</svg>
