<?xml version="1.0" encoding="iso-8859-1"?>
<!-- Generator: Adobe Illustrator 17.0.0, SVG Export Plug-In . SVG Version: 6.00 Build 0)  -->
<!DOCTYPE svg PUBLIC "-//W3C//DTD SVG 1.1//EN" "http://www.w3.org/Graphics/SVG/1.1/DTD/svg11.dtd">
<svg version="1.1" id="Capa_1" xmlns="http://www.w3.org/2000/svg" xmlns:xlink="http://www.w3.org/1999/xlink" x="0px" y="0px"
	 width="64px" height="64px" viewBox="0 0 64 64" style="enable-background:new 0 0 64 64;" xml:space="preserve">
<path d="M52.981,57.621l-1.085-4.026c-0.168-0.626-0.719-1.457-1.229-1.855l-2.323-1.815c-0.511-0.398-0.925-1.247-0.925-1.896
	V13.211c0-0.647,0.19-1.663,0.425-2.267l2.085-5.375c0.233-0.605,0.158-1.579-0.405-1.898c-0.595-0.339-1.594-0.644-3.246-0.599
	c-1.726,0.049-2.819,0.402-3.482,0.751c-0.574,0.302-0.816,0.838-0.707,1.001c0.062,0.091,0.128,0.196,0.181,0.303
	c0.146,0.293-9.683,1.124-15.013,8.655c-4.724,6.674-5.108,8.623-7.346,7.313c-0.56-0.328-1.335-1.072-1.945-1.293
	c-0.688-0.249-1.712-0.288-2.98,0.641c-0.524,0.383-0.61,1.221-0.274,1.775L36.249,57.75c0.335,0.555,1.133,1.004,1.781,1.004
	h14.083C52.761,58.754,53.15,58.246,52.981,57.621z M42.964,11.43l-4.142,38.243c-0.189-0.194-0.386-0.403-0.588-0.62l4.084-37.712
	C42.532,11.367,42.745,11.394,42.964,11.43z M33.432,13.486c0.228-0.15,0.463-0.297,0.703-0.438L31.15,40.601
	c-0.191-0.243-0.384-0.486-0.576-0.731L33.432,13.486z M29.883,38.989c-0.191-0.246-0.384-0.492-0.575-0.738l2.554-23.58
	c0.231-0.195,0.47-0.387,0.718-0.575L29.883,38.989z M34.971,12.598c0.225-0.113,0.454-0.22,0.69-0.321l-3.24,29.918
	c-0.192-0.239-0.384-0.479-0.577-0.723L34.971,12.598z M36.482,11.952c0.223-0.078,0.449-0.151,0.68-0.218l-3.469,32.031
	c-0.191-0.233-0.385-0.471-0.579-0.711L36.482,11.952z M37.971,11.525c0.22-0.048,0.443-0.089,0.67-0.125l-3.673,33.91
	c-0.191-0.228-0.385-0.462-0.58-0.698L37.971,11.525z M39.438,11.295c0.217-0.021,0.438-0.034,0.66-0.044l-3.851,35.57
	c-0.191-0.222-0.385-0.45-0.582-0.682L39.438,11.295z M40.887,11.241c0.215,0.003,0.432,0.013,0.652,0.026L37.53,48.283
	c-0.19-0.213-0.385-0.431-0.584-0.657L40.887,11.241z M30.989,15.457L28.617,37.36c-0.192-0.247-0.385-0.495-0.575-0.744
	l2.211-20.415C30.487,15.953,30.731,15.705,30.989,15.457z M27.352,35.72c-0.192-0.251-0.384-0.5-0.574-0.75l1.822-16.829
	c0.231-0.296,0.481-0.609,0.757-0.936L27.352,35.72z M27.681,19.371l-1.592,14.695c-0.192-0.253-0.384-0.504-0.573-0.754l1.4-12.929
	c0.159-0.204,0.321-0.415,0.486-0.636C27.486,19.637,27.58,19.508,27.681,19.371z M25.269,22.269c0.244-0.237,0.49-0.499,0.74-0.784
	l-1.183,10.919c-0.193-0.257-0.384-0.509-0.573-0.76L25.269,22.269z M18.802,23.283c1.043,0.394,2.621,0.863,3.711,0.621
	c0.672-0.149,1.288-0.449,1.89-0.894l-0.836,7.718c-2.305-3.068-4.191-5.636-5.154-6.952C18.029,23.254,18.196,23.055,18.802,23.283
	z M41.551,51.811c-0.376,0-1.081-0.525-2.019-1.428l4.202-38.804c0.322,0.071,0.647,0.152,0.979,0.247l-0.488,35.257
	C44.225,47.083,44.354,51.811,41.551,51.811z"/>
</svg>
