<?xml version="1.0" encoding="iso-8859-1"?>
<!-- Generator: Adobe Illustrator 17.0.0, SVG Export Plug-In . SVG Version: 6.00 Build 0)  -->
<!DOCTYPE svg PUBLIC "-//W3C//DTD SVG 1.1//EN" "http://www.w3.org/Graphics/SVG/1.1/DTD/svg11.dtd">
<svg version="1.1" id="Capa_1" xmlns="http://www.w3.org/2000/svg" xmlns:xlink="http://www.w3.org/1999/xlink" x="0px" y="0px"
	 width="64px" height="64px" viewBox="0 0 64 64" style="enable-background:new 0 0 64 64;" xml:space="preserve">
<g>
	<path d="M10.199,45.477C13.727,55.369,32,54.143,32,54.143s18.273,1.226,21.801-8.666C48.782,42.774,40.798,41,32,41
		C23.202,41,15.218,42.774,10.199,45.477z"/>
	<path d="M53.785,20.667c-3.982-0.405-10.454-0.675-15.583-5.197C33.073,10.948,32,11.758,32,11.758s-1.085-0.81-6.214,3.712
		c-5.129,4.522-11.614,4.792-15.596,5.197s-3.71,2.025-4.713,6.547c-1.003,4.522-4.393,5.737-3.308,6.817
		c0.753,0.749,4.227,3.607,6.287,5.289C13.74,36.125,22.241,34,32,34c9.758,0,18.258,2.124,23.543,5.319
		c2.055-1.682,5.522-4.539,6.274-5.288c1.085-1.08-2.312-2.295-3.315-6.817C57.499,22.692,57.767,21.072,53.785,20.667z
		 M36.955,31.532L32,27.95l-4.955,3.609l1.893-5.892L23.982,22h6.125L32,16.175L33.893,22h6.125l-4.955,3.671L36.955,31.532z"/>
	<path d="M54,40.589C48.995,37.824,40.918,36,32,36c-8.918,0-16.995,1.824-22,4.589v2.878C15.321,40.753,23.139,39,32,39
		c8.861,0,16.679,1.753,22,4.467V40.589z"/>
</g>
</svg>
