<?xml version="1.0" encoding="utf-8"?>
<!-- Generator: Adobe Illustrator 16.0.0, SVG Export Plug-In . SVG Version: 6.00 Build 0)  -->
<!DOCTYPE svg PUBLIC "-//W3C//DTD SVG 1.1//EN" "http://www.w3.org/Graphics/SVG/1.1/DTD/svg11.dtd">
<svg version="1.1" id="Layer_11" xmlns="http://www.w3.org/2000/svg" xmlns:xlink="http://www.w3.org/1999/xlink" x="0px" y="0px"
	 width="100px" height="100px" viewBox="0 0 100 100" enable-background="new 0 0 100 100" xml:space="preserve">
<path d="M95.876,49.446c-1.528,0-3.443,0.679-5.867,1.539c-2.334,0.828-4.98,1.767-8.009,2.371
	c-1.486,0.295-2.583,0.305-3.707,0.033c0.1-0.675,0.15-1.352,0.15-2.022V36.24c0-7.7-6.265-13.965-13.965-13.965h-0.293
	l-0.247,0.158c-0.066,0.043-6.761,4.276-14.169,4.379l-0.257,0.002c-7.23,0-13.348-4.309-13.409-4.353l-0.262-0.187h-0.32
	c-7.701,0-13.965,6.265-13.965,13.965v15.127c0,0.645,0.044,1.29,0.133,1.93c-1.575,0.478-3.018,0.536-4.257,0.167
	c-1.67-0.498-3.211-1.005-4.7-1.495c-3.465-1.14-6.201-2.039-8.236-2.039c-1.779,0-3.9,0.75-3.9,4.322
	c0,6.616,21.908,23.473,49.404,23.473c26.314,0,49.405-14.63,49.405-23.473C99.404,53.063,99.404,49.446,95.876,49.446z
	 M35.217,24.279c1.342,0.896,7.227,4.535,14.295,4.535l0.285-0.002c7.212-0.1,13.592-3.708,14.96-4.534
	c6.47,0.148,11.687,5.457,11.687,11.962v15.127c0,0.031-0.005,0.063-0.005,0.093C72.233,54.709,61.799,57,50,57
	c-12.044,0-22.318-2.385-26.344-5.741c-0.035,0.029-0.065,0.06-0.099,0.089V36.24C23.556,29.745,28.76,24.441,35.217,24.279z
	 M50,75.725c-26.075,0-47.404-16.212-47.404-21.473c0-1.952,0.668-2.322,1.9-2.322c1.714,0,4.447,0.898,7.611,1.939
	c1.433,0.471,3.057,1.005,4.754,1.511c1.534,0.458,3.269,0.42,5.115-0.093C23.382,59.781,35.39,63.29,50,63.29
	c14.519,0,26.467-3.466,27.996-7.919c1.325,0.297,2.7,0.285,4.397-0.054c3.17-0.632,6.007-1.639,8.287-2.447
	c2.154-0.764,4.014-1.424,5.198-1.424c0.645,0,1.528,0,1.528,2.806C97.404,60.479,76.887,75.725,50,75.725z"/>
</svg>
