<?xml version="1.0" encoding="utf-8"?>
<!-- Generator: Adobe Illustrator 17.0.2, SVG Export Plug-In . SVG Version: 6.00 Build 0)  -->
<!DOCTYPE svg PUBLIC "-//W3C//DTD SVG 1.0//EN" "http://www.w3.org/TR/2001/REC-SVG-20010904/DTD/svg10.dtd">
<svg version="1.0" id="Layer_1" xmlns="http://www.w3.org/2000/svg" xmlns:xlink="http://www.w3.org/1999/xlink" x="0px" y="0px"
	 width="21.117px" height="22.632px" viewBox="0 0 21.117 22.632" enable-background="new 0 0 21.117 22.632" xml:space="preserve">
<g>
	<path d="M15.679,21.544c-0.219-0.052-0.468-0.158-0.772-0.391v1.479h1.851v-1.269c-0.22,0.144-0.47,0.223-0.733,0.223
		C15.911,21.586,15.796,21.572,15.679,21.544z"/>
</g>
<g>
	<circle fill="none" cx="20.005" cy="11.447" r="0.447"/>
	<circle fill="none" cx="9.866" cy="9.274" r="0.447"/>
	<path d="M17.864,11.95c3.923,1.992,3.199-1.457,3.199-1.457S22.27,1.328,11.889,0C0.845,0.362,2.173,9.717,2.173,9.717L0.06,11.588
		c0,0-0.261,0.427,0.302,0.362c0,0,2.595-0.241,4.164-0.905C6.096,10.38,13.941,9.958,17.864,11.95z M20.005,11
		c0.247,0,0.447,0.2,0.447,0.447c0,0.247-0.2,0.447-0.447,0.447s-0.447-0.2-0.447-0.447C19.558,11.2,19.758,11,20.005,11z
		 M9.866,8.827c0.247,0,0.447,0.2,0.447,0.447c0,0.247-0.2,0.447-0.447,0.447c-0.247,0-0.447-0.2-0.447-0.447
		C9.419,9.027,9.619,8.827,9.866,8.827z"/>
	<path d="M18.904,12.809c-1.042,2.606-2.299,5.28-3.033,6.215c-0.98-0.872-3.069-4.468-4.824-8.022
		c-0.743-0.03-1.469-0.032-2.153-0.014c0.407,0.84,1.287,2.623,2.278,4.418c2.572,4.66,3.697,5.474,4.457,5.655
		c0.116,0.028,0.232,0.041,0.345,0.041c0.301,0,0.586-0.097,0.827-0.284c0.471-0.366,1.283-1.273,2.886-4.898
		c0.668-1.51,1.215-2.911,1.431-3.473C20.859,12.964,20.252,13.302,18.904,12.809z M15.961,20.477c-0.247,0-0.447-0.2-0.447-0.447
		c0-0.247,0.2-0.447,0.447-0.447c0.247,0,0.447,0.2,0.447,0.447C16.408,20.277,16.208,20.477,15.961,20.477z"/>
</g>
</svg>
