<?xml version="1.0" encoding="iso-8859-1"?>
<!-- Generator: Adobe Illustrator 16.0.4, SVG Export Plug-In . SVG Version: 6.00 Build 0)  -->
<!DOCTYPE svg PUBLIC "-//W3C//DTD SVG 1.1//EN" "http://www.w3.org/Graphics/SVG/1.1/DTD/svg11.dtd">
<svg version="1.1" id="Capa_1" xmlns="http://www.w3.org/2000/svg" xmlns:xlink="http://www.w3.org/1999/xlink" x="0px" y="0px"
	 width="43.908px" height="55.552px" viewBox="0 0 43.908 55.552" style="enable-background:new 0 0 43.908 55.552;"
	 xml:space="preserve">
<g>
	<path id="path4770" style="fill:#040606;" d="M10.754,55.552h24.549c1.381,0,2.246-1.135,1.287-2.129
		c-0.086-0.09-0.174-0.176-0.264-0.26c-1.006-0.947-2.139-2.33-2.139-3.711v-5.15c0-1.381,0.256-2.5,0.568-2.5
		c0.314,0,0.707-0.725,0.137-1.07c-0.295-0.18-0.715-0.18-1.182-0.18H12.32c-0.467,0-0.887,0-1.182,0.18
		c-0.57,0.346,0.066,1.07,0.684,1.07c0.615,0,1.115,1.119,1.115,2.5v5.15c0,1.381-1.178,2.512-2.373,3.205
		c-0.395,0.229-0.756,0.5-1.07,0.791C8.48,54.386,9.373,55.552,10.754,55.552"/>
	<path id="path4772" style="fill:#040606;" d="M42.299,28.06c0.875,0,1.584-0.697,1.609-1.568
		c-0.629-9.029-3.936-17.314-9.133-24.07c-0.842-1.096-1.596-1.955-1.617-1.973c-0.014-0.014-0.025-0.023-0.039-0.035
		c-0.664-0.596-1.684-0.541-2.279,0.125c-0.084,0.094-0.154,0.195-0.213,0.301c-0.1,0.18-0.301,1.453-0.639,2.791
		c-1.863,7.432-6.705,13.652-13.184,17.318L5.525,27.149c-0.037,0.023-0.07,0.047-0.102,0.072c-0.057,0.041-1.074,0.654-2.066,1.611
		C1.352,30.765,0,33.431,0,36.382c0,4.941,3.805,9.098,7.975,10.326c1.324,0.391,2.463-0.273,2.463-1.068
		c0-0.793-1.15-1.416-2.441-1.902c-2.891-1.092-5.4-3.973-5.4-7.355c0-0.846,0.357-1.658,0.732-2.42
		c0.611-1.238,0.859-2.104,0.859-1.832v0.492c0,0.893,1.002,1.613,1.895,1.613c0.008,0,0.049,0,0.09-0.002
		c0.049,0,0.15,0.01,0.227,0.016c0.055,0.004,0.107,0.006,0.145,0.006l8.184-0.184c1.381-0.031,2.709,0.723,3.441,1.262
		c0.432,0.318,0.963,0.508,1.539,0.508c0.594,0,1.143-0.203,1.58-0.541c0.744-0.576,1.209-1.402,1.562-1.41l0.639-0.014
		c0.348,0,0.629-0.281,0.629-0.629c0-0.344-0.279-0.625-0.625-0.625c0,0-0.285-0.008-0.639-0.014
		c-0.352-0.01-0.814-0.832-1.553-1.408c-0.436-0.338-0.982-0.541-1.578-0.541c-0.574,0-1.105,0.188-1.535,0.504
		c-0.732,0.539-2.062,1.293-3.443,1.262l-4.307-0.096c-1.381-0.031-2.5-0.631-2.5-1.34s1.064-1.629,2.377-2.055l8.803-2.859
		c2.879-1.023,5.988-1.578,9.219-1.578c4.791,0,9.301,1.23,13.225,3.385C41.781,27.995,42.033,28.06,42.299,28.06"/>
	<path id="path4774" style="fill:#040606;" d="M23.459,36.284c-0.113-0.113-0.271-0.184-0.445-0.184
		c-0.172,0-0.328,0.07-0.441,0.184c-0.193,0.191,0.098,0.443,0.443,0.443S23.652,36.476,23.459,36.284"/>
	<path id="path4776" style="fill:#040606;" d="M13.32,37.427c0,0.348,0.281,0.625,0.627,0.625h18.158
		c0.348,0,0.629-0.277,0.629-0.625c0-0.346-0.281-0.625-0.629-0.625H13.947C13.602,36.802,13.32,37.081,13.32,37.427"/>
</g>
<g>
</g>
<g>
</g>
<g>
</g>
<g>
</g>
<g>
</g>
<g>
</g>
<g>
</g>
<g>
</g>
<g>
</g>
<g>
</g>
<g>
</g>
<g>
</g>
<g>
</g>
<g>
</g>
<g>
</g>
</svg>
