<?xml version="1.0" encoding="iso-8859-1"?>
<!-- Generator: Adobe Illustrator 17.0.0, SVG Export Plug-In . SVG Version: 6.00 Build 0)  -->
<!DOCTYPE svg PUBLIC "-//W3C//DTD SVG 1.1//EN" "http://www.w3.org/Graphics/SVG/1.1/DTD/svg11.dtd">
<svg version="1.1" id="Capa_1" xmlns="http://www.w3.org/2000/svg" xmlns:xlink="http://www.w3.org/1999/xlink" x="0px" y="0px"
	 width="64px" height="64px" viewBox="0 0 64 64" style="enable-background:new 0 0 64 64;" xml:space="preserve">
<g>
	<path d="M51.03,17.244c-0.913,6.089-9.438,7.307-9.438,5.328c0-1.979,0.609-13.395-2.588-14.309
		c-3.197-0.913-1.979-5.632-3.653-6.089c-1.262-0.344-2.694-0.26-3.325-0.198c-0.63-0.062-2.063-0.146-3.325,0.198
		c-1.674,0.457-0.457,5.175-3.653,6.089c-3.197,0.913-2.588,12.33-2.588,14.309c0,1.979-8.524,0.761-9.438-5.328
		c-0.913-6.089-8.524,8.676-1.066,14.613c6.757,5.378,18.012,5.384,20.069,5.338c2.057,0.046,13.312,0.04,20.069-5.338
		C59.554,25.92,51.943,11.155,51.03,17.244z M25.352,20.631c-0.63,0-1.142-0.511-1.142-1.142c0-0.631,0.511-1.142,1.142-1.142
		s1.142,0.511,1.142,1.142C26.494,20.119,25.983,20.631,25.352,20.631z M29.462,21.544c-0.631,0-1.142-0.511-1.142-1.142
		s0.511-1.142,1.142-1.142c0.63,0,1.142,0.511,1.142,1.142S30.093,21.544,29.462,21.544z M34.942,21.544
		c-0.63,0-1.142-0.511-1.142-1.142s0.511-1.142,1.142-1.142c0.631,0,1.142,0.511,1.142,1.142S35.573,21.544,34.942,21.544z
		 M39.052,20.631c-0.63,0-1.142-0.511-1.142-1.142c0-0.631,0.511-1.142,1.142-1.142s1.142,0.511,1.142,1.142
		C40.194,20.119,39.683,20.631,39.052,20.631z"/>
	<path d="M30.143,40.499c-0.062,0-0.126,0.003-0.193,0.011c-6.09,0.657-6.314,4.102-6.598,8.463
		c-0.019,0.29-0.036,0.583-0.054,0.878c-0.154,2.605-0.313,5.299-1.643,7.487c-0.62,1.019-1.87,1.704-3.112,1.704
		c-0.451,0-0.87-0.091-1.247-0.27c-1.24-0.59-1.782-2.305-1.356-3.295c0.369-0.999,1.122-1.683,1.841-1.683
		c0.154,0,0.309,0.031,0.461,0.091c0.454,0.225,0.481,0.382,0.482,0.389c0.002,0.015-0.005,0.046-0.032,0.089
		c-0.109-0.025-0.217-0.037-0.323-0.037c-0.668,0-1.216,0.498-1.363,1.24c-0.14,0.709,0.119,1.591,1.016,1.96
		c0.349,0.144,0.696,0.217,1.03,0.217c1.692,0,2.703-1.802,2.703-3.544c0-1.73-1.018-3.476-3.292-3.476
		c-0.213,0-0.436,0.015-0.663,0.046c-2.633,0.353-4.457,2.378-4.646,5.16c-0.164,2.413,1.052,5.394,4.111,6.238
		c0.558,0.154,1.112,0.232,1.645,0.232c2.837,0,6.306-2.681,7.219-8.568c0.124-0.802,0.155-1.744,0.188-2.741
		c0.108-3.276,0.231-6.99,3.718-7.366c1.04-0.112,1.555-1.029,1.511-1.835C31.503,41.071,30.926,40.499,30.143,40.499z"/>
	<path d="M47.414,50.77c-0.227-0.031-0.451-0.046-0.663-0.046c-1.06,0-1.931,0.383-2.52,1.107c-0.498,0.612-0.772,1.453-0.772,2.369
		c0,1.742,1.011,3.544,2.703,3.544c0.335,0,0.681-0.073,1.03-0.217c0.897-0.369,1.156-1.25,1.016-1.96
		c-0.147-0.742-0.694-1.24-1.363-1.24c-0.106,0-0.214,0.012-0.323,0.037c-0.027-0.044-0.035-0.074-0.032-0.089
		c0.001-0.007,0.028-0.164,0.511-0.402c0.123-0.048,0.278-0.079,0.432-0.079c0.719,0,1.472,0.684,1.833,1.663
		c0.434,1.01-0.108,2.725-1.348,3.315c-0.377,0.179-0.796,0.27-1.247,0.27c-1.242,0-2.492-0.685-3.112-1.704
		c-1.33-2.189-1.489-4.882-1.643-7.487c-0.017-0.295-0.035-0.588-0.054-0.878c-0.284-4.362-0.508-7.807-6.598-8.463
		c-0.067-0.007-0.131-0.011-0.193-0.011h0c-0.783,0-1.36,0.573-1.404,1.392c-0.043,0.806,0.472,1.722,1.512,1.834
		c3.487,0.376,3.61,4.09,3.718,7.366c0.033,0.997,0.064,1.939,0.188,2.741c0.913,5.886,4.382,8.568,7.219,8.568
		c0.533,0,1.087-0.078,1.645-0.232c3.059-0.844,4.275-3.825,4.111-6.238C51.87,53.148,50.047,51.123,47.414,50.77z"/>
</g>
</svg>
