<?xml version="1.0" encoding="iso-8859-1"?>
<!-- Generator: Adobe Illustrator 17.0.0, SVG Export Plug-In . SVG Version: 6.00 Build 0)  -->
<!DOCTYPE svg PUBLIC "-//W3C//DTD SVG 1.1//EN" "http://www.w3.org/Graphics/SVG/1.1/DTD/svg11.dtd">
<svg version="1.1" id="Capa_1" xmlns="http://www.w3.org/2000/svg" xmlns:xlink="http://www.w3.org/1999/xlink" x="0px" y="0px"
	 width="64px" height="64px" viewBox="0 0 64 64" style="enable-background:new 0 0 64 64;" xml:space="preserve">
<g>
	<path d="M40.365,18.787c0-0.945-0.766-1.71-1.711-1.71h-1.498v-4.374c0-0.945-0.766-1.711-1.711-1.711h-0.57V8.519
		c0-0.315-0.255-0.57-0.57-0.57s-0.57,0.255-0.57,0.57v2.472h-0.57c-0.945,0-1.712,0.766-1.712,1.711v4.374h-1.497
		c-0.945,0-1.711,0.766-1.711,1.71v16.685l2.995,0.571c1.653,0.315,4.367,0.315,6.061,0c1.694-0.315,3.066-0.571,3.066-0.571V18.787
		z M35.635,14.414h-2.662v-0.951h2.662V14.414z"/>
	<path d="M35.255,58.906V42.745h0.523c0.315,0,0.571-0.255,0.571-0.571v-4.562H32.26v4.562c0,0.315,0.256,0.571,0.571,0.571h0.523
		v16.162H35.255z"/>
</g>
</svg>
