<?xml version="1.0" encoding="utf-8"?>
<!-- Generator: Adobe Illustrator 17.0.0, SVG Export Plug-In . SVG Version: 6.00 Build 0)  -->
<!DOCTYPE svg PUBLIC "-//W3C//DTD SVG 1.1//EN" "http://www.w3.org/Graphics/SVG/1.1/DTD/svg11.dtd">
<svg version="1.1" id="Capa_1" xmlns="http://www.w3.org/2000/svg" xmlns:xlink="http://www.w3.org/1999/xlink" x="0px" y="0px"
	 width="52px" height="52px" viewBox="0 0 52 52" enable-background="new 0 0 52 52" xml:space="preserve">
<g>
	<path d="M47.514,12.749L38.56,3.794c-0.781-0.781-2.442-1.954-2.523-1.177c-0.029,0.278,0.041,0.713,0.278,1.377
		c0,0,1.344,3.032,0.681,6.473c-0.209,1.085-1.196,2.562-1.951,3.368l-7.19,7.68c-0.755,0.806-1.473,1.607-1.66,1.609
		c-0.087,0.001-0.191-0.03-0.309-0.124c0,0-1.061-0.976-1.458-1.459c-0.399-0.483,0.719-0.992,0.464-1.425
		c0,0-0.568-1.059-1.452-0.254c0,0-1.599,1.599-1.883,1.883c-0.704,0.702,0.17,1.86,0.829,1.202
		c0.212-0.212,0.391-0.326,0.539-0.378c0.345-0.122,0.867,0.495,1.217,0.891l0.633,0.717c0,0,0.183,0.184,0.043,0.448
		c-0.125,0.235-0.707,0.706-1.162,1.161c-0.455,0.455-0.961,1.066-1.228,1.046c-0.116-0.009-0.257-0.068-0.42-0.222
		c0,0-1.016-1.064-1.401-1.4c-0.204-0.178,0.048-0.378,0.294-0.597c0.315-0.281,0.166-1.354-0.462-1.357
		c-0.252-0.001-0.578,0.128-0.998,0.496c0,0-0.609,0.608-1.379,1.378c-0.77,0.771,0.2,2.083,1.018,1.398c0,0,0.494-0.457,0.913,0
		l1.102,1.103c0,0,0.188,0.168,0.072,0.44c-0.102,0.241-0.658,0.717-1.099,1.158s-0.972,1.067-1.289,1.056
		c-0.143-0.005-0.312-0.071-0.498-0.258c0,0-0.447-0.446-1.104-1.103c-0.213-0.213-0.041-0.469,0.164-0.711
		c0.291-0.343,0.086-1.213-0.498-1.285c-0.265-0.032-0.583,0.061-0.939,0.418c0,0-0.561,0.561-1.417,1.416
		c-0.428,0.428-0.473,0.968-0.264,1.296c0.423,0.664,1.397-0.192,1.622-0.133c0.224,0.06,0.568,0.497,0.868,0.796l0.542,0.542
		c0,0,0.39,0.371-0.247,1.008l-6.513,6.513c0,0-0.289,0.253-0.39,0.604c-0.111,0.386,0.473,1.051,0.914,1.492s1.15,0.993,1.512,0.79
		c0.362-0.202,1.162-1.158,1.943-1.939c1.538-1.538,3.79-3.788,3.86-3.859c0.43-0.427,1.082,4.448,5.321,4.632
		c1.104,0.048,2.748-0.683,3.654-1.314c3.002-2.093,8.881-6.857,7.662-11.352c0,0-0.795-2.269-2.67-3.292
		c-0.97-0.529-1.328-1.163-0.576-1.972c2.461-2.645,7.68-7.904,10.272-7.904c0.971,0,2.951,0.298,4.459,0.552
		c1.089,0.183,2.897,0.638,3.105-0.029C49.767,14.528,48.295,13.53,47.514,12.749z M31.621,27.636
		c1.358,1.464,0.195,4.762-2.6,7.362c-2.795,2.604-6.165,3.527-7.525,2.063c-1.358-1.463-0.193-4.76,2.601-7.365
		C26.892,27.097,30.26,26.17,31.621,27.636z"/>
	<path d="M7.023,43c-1.008,0-2.725-0.504-3.769-0.143c-1.117,0.385-1.714,1.553-0.851,2.415c0.967,0.966,2.24,2.22,3.691,3.671
		c1.126,1.125,2.433,0.49,2.811-0.595c0.364-1.043-0.268-2.664-0.193-3.619C8.788,43.774,8.032,43,7.023,43z"/>
</g>
</svg>
