<?xml version="1.0" encoding="iso-8859-1"?>
<!-- Generator: Adobe Illustrator 17.0.0, SVG Export Plug-In . SVG Version: 6.00 Build 0)  -->
<!DOCTYPE svg PUBLIC "-//W3C//DTD SVG 1.1//EN" "http://www.w3.org/Graphics/SVG/1.1/DTD/svg11.dtd">
<svg version="1.1" id="Capa_1" xmlns="http://www.w3.org/2000/svg" xmlns:xlink="http://www.w3.org/1999/xlink" x="0px" y="0px"
	 width="64px" height="64px" viewBox="0 0 64 64" style="enable-background:new 0 0 64 64;" xml:space="preserve">
<path d="M2.564,51.129c0,5.692,4.615,10.307,10.307,10.307h38.258c5.692,0,10.307-4.615,10.307-10.307V12.871
	c0-5.692-4.615-10.307-10.307-10.307H12.871c-5.692,0-10.307,4.615-10.307,10.307V51.129z M5.564,12.871
	c0-4.029,3.278-7.307,7.307-7.307h38.258c4.029,0,7.307,3.278,7.307,7.307v38.258c0,4.029-3.278,7.307-7.307,7.307H12.871
	c-4.029,0-7.307-3.278-7.307-7.307V12.871z"/>
<path d="M9.398,17.838c0.199,0.076,0.406,0.129,0.621,0.13c-0.148,0.156-0.252,0.341-0.335,0.535
	c0.283,0.569,0.641,1.092,1.064,1.559c0.212-0.004,0.423-0.032,0.623-0.111c-0.079,0.199-0.107,0.409-0.111,0.62
	c0.494,0.442,1.051,0.812,1.658,1.097c0.193-0.087,0.376-0.195,0.528-0.346c0.006,0.216,0.064,0.422,0.144,0.62
	c0.599,0.207,1.236,0.331,1.898,0.363c0.147-0.152,0.276-0.321,0.361-0.518c0.085,0.196,0.213,0.364,0.358,0.516
	c0.682-0.038,1.335-0.174,1.95-0.396c0.075-0.198,0.128-0.404,0.128-0.618c0.156,0.148,0.342,0.253,0.538,0.336
	c0.571-0.279,1.097-0.633,1.566-1.053c-0.004-0.211-0.032-0.421-0.111-0.62c0.2,0.079,0.411,0.107,0.623,0.111
	c0.465-0.513,0.854-1.096,1.147-1.733c-0.087-0.195-0.196-0.379-0.348-0.532c0.215-0.006,0.421-0.063,0.618-0.143
	c0.193-0.573,0.31-1.179,0.344-1.808c-0.152-0.146-0.32-0.274-0.516-0.358c0.197-0.085,0.366-0.214,0.518-0.361
	c-0.035-0.714-0.177-1.398-0.414-2.038c-0.199-0.076-0.406-0.129-0.621-0.13c0.148-0.156,0.252-0.341,0.335-0.536
	c-0.153-0.307-0.324-0.603-0.519-0.882c-1.59,0.82-5.105,3.718-5.621,3.922c0.204-0.515,3.073-4.045,3.888-5.646
	c-0.309-0.213-0.639-0.397-0.982-0.558c-0.193,0.087-0.376,0.195-0.528,0.346c-0.006-0.216-0.063-0.422-0.144-0.62
	c-0.599-0.207-1.236-0.331-1.898-0.363c-0.147,0.152-0.276,0.321-0.361,0.518c-0.085-0.196-0.213-0.364-0.358-0.516
	c-0.682,0.038-1.335,0.174-1.95,0.396c-0.075,0.198-0.128,0.404-0.128,0.618c-0.156-0.148-0.342-0.253-0.538-0.336
	c-0.571,0.279-1.097,0.633-1.566,1.053c0.004,0.211,0.032,0.421,0.111,0.62c-0.2-0.079-0.411-0.107-0.623-0.111
	c-0.465,0.513-0.853,1.096-1.147,1.733c0.087,0.195,0.196,0.379,0.348,0.532c-0.215,0.006-0.421,0.063-0.618,0.143
	c-0.193,0.573-0.31,1.179-0.344,1.808c0.152,0.146,0.32,0.274,0.516,0.358c-0.197,0.085-0.366,0.214-0.518,0.361
	C9.019,16.514,9.161,17.198,9.398,17.838z"/>
<path d="M25.573,17.838c0.199,0.076,0.406,0.129,0.621,0.13c-0.148,0.156-0.252,0.341-0.335,0.535
	c0.153,0.307,0.324,0.603,0.519,0.882c1.59-0.82,5.105-3.718,5.621-3.922c-0.204,0.515-3.073,4.045-3.888,5.646
	c0.309,0.213,0.639,0.398,0.982,0.559c0.193-0.087,0.376-0.195,0.528-0.346c0.006,0.216,0.064,0.422,0.144,0.62
	c0.599,0.207,1.236,0.331,1.898,0.363c0.147-0.152,0.276-0.321,0.361-0.518c0.085,0.196,0.213,0.364,0.358,0.516
	c0.682-0.038,1.335-0.174,1.95-0.396c0.075-0.198,0.128-0.404,0.128-0.618c0.156,0.148,0.342,0.253,0.538,0.336
	c0.571-0.279,1.097-0.633,1.566-1.053c-0.004-0.211-0.032-0.421-0.111-0.62c0.2,0.079,0.411,0.107,0.623,0.111
	c0.465-0.513,0.854-1.096,1.147-1.733c-0.087-0.195-0.196-0.379-0.348-0.532c0.215-0.006,0.421-0.063,0.618-0.143
	c0.193-0.573,0.31-1.179,0.344-1.808c-0.152-0.146-0.32-0.274-0.516-0.358c0.197-0.085,0.366-0.214,0.518-0.361
	c-0.035-0.714-0.177-1.398-0.414-2.038c-0.199-0.076-0.406-0.129-0.621-0.13c0.148-0.156,0.252-0.341,0.335-0.536
	c-0.283-0.569-0.641-1.092-1.064-1.559c-0.212,0.004-0.423,0.032-0.623,0.111c0.079-0.199,0.107-0.409,0.111-0.62
	c-0.494-0.442-1.051-0.812-1.658-1.097c-0.193,0.087-0.376,0.195-0.528,0.346c-0.006-0.216-0.063-0.422-0.144-0.62
	c-0.599-0.207-1.236-0.331-1.898-0.363c-0.147,0.152-0.276,0.321-0.361,0.518c-0.085-0.196-0.213-0.364-0.358-0.516
	c-0.682,0.038-1.335,0.174-1.95,0.396c-0.075,0.198-0.128,0.404-0.128,0.618c-0.156-0.148-0.342-0.253-0.538-0.336
	c-0.571,0.279-1.097,0.633-1.566,1.053c0.004,0.211,0.032,0.421,0.111,0.62c-0.2-0.079-0.411-0.107-0.623-0.111
	c-0.465,0.513-0.853,1.096-1.147,1.733c0.087,0.195,0.196,0.379,0.348,0.532c-0.215,0.006-0.421,0.063-0.618,0.143
	c-0.193,0.573-0.31,1.179-0.344,1.808c0.152,0.146,0.32,0.274,0.516,0.358c-0.197,0.085-0.366,0.214-0.518,0.361
	C25.194,16.514,25.337,17.198,25.573,17.838z"/>
<path d="M41.337,15.846c0.038,0.682,0.174,1.335,0.396,1.95c0.198,0.075,0.404,0.128,0.618,0.128
	c-0.148,0.156-0.253,0.342-0.336,0.538c0.279,0.571,0.633,1.097,1.053,1.566c0.211-0.004,0.421-0.032,0.62-0.111
	c-0.079,0.2-0.107,0.411-0.111,0.623c0.513,0.465,1.096,0.853,1.733,1.147c0.195-0.087,0.379-0.196,0.532-0.348
	c0.006,0.215,0.063,0.421,0.143,0.618c0.573,0.193,1.179,0.31,1.808,0.344c0.146-0.152,0.274-0.32,0.358-0.516
	c0.085,0.197,0.214,0.366,0.361,0.518c0.714-0.035,1.398-0.177,2.038-0.414c0.076-0.199,0.129-0.406,0.13-0.621
	c0.156,0.148,0.341,0.252,0.535,0.335c0.569-0.283,1.093-0.641,1.559-1.064c-0.004-0.212-0.032-0.423-0.111-0.623
	c0.199,0.079,0.409,0.107,0.62,0.111c0.442-0.494,0.812-1.051,1.097-1.658c-0.087-0.193-0.195-0.376-0.346-0.528
	c0.216-0.006,0.422-0.063,0.62-0.144c0.207-0.599,0.331-1.236,0.363-1.898c-0.152-0.147-0.321-0.276-0.518-0.361
	c0.196-0.085,0.364-0.213,0.516-0.358c-0.038-0.682-0.174-1.335-0.396-1.95c-0.198-0.075-0.404-0.128-0.618-0.128
	c0.148-0.156,0.253-0.342,0.336-0.538c-0.279-0.571-0.633-1.097-1.053-1.566c-0.211,0.004-0.421,0.032-0.62,0.111
	c0.079-0.2,0.107-0.411,0.111-0.623c-0.513-0.465-1.096-0.854-1.733-1.147c-0.195,0.087-0.379,0.196-0.532,0.348
	c-0.006-0.215-0.063-0.421-0.143-0.618c-0.573-0.193-1.179-0.31-1.808-0.344c-0.146,0.152-0.274,0.32-0.358,0.516
	c-0.085-0.197-0.214-0.366-0.361-0.518C47.124,8.657,46.441,8.8,45.8,9.037c-0.076,0.199-0.129,0.406-0.13,0.621
	c-0.156-0.148-0.341-0.252-0.535-0.335c-0.307,0.153-0.603,0.324-0.882,0.519c0.82,1.59,3.718,5.105,3.922,5.621
	c-0.515-0.204-4.045-3.073-5.646-3.888c-0.213,0.309-0.397,0.639-0.558,0.982c0.087,0.193,0.195,0.376,0.346,0.528
	c-0.216,0.006-0.422,0.063-0.62,0.144c-0.207,0.599-0.331,1.236-0.363,1.898c0.152,0.147,0.321,0.276,0.518,0.361
	C41.657,15.572,41.489,15.7,41.337,15.846z"/>
<path d="M10.019,33.968c-0.148,0.156-0.252,0.341-0.335,0.535c0.283,0.569,0.641,1.092,1.064,1.559
	c0.212-0.004,0.423-0.032,0.623-0.111c-0.079,0.199-0.107,0.409-0.111,0.62c0.494,0.442,1.051,0.812,1.658,1.097
	c0.193-0.087,0.376-0.195,0.528-0.346c0.006,0.216,0.064,0.422,0.144,0.62c0.599,0.207,1.236,0.331,1.898,0.363
	c0.147-0.152,0.276-0.321,0.361-0.518c0.085,0.196,0.213,0.364,0.358,0.516c0.682-0.038,1.335-0.174,1.95-0.396
	c0.075-0.198,0.128-0.404,0.128-0.618c0.156,0.148,0.342,0.253,0.538,0.336c0.571-0.279,1.097-0.633,1.566-1.053
	c-0.004-0.211-0.032-0.421-0.111-0.62c0.2,0.079,0.411,0.107,0.623,0.111c0.465-0.513,0.854-1.096,1.147-1.733
	c-0.087-0.195-0.196-0.379-0.348-0.532c0.215-0.006,0.421-0.063,0.618-0.143c0.193-0.573,0.31-1.179,0.344-1.808
	c-0.152-0.146-0.32-0.274-0.516-0.358c0.197-0.085,0.366-0.214,0.518-0.361c-0.035-0.714-0.177-1.398-0.414-2.038
	c-0.199-0.076-0.406-0.129-0.621-0.13c0.148-0.156,0.252-0.341,0.335-0.536c-0.153-0.307-0.324-0.603-0.519-0.882
	c-1.59,0.82-5.105,3.718-5.621,3.922c0.204-0.515,3.073-4.045,3.888-5.646c-0.309-0.213-0.639-0.397-0.982-0.558
	c-0.193,0.087-0.376,0.195-0.528,0.346c-0.006-0.216-0.063-0.422-0.144-0.62c-0.599-0.207-1.236-0.331-1.898-0.363
	c-0.147,0.152-0.276,0.321-0.361,0.518c-0.085-0.196-0.213-0.364-0.358-0.516c-0.682,0.038-1.335,0.174-1.95,0.396
	c-0.075,0.198-0.128,0.404-0.128,0.618c-0.156-0.148-0.342-0.253-0.538-0.336c-0.571,0.279-1.097,0.633-1.566,1.053
	c0.004,0.211,0.032,0.421,0.111,0.62c-0.2-0.079-0.411-0.107-0.623-0.111c-0.465,0.513-0.853,1.096-1.147,1.733
	c0.087,0.195,0.196,0.379,0.348,0.532c-0.215,0.006-0.421,0.063-0.618,0.143c-0.193,0.573-0.31,1.179-0.344,1.808
	c0.152,0.146,0.32,0.274,0.516,0.358c-0.197,0.085-0.366,0.214-0.518,0.361c0.035,0.714,0.177,1.398,0.414,2.038
	C9.597,33.914,9.804,33.967,10.019,33.968z"/>
<path d="M26.195,33.968c-0.148,0.156-0.252,0.341-0.335,0.535c0.153,0.307,0.324,0.603,0.519,0.882
	c1.59-0.82,5.105-3.718,5.621-3.922c-0.204,0.515-3.073,4.045-3.888,5.646c0.309,0.213,0.639,0.398,0.982,0.559
	c0.193-0.087,0.376-0.195,0.528-0.346c0.006,0.216,0.064,0.422,0.144,0.62c0.599,0.207,1.236,0.331,1.898,0.363
	c0.147-0.152,0.276-0.321,0.361-0.518c0.085,0.196,0.213,0.364,0.358,0.516c0.682-0.038,1.335-0.174,1.95-0.396
	c0.075-0.198,0.128-0.404,0.128-0.618c0.156,0.148,0.342,0.253,0.538,0.336c0.571-0.279,1.097-0.633,1.566-1.053
	c-0.004-0.211-0.032-0.421-0.111-0.62c0.2,0.079,0.411,0.107,0.623,0.111c0.465-0.513,0.854-1.096,1.147-1.733
	c-0.087-0.195-0.196-0.379-0.348-0.532c0.215-0.006,0.421-0.063,0.618-0.143c0.193-0.573,0.31-1.179,0.344-1.808
	c-0.152-0.146-0.32-0.274-0.516-0.358c0.197-0.085,0.366-0.214,0.518-0.361c-0.035-0.714-0.177-1.398-0.414-2.038
	c-0.199-0.076-0.406-0.129-0.621-0.13c0.148-0.156,0.252-0.341,0.335-0.536c-0.283-0.569-0.641-1.092-1.064-1.559
	c-0.212,0.004-0.423,0.032-0.623,0.111c0.079-0.199,0.107-0.409,0.111-0.62c-0.494-0.442-1.051-0.812-1.658-1.097
	c-0.193,0.087-0.376,0.195-0.528,0.346c-0.006-0.216-0.063-0.422-0.144-0.62c-0.599-0.207-1.236-0.331-1.898-0.363
	c-0.147,0.152-0.276,0.321-0.361,0.518c-0.085-0.196-0.213-0.364-0.358-0.516c-0.682,0.038-1.335,0.174-1.95,0.396
	c-0.075,0.198-0.128,0.404-0.128,0.618c-0.156-0.148-0.342-0.253-0.538-0.336c-0.571,0.279-1.097,0.633-1.566,1.053
	c0.004,0.211,0.032,0.421,0.111,0.62c-0.2-0.079-0.411-0.107-0.623-0.111c-0.465,0.513-0.853,1.096-1.147,1.733
	c0.087,0.195,0.196,0.379,0.348,0.532c-0.215,0.006-0.421,0.063-0.618,0.143c-0.193,0.573-0.31,1.179-0.344,1.808
	c0.152,0.146,0.32,0.274,0.516,0.358c-0.197,0.085-0.366,0.214-0.518,0.361c0.035,0.714,0.177,1.398,0.414,2.038
	C25.772,33.914,25.979,33.967,26.195,33.968z"/>
<path d="M41.337,31.846c0.038,0.682,0.174,1.335,0.396,1.95c0.198,0.075,0.404,0.128,0.618,0.128
	c-0.148,0.156-0.253,0.342-0.336,0.538c0.279,0.571,0.633,1.097,1.053,1.566c0.211-0.004,0.421-0.032,0.62-0.111
	c-0.079,0.2-0.107,0.411-0.111,0.623c0.513,0.465,1.096,0.853,1.733,1.147c0.195-0.087,0.379-0.196,0.532-0.348
	c0.006,0.215,0.063,0.421,0.143,0.618c0.573,0.193,1.179,0.31,1.808,0.344c0.146-0.152,0.274-0.32,0.358-0.516
	c0.085,0.197,0.214,0.366,0.361,0.518c0.714-0.035,1.398-0.177,2.038-0.414c0.076-0.199,0.129-0.406,0.13-0.621
	c0.156,0.148,0.341,0.252,0.535,0.335c0.569-0.283,1.093-0.641,1.559-1.064c-0.004-0.212-0.032-0.423-0.111-0.623
	c0.199,0.079,0.409,0.107,0.62,0.111c0.442-0.494,0.812-1.051,1.097-1.658c-0.087-0.193-0.195-0.376-0.346-0.528
	c0.216-0.006,0.422-0.063,0.62-0.144c0.207-0.599,0.331-1.236,0.363-1.898c-0.152-0.147-0.321-0.276-0.518-0.361
	c0.196-0.085,0.364-0.213,0.516-0.358c-0.038-0.682-0.174-1.335-0.396-1.95c-0.198-0.075-0.404-0.128-0.618-0.128
	c0.148-0.156,0.253-0.342,0.336-0.538c-0.279-0.571-0.633-1.097-1.053-1.566c-0.211,0.004-0.421,0.032-0.62,0.111
	c0.079-0.2,0.107-0.411,0.111-0.623c-0.513-0.465-1.096-0.854-1.733-1.147c-0.195,0.087-0.379,0.196-0.532,0.348
	c-0.006-0.215-0.063-0.421-0.143-0.618c-0.573-0.193-1.179-0.31-1.808-0.344c-0.146,0.152-0.274,0.32-0.358,0.516
	c-0.085-0.197-0.214-0.366-0.361-0.518c-0.714,0.035-1.398,0.177-2.038,0.414c-0.076,0.199-0.129,0.406-0.13,0.621
	c-0.156-0.148-0.341-0.252-0.535-0.335c-0.307,0.153-0.603,0.324-0.882,0.519c0.82,1.59,3.718,5.105,3.922,5.621
	c-0.515-0.204-4.045-3.073-5.646-3.888c-0.213,0.309-0.397,0.639-0.558,0.982c0.087,0.193,0.195,0.376,0.346,0.528
	c-0.216,0.006-0.422,0.063-0.62,0.144c-0.207,0.599-0.331,1.236-0.363,1.898c0.152,0.147,0.321,0.276,0.518,0.361
	C41.657,31.572,41.489,31.7,41.337,31.846z"/>
<path d="M14.536,43.129h-0.562v-1.422c0-0.414-0.336-0.75-0.75-0.75s-0.75,0.336-0.75,0.75v1.422h-0.562
	c-1.212,0-2.198,0.986-2.198,2.198s0.986,2.197,2.198,2.197h0.562v8.669c0,0.414,0.336,0.75,0.75,0.75s0.75-0.336,0.75-0.75v-8.669
	h0.562c1.212,0,2.198-0.985,2.198-2.197S15.748,43.129,14.536,43.129z M14.536,46.024h-0.562h-1.5h-0.562
	c-0.385,0-0.698-0.312-0.698-0.697s0.313-0.698,0.698-0.698h0.562h1.5h0.562c0.385,0,0.698,0.313,0.698,0.698
	S14.92,46.024,14.536,46.024z"/>
<path d="M22.074,41.707v8.479h-0.562c-1.212,0-2.198,0.986-2.198,2.198s0.986,2.197,2.198,2.197h0.562v1.611
	c0,0.414,0.336,0.75,0.75,0.75s0.75-0.336,0.75-0.75v-1.611h0.562c1.212,0,2.198-0.985,2.198-2.197s-0.986-2.198-2.198-2.198h-0.562
	v-8.479c0-0.414-0.336-0.75-0.75-0.75S22.074,41.293,22.074,41.707z M24.834,52.385c0,0.385-0.313,0.697-0.698,0.697h-0.562h-1.5
	h-0.562c-0.385,0-0.698-0.312-0.698-0.697s0.313-0.698,0.698-0.698h0.562h1.5h0.562C24.521,51.687,24.834,52,24.834,52.385z"/>
<path d="M33.28,40.957h-1.312h-1.312c-1.212,0-2.198,0.986-2.198,2.198s0.986,2.197,2.198,2.197h0.562v10.841
	c0,0.414,0.336,0.75,0.75,0.75s0.75-0.336,0.75-0.75V45.353h0.562c1.212,0,2.198-0.985,2.198-2.197S34.492,40.957,33.28,40.957z
	 M33.28,43.853h-0.562h-1.5h-0.562c-0.385,0-0.698-0.312-0.698-0.697s0.313-0.698,0.698-0.698h0.562h1.5h0.562
	c0.385,0,0.698,0.313,0.698,0.698S33.665,43.853,33.28,43.853z"/>
<path d="M37.714,47.327c0,1.212,0.986,2.197,2.198,2.197h0.562v6.669c0,0.414,0.336,0.75,0.75,0.75s0.75-0.336,0.75-0.75v-6.669
	h0.562c1.212,0,2.198-0.985,2.198-2.197s-0.986-2.198-2.198-2.198h-0.562v-3.422c0-0.414-0.336-0.75-0.75-0.75
	s-0.75,0.336-0.75,0.75v3.422h-0.562C38.7,45.129,37.714,46.115,37.714,47.327z M39.912,46.629h0.562h1.5h0.562
	c0.385,0,0.698,0.313,0.698,0.698s-0.313,0.697-0.698,0.697h-0.562h-1.5h-0.562c-0.385,0-0.698-0.312-0.698-0.697
	S39.527,46.629,39.912,46.629z"/>
<path d="M52.136,50.187h-0.562v-8.479c0-0.414-0.336-0.75-0.75-0.75s-0.75,0.336-0.75,0.75v8.479h-0.562
	c-1.212,0-2.198,0.986-2.198,2.198s0.986,2.197,2.198,2.197h0.562v1.611c0,0.414,0.336,0.75,0.75,0.75s0.75-0.336,0.75-0.75v-1.611
	h0.562c1.212,0,2.198-0.985,2.198-2.197S53.348,50.187,52.136,50.187z M52.136,53.082h-0.562h-1.5h-0.562
	c-0.385,0-0.698-0.312-0.698-0.697s0.313-0.698,0.698-0.698h0.562h1.5h0.562c0.385,0,0.698,0.313,0.698,0.698
	S52.521,53.082,52.136,53.082z"/>
</svg>
