<?xml version="1.0" encoding="utf-8"?>
<!-- Generator: Adobe Illustrator 17.0.0, SVG Export Plug-In . SVG Version: 6.00 Build 0)  -->
<!DOCTYPE svg PUBLIC "-//W3C//DTD SVG 1.1//EN" "http://www.w3.org/Graphics/SVG/1.1/DTD/svg11.dtd">
<svg version="1.1" id="Capa_1" xmlns="http://www.w3.org/2000/svg" xmlns:xlink="http://www.w3.org/1999/xlink" x="0px" y="0px"
	 width="52px" height="52px" viewBox="0 0 52 52" enable-background="new 0 0 52 52" xml:space="preserve">
<g>
	<path d="M10.873,24.452c-0.739-0.821-1.656-0.705-2.103,0.305l-1.177,2.66c-0.447,1.01-0.055,2.31,0.86,2.929
		c2.545,1.72,7.346,5.143,9.697,7.987c0.704,0.851,1.692,2.361,2.055,3.405c0.467,1.344,0.883,3.611,0.645,7.271
		C20.778,50.111,21.563,51,22.668,51h4.385h3.918c1.105,0,1.89-0.89,1.818-1.992c-0.238-3.659,0.177-5.925,0.645-7.269
		c0.363-1.043,1.351-2.554,2.054-3.405c2.35-2.844,7.152-6.268,9.697-7.988c0.915-0.618,1.308-1.919,0.861-2.929l-1.177-2.66
		c-0.447-1.01-1.354-1.119-2.084-0.29c-2.596,2.949-8.847,9.128-15.849,9.399C19.918,33.595,13.524,27.394,10.873,24.452z"/>
	<circle cx="27.141" cy="27.871" r="5.012"/>
	<circle cx="4.709" cy="23.678" r="2.549"/>
	<path d="M47.9,21.135c-0.041,0.006-0.404-0.823-0.811-1.85l-3.069-7.757c-0.406-1.027-0.817-1.832-0.918-1.799
		c-0.101,0.034,0.089,0.914,0.424,1.967l2.516,7.909c0.335,1.053,0.065,2.205-0.29,2.829c-0.208,0.367-0.328,0.791-0.328,1.244
		c0,1.407,1.141,2.549,2.549,2.549c1.407,0,2.549-1.142,2.549-2.549c0-1.408-1.142-2.549-2.549-2.549
		C47.95,21.129,47.925,21.132,47.9,21.135z"/>
	<path d="M19.891,14.884c-0.331,0.14-0.703,0.344-1.076,0.615c-0.926,0.674-1.59,3.243,0.397,3.262
		c1.289,0.012,2.456-1.099,2.579-2.354c0.096-0.983,0.009-2.063-0.281-2.977c-0.274-0.856-1.031-2.638-1.58-4.036
		c-0.403-1.028,0.194-1.637,1.104-1.132c0.604,0.335,1.203,0.74,1.495,1.129c0.831,1.105,1.04,2.521,0.889,3.836
		c-0.006,0.057-0.012,0.114-0.013,0.168c-0.001,0.093,0.18-0.477,0.299-1.282c0.086-0.58,0.145-1.174,0.098-1.467
		c-0.337-2.086-1.457-2.919-2.981-4.049c-0.813-0.604-2.789-2.439-3.104-2.287c-0.313,0.152,1.733,5.432,2.6,8.146
		c0.122,0.384,0.256,0.768,0.384,1.154C20.914,14.247,20.523,14.616,19.891,14.884z"/>
</g>
</svg>
