<?xml version="1.0" encoding="iso-8859-1"?>
<!-- Generator: Adobe Illustrator 17.0.0, SVG Export Plug-In . SVG Version: 6.00 Build 0)  -->
<!DOCTYPE svg PUBLIC "-//W3C//DTD SVG 1.1//EN" "http://www.w3.org/Graphics/SVG/1.1/DTD/svg11.dtd">
<svg version="1.1" id="Capa_1" xmlns="http://www.w3.org/2000/svg" xmlns:xlink="http://www.w3.org/1999/xlink" x="0px" y="0px"
	 width="64px" height="64px" viewBox="0 0 64 64" style="enable-background:new 0 0 64 64;" xml:space="preserve">
<g>
	<path d="M4.716,20.423v37.331c0,0.76,0.601,1.509,1.343,1.674l12.489,2.776l0.841-41.877L6.086,19.166
		C5.329,19.101,4.716,19.662,4.716,20.423z"/>
	<path d="M47.054,1.797H36.66c-0.76,0-1.921,0.287-2.593,0.643L5.933,17.287c-0.672,0.354-0.603,0.699,0.152,0.771l13.304,1.247
		L47.251,2.507C47.901,2.115,47.812,1.797,47.054,1.797z"/>
	<path d="M59.343,19.658H48.429V3.304L21.185,19.581l-0.247,17.71c-0.003,0.002-0.003,3.334-0.003,3.334
		c-0.009,0-0.009-2.477-0.009-2.477l-0.295,21.21c-0.011,0.761,0.454,0.981,1.037,0.495l8.203-6.836
		c0.584-0.486,1.058-1.496,1.058-2.256v-1.605l10.775-8.531c0,0,0,0.524,0,1.171c0,0.647,0.445,0.745,0.994,0.221l4.735-4.52
		c0.55-0.524,0.995-1.566,0.995-2.325v-6.559l11.178-8.145C60.221,20.021,60.102,19.658,59.343,19.658z M26.343,21.187l14.215-9.171
		v10.922l-14.215,9.254V21.187z M31.017,40.167h-9.165v-2.378l2.128-1.391l4.906,0.371l0.846-0.62l6.428,0.27L31.017,40.167z
		 M36.756,35.984l-6.433-0.269l0.856-0.628L26.44,34.79l1.672-1.092l4.959,0.375l0.395-0.29l5.958,0.258L36.756,35.984z
		 M39.891,33.701l0.004-0.1l-5.838-0.252l1.307-0.958l-4.792-0.301l1.03-0.673l4.811,0.364l1.106-0.812l5.624,0.361L39.891,33.701z
		 M43.722,30.908l-5.627-0.361l0.609-0.446l-4.641-0.292l1.765-1.153l4.769,0.36l1.093-0.802l5.419,0.226L43.722,30.908z
		 M47.704,28.007l-5.422-0.227l0.606-0.445l-4.598-0.288l1.086-0.71l4.811,0.364l0.613-0.45l4.905,0.298L47.704,28.007z
		 M50.288,26.124l-4.907-0.298l1.1-0.808l-4.642-0.291l1.5-0.98l9.637,0.419L50.288,26.124z M53.57,23.732l-9.572-0.416l1.336-0.873
		l5.202,0.221l0.663-0.594l4.508,0.106L53.57,23.732z M56.316,21.731l-4.618-0.108l0.915-0.82h-4.771l0.349-0.228h9.711
		L56.316,21.731z"/>
</g>
</svg>
