<?xml version="1.0" encoding="iso-8859-1"?>
<!-- Generator: Adobe Illustrator 17.0.0, SVG Export Plug-In . SVG Version: 6.00 Build 0)  -->
<!DOCTYPE svg PUBLIC "-//W3C//DTD SVG 1.1//EN" "http://www.w3.org/Graphics/SVG/1.1/DTD/svg11.dtd">
<svg version="1.1" id="Capa_1" xmlns="http://www.w3.org/2000/svg" xmlns:xlink="http://www.w3.org/1999/xlink" x="0px" y="0px"
	 width="64px" height="64px" viewBox="0 0 64 64" style="enable-background:new 0 0 64 64;" xml:space="preserve">
<g>
	<path d="M3,61.3h30h30c-3.434-8.479-14.397-12.577-22.083-14.482c-0.685-0.979-1.186-2.583-0.129-8.835
		c1.808-1.791,3.303-3.45,3.649-3.838l0.094-0.105l0.08-0.435c0.346-0.674,1.527-3.07,2.593-6.257h0.001L51,24.836l-2.344-3.127
		c0.205-1.169,0.343-2.361,0.393-3.553l3.451-4.482l-5.056-3.586L50.833,5l-9.5-0.167l-2-4.833l-3.9,3.482
		c-0.85-0.088-1.675-0.144-2.453-0.142L26.167,0l-1.922,5.927c-0.102,0.074-0.194,0.158-0.293,0.235L16.5,6c0,0,2.333,8.833,2,9.333
		s-6.167,4.833-6.167,4.833l7.121,7.18c0,0,0.003,0.003,0.008,0.009c0.758,2.312,1.844,4.346,3.186,5.841l0.154,0.842l0.094,0.105
		c0.346,0.388,1.842,2.048,3.651,3.839c0.898,5.319,0.669,7.276,0.142,8.36C18.515,48.001,5.111,52.037,3,61.3z M26.983,37.006
		c-0.167-0.166-0.332-0.333-0.496-0.5c-1.002-1.017-1.956-2.034-2.751-2.923l-0.75-4.105c-0.073-3.829,0.215-9.241,2.12-12.191
		c1.56-2.124,4.34-2.888,10.061-2.787c9.5,0.167,9.5,12.847,9.5,12.847h0.051c-0.04,0.256-0.076,0.507-0.121,0.768l-0.999,5.468
		c-0.795,0.888-1.749,1.906-2.751,2.923c-0.164,0.167-0.329,0.334-0.496,0.5c-0.168,0.168-0.338,0.334-0.507,0.5
		c-2.515,2.464-5.111,4.666-6.177,4.666s-3.662-2.202-6.177-4.666C27.32,37.34,27.151,37.174,26.983,37.006z M26.898,47.837
		c0.359-0.452,0.723-0.91,0.965-1.723c0.355-1.191,0.444-3.156-0.121-6.973c2.219,2.09,4.628,4.032,5.924,4.032
		c1.296,0,3.705-1.942,5.924-4.032c-0.63,4.25-0.445,6.203,0.021,7.367c0.238,0.595,0.549,0.986,0.861,1.378l0.111,0.104
		c0.26,0.176,0.499,0.36,0.71,0.55l0.101,0.094c0.858,0.803,1.312,1.712,1.312,2.627c0,2.826-4.056,5.125-9.041,5.125
		s-9.042-2.299-9.042-5.125c0-0.915,0.454-1.823,1.313-2.627l0.114-0.107c0.211-0.186,0.444-0.366,0.695-0.536L26.898,47.837z"/>
</g>
</svg>
