<?xml version="1.0" encoding="iso-8859-1"?>
<!-- Generator: Adobe Illustrator 17.0.0, SVG Export Plug-In . SVG Version: 6.00 Build 0)  -->
<!DOCTYPE svg PUBLIC "-//W3C//DTD SVG 1.1//EN" "http://www.w3.org/Graphics/SVG/1.1/DTD/svg11.dtd">
<svg version="1.1" id="Capa_1" xmlns="http://www.w3.org/2000/svg" xmlns:xlink="http://www.w3.org/1999/xlink" x="0px" y="0px"
	 width="64px" height="64px" viewBox="0 0 64 64" style="enable-background:new 0 0 64 64;" xml:space="preserve">
<g>
	<polygon points="60.594,48.833 55.371,18.804 46.784,18.804 46.785,19.233 46.79,21.836 46.79,21.854 51.885,21.854 56.425,45.783 
		7.552,45.783 13,21.854 43.013,21.854 43.008,19.789 43.006,18.804 9.674,18.804 3.406,48.833 	"/>
	<path d="M46.397,26.08l-0.683,0.921c-0.188,0.254-0.485,0.404-0.801,0.404c0,0-0.001,0-0.002,0c-0.315,0-0.612-0.149-0.801-0.401
		l-0.833-1.114l-0.058-0.078c-0.129-0.172-0.199-0.382-0.199-0.597l-0.004-2.172l0-0.191H13.799l-4.993,21.93h4.495
		c-0.656-0.687-0.37-2.15,0.865-2.15s1.52,1.462,0.865,2.15h40.187l-4.161-21.93h-4.265l0.004,1.913l0.001,0.442
		c0,0.215-0.069,0.425-0.197,0.598L46.397,26.08z M16.666,41.071c-1.612,0-1.612-2.5,0-2.5S18.279,41.071,16.666,41.071z
		 M20.417,38.57c-1.612,0-1.612-2.5,0-2.5C22.029,36.07,22.029,38.57,20.417,38.57z M25.418,38.57c-1.612,0-1.612-2.5,0-2.5
		C27.03,36.07,27.03,38.57,25.418,38.57z M30.418,38.57c-1.612,0-1.612-2.5,0-2.5S32.031,38.57,30.418,38.57z M35.419,38.57
		c-1.612,0-1.612-2.5,0-2.5S37.032,38.57,35.419,38.57z M40.576,38.258c-1.612,0-1.612-2.5,0-2.5S42.189,38.258,40.576,38.258z
		 M44.327,35.445c-1.612,0-1.612-2.5,0-2.5S45.939,35.445,44.327,35.445z M45.264,30.705c-1.612,0-1.612-2.5,0-2.5
		S46.877,30.705,45.264,30.705z"/>
	<path d="M47.705,9.64l-0.008-4.157l1.512-0.003c-0.002-0.899-1.934-1.624-4.32-1.624c-0.008,0-0.016,0-0.023,0
		c-2.397,0.005-4.339,0.74-4.337,1.641l1.512-0.003l0.008,4.158c-1.78,0.998-2.984,2.902-2.979,5.088l11.635-0.023
		C50.701,12.531,49.49,10.631,47.705,9.64z"/>
	<polygon points="44.006,18.804 44.008,19.787 44.013,21.854 44.014,22.354 44.015,22.854 44.015,23.042 44.019,25.214 
		44.077,25.292 44.91,26.406 45.593,25.485 45.797,25.211 45.796,24.769 45.792,22.854 45.791,22.354 45.79,21.854 45.79,21.838 
		45.785,19.235 45.784,18.804 45.78,16.97 45.778,15.823 44,15.826 44.002,16.521 44.006,18.703 	"/>
</g>
</svg>
