<?xml version="1.0" encoding="iso-8859-1"?>
<!-- Generator: Adobe Illustrator 16.0.4, SVG Export Plug-In . SVG Version: 6.00 Build 0)  -->
<!DOCTYPE svg PUBLIC "-//W3C//DTD SVG 1.1//EN" "http://www.w3.org/Graphics/SVG/1.1/DTD/svg11.dtd">
<svg version="1.1" id="Capa_1" xmlns="http://www.w3.org/2000/svg" xmlns:xlink="http://www.w3.org/1999/xlink" x="0px" y="0px"
	 width="56.667px" height="56.667px" viewBox="0 0 56.667 56.667" style="enable-background:new 0 0 56.667 56.667;"
	 xml:space="preserve">
<g>
	<path id="path3142" style="fill:#040606;" d="M28.333,29.893c0.861,0,1.559-0.698,1.559-1.559c0-0.86-0.697-1.558-1.559-1.558
		c-0.86,0-1.558,0.698-1.558,1.558C26.775,29.195,27.473,29.893,28.333,29.893"/>
	<path id="path3144" style="fill:#040606;" d="M7.295,18.537c0.757-1.595,2.136-3.854,4.596-6.315
		c2.461-2.46,4.721-3.838,6.314-4.595c1.249-0.591,2.396-0.609,2.456-0.301l0.111,0.555c0,0,0.052,0.249,0.114,0.555
		c0.063,0.306-0.976,0.851-2.2,1.488c-1.357,0.704-3.195,1.903-5.193,3.901c-2.011,2.01-3.208,3.837-3.908,5.187
		c-0.636,1.225-1.422,2.216-2.036,2.092C6.936,20.981,6.704,19.785,7.295,18.537L7.295,18.537z M21.931,14.205l0.111,0.555
		c0,0,0.052,0.249,0.116,0.555c0.064,0.305-0.889,0.857-1.948,1.572c-0.532,0.36-1.137,0.841-1.774,1.479
		c-0.638,0.639-1.119,1.242-1.479,1.775c-0.716,1.059-1.516,1.962-2.128,1.836c-0.612-0.125-0.838-1.33-0.13-2.517
		c0.467-0.782,1.148-1.711,2.135-2.697s1.915-1.667,2.697-2.135C20.717,13.921,21.869,13.897,21.931,14.205L21.931,14.205z
		 M28.333,19.833c4.695,0,8.5,3.806,8.5,8.5c0,4.695-3.805,8.5-8.5,8.5c-4.694,0-8.5-3.805-8.5-8.5
		C19.833,23.64,23.639,19.833,28.333,19.833z M40.014,36.7c0.717-1.054,1.517-1.961,2.131-1.838
		c0.613,0.124,0.838,1.326,0.131,2.511c-0.468,0.784-1.148,1.711-2.135,2.699c-0.987,0.986-1.915,1.667-2.699,2.133
		c-1.185,0.708-2.388,0.483-2.511-0.131s0.781-1.417,1.836-2.13c0.531-0.36,1.135-0.84,1.77-1.475
		C39.176,37.83,39.655,37.229,40.014,36.7z M46.985,38.225c0.638-1.225,1.424-2.216,2.037-2.094
		c0.614,0.123,0.846,1.319,0.254,2.566c-0.756,1.595-2.135,3.855-4.595,6.315c-2.461,2.46-4.722,3.839-6.315,4.595
		c-1.248,0.591-2.443,0.36-2.567-0.254c-0.122-0.614,0.866-1.409,2.092-2.045c1.356-0.704,3.192-1.904,5.188-3.899
		C45.088,41.4,46.285,39.574,46.985,38.225L46.985,38.225z M28.333,56.667c15.648,0,28.334-12.685,28.334-28.334
		C56.667,12.686,43.981,0,28.333,0C12.686,0,0,12.686,0,28.333C0,43.982,12.686,56.667,28.333,56.667"/>
</g>
<g>
</g>
<g>
</g>
<g>
</g>
<g>
</g>
<g>
</g>
<g>
</g>
<g>
</g>
<g>
</g>
<g>
</g>
<g>
</g>
<g>
</g>
<g>
</g>
<g>
</g>
<g>
</g>
<g>
</g>
</svg>
