<?xml version="1.0" encoding="iso-8859-1"?>
<!-- Generator: Adobe Illustrator 16.0.0, SVG Export Plug-In . SVG Version: 6.00 Build 0)  -->
<!DOCTYPE svg PUBLIC "-//W3C//DTD SVG 1.1//EN" "http://www.w3.org/Graphics/SVG/1.1/DTD/svg11.dtd">
<svg version="1.1" id="Capa_1" xmlns="http://www.w3.org/2000/svg" xmlns:xlink="http://www.w3.org/1999/xlink" x="0px" y="0px"
	 width="24.268px" height="21.786px" viewBox="0 0 24.268 21.786" style="enable-background:new 0 0 24.268 21.786;"
	 xml:space="preserve">
<path d="M7.028,0v3.003c0.443-0.064,0.895-0.109,1.358-0.109c1.728,0,3.344,0.47,4.738,1.279h11.145V0H7.028z"/>
<path d="M17.538,9.966h6.73V5.791h-9.072C16.305,6.941,17.121,8.37,17.538,9.966z"/>
<path d="M17.856,12.365c0,1.24-0.246,2.424-0.678,3.51h7.09v-4.174h-6.445C17.838,11.921,17.856,12.141,17.856,12.365z"/>
<path d="M9.374,21.786h14.895v-4.174H16.27C14.744,19.9,12.251,21.487,9.374,21.786z"/>
<path d="M16.77,12.205c0-4.629-3.752-8.383-8.384-8.383S0,7.576,0,12.205c0,4.632,3.754,8.385,8.386,8.385
	S16.77,16.837,16.77,12.205z M5.439,17.073c-0.21-0.849,0.512-1.764,1.617-2.038c0.5-0.123,0.986-0.1,1.395,0.046V5.7
	c0,0,0.056-0.412,0.599-0.479c0,0-0.008,0.471,2.841,2.46c1.459,1.125,1.454,2.661,1.454,2.661
	c-1.897-2.977-3.837-2.871-3.837-2.871l-0.025,8.906H9.48c-0.005,0.751-0.683,1.486-1.655,1.729
	C6.72,18.383,5.562,17.857,5.439,17.073z"/>
<g>
</g>
<g>
</g>
<g>
</g>
<g>
</g>
<g>
</g>
<g>
</g>
<g>
</g>
<g>
</g>
<g>
</g>
<g>
</g>
<g>
</g>
<g>
</g>
<g>
</g>
<g>
</g>
<g>
</g>
</svg>
