<?xml version="1.0" encoding="utf-8"?>
<!-- Generator: Adobe Illustrator 16.0.4, SVG Export Plug-In . SVG Version: 6.00 Build 0)  -->
<!DOCTYPE svg PUBLIC "-//W3C//DTD SVG 1.1//EN" "http://www.w3.org/Graphics/SVG/1.1/DTD/svg11.dtd">
<svg version="1.1" id="Capa_1" xmlns="http://www.w3.org/2000/svg" xmlns:xlink="http://www.w3.org/1999/xlink" x="0px" y="0px"
	 width="52px" height="52px" viewBox="0 0 52 52" enable-background="new 0 0 52 52" xml:space="preserve">
<g>
	<path d="M9.179,23.197c0,6.156,0,10.277,0,12.959c0,11.441,10.963,13.021,14.998,13.215c0.551,0.026,0.983,0.024,0.963,0.022
		c-0.02-0.002,0.059-0.003,0.176-0.004c0.146-0.001,0.211-0.003,0.211-0.003C44.41,48.16,42.542,36.248,42.542,35.914
		c0-0.773,0.037-9.794,0.037-13.155C42.579,5.984,9.179,5.984,9.179,23.197z M25.587,14.452c4.627,0,8.374,2.607,8.374,7.231
		c0,4.625-3.747,7.239-8.374,7.239c-4.625,0-8.374-2.614-8.374-7.239S20.962,14.452,25.587,14.452z M37.366,36.876l-1.559,8.348
		c-0.102,0.543-0.504,0.671-0.899,0.285l-4.806-4.687c-0.396-0.386-0.883-0.283-1.089,0.229l-2.94,7.301
		c-0.207,0.513-0.563,0.522-0.797,0.021l-3.424-7.329c-0.234-0.501-0.799-0.662-1.262-0.361l-5.88,3.822
		c-0.463,0.301-0.869,0.099-0.907-0.453l-0.555-8.068c-0.038-0.552-0.375-0.672-0.752-0.269l-2.178,2.32
		c-0.378,0.403-0.688,0.282-0.694-0.271l-0.07-7.136c-0.005-0.553,0.292-0.669,0.673-0.27c9.933,10.421,19.222,10.92,30.386,1.516
		c0.423-0.355,0.784-0.204,0.814,0.347l0.338,6.022c0.03,0.551-0.297,0.722-0.731,0.381l-2.696-2.116
		C37.902,36.169,37.468,36.333,37.366,36.876z"/>
	<path d="M6.263,17.087V8.222c0-0.552-0.448-1-1-1H3.375c-0.552,0-1,0.448-1,1v8.835c0,0.552-0.441,1.205-0.707,1.689
		c-0.257,0.469-0.251,1.023-0.251,1.62c0,1.696,1.412,3.071,3.093,3.071c1.68,0,2.91-1.375,2.91-3.071
		c0-0.599-0.081-1.153-0.412-1.623C6.689,18.292,6.263,17.639,6.263,17.087z"/>
	<path d="M49.023,17.086V8.222c0-0.552-0.447-1-1-1h-1.887c-0.553,0-1,0.448-1,1v8.834c0,0.552-0.433,1.206-0.728,1.672
		c-0.3,0.473-0.341,1.032-0.341,1.637c0,1.696,1.355,3.071,3.037,3.071c1.68,0,2.992-1.375,2.992-3.071
		c0.001-0.593-0.042-1.144-0.343-1.61C49.456,18.291,49.023,17.638,49.023,17.086z"/>
</g>
</svg>
