<?xml version="1.0" encoding="utf-8"?>
<!-- Generator: Adobe Illustrator 17.0.0, SVG Export Plug-In . SVG Version: 6.00 Build 0)  -->
<!DOCTYPE svg PUBLIC "-//W3C//DTD SVG 1.1//EN" "http://www.w3.org/Graphics/SVG/1.1/DTD/svg11.dtd">
<svg version="1.1" id="Capa_1" xmlns="http://www.w3.org/2000/svg" xmlns:xlink="http://www.w3.org/1999/xlink" x="0px" y="0px"
	 width="64px" height="64px" viewBox="0 0 64 64" enable-background="new 0 0 64 64" xml:space="preserve">
<path fill-rule="evenodd" clip-rule="evenodd" fill="#1E1E1C" d="M40.475,27.111l-6.931,3.674c-1.81,0.96-4.041,3.214-4.982,5.036
	l-3.629,7.018c-0.94,1.821-0.219,2.552,1.613,1.634l6.925-3.469c1.831-0.919,4.059-3.15,4.973-4.983l3.653-7.327
	C43.011,26.859,42.285,26.15,40.475,27.111z M34.364,37.917l-2.234,1.04c-1.853,0.862-2.614,0.18-1.698-1.525
	c0.408-0.762,0.782-1.459,1.071-1.997c0.322-0.602,0.996-0.72,1.505-0.263l1.557,1.397C35.073,37.025,34.982,37.629,34.364,37.917z"
	/>
<path fill-rule="evenodd" clip-rule="evenodd" fill="#1E1E1C" d="M33.644,11.96c-1.549,0-3.059,0.16-4.526,0.441
	c0.766-0.905,1.245-2.062,1.245-3.344c0-2.873-2.333-4.943-5.206-4.943c-2.886,0-5.209,2.07-5.209,4.943
	c0,2.426,1.653,4.437,3.896,5.019C15.524,17.821,9.723,26.165,9.723,35.88c0,13.21,10.711,23.919,23.922,23.919
	c13.211,0,23.922-10.709,23.922-23.919C57.566,22.669,46.855,11.96,33.644,11.96z M23.115,9.131c0-1.084,0.873-1.957,1.948-1.957
	c1.082,0,1.954,0.873,1.954,1.957c0,1.071-0.872,1.945-1.954,1.945C23.988,11.076,23.115,10.202,23.115,9.131z M33.729,53.111
	c-9.501,0-17.196-7.701-17.196-17.208c0-9.498,7.695-17.199,17.196-17.199c9.507,0,17.208,7.701,17.208,17.199
	C50.937,45.41,43.236,53.111,33.729,53.111z"/>
</svg>
