<?xml version="1.0" encoding="utf-8"?>
<!-- Generator: Adobe Illustrator 16.0.0, SVG Export Plug-In . SVG Version: 6.00 Build 0)  -->
<!DOCTYPE svg PUBLIC "-//W3C//DTD SVG 1.1//EN" "http://www.w3.org/Graphics/SVG/1.1/DTD/svg11.dtd">
<svg version="1.1" id="Layer_10" xmlns="http://www.w3.org/2000/svg" xmlns:xlink="http://www.w3.org/1999/xlink" x="0px" y="0px"
	 width="100px" height="100px" viewBox="0 0 100 100" enable-background="new 0 0 100 100" xml:space="preserve">
<path d="M50,11c-21.505,0-39,17.495-39,39s17.495,39,39,39c21.504,0,39-17.495,39-39S71.504,11,50,11z M21.517,50
	c0-0.67,0.031-1.331,0.077-1.989c2.248,0.293,6.313,1.138,10.27,3.588c7.603,4.708,11.457,13.197,11.457,25.231
	c0,0.297,0.031,0.588,0.079,0.873C30.867,74.717,21.517,63.434,21.517,50z M50,48.172c-1.699,0-3.237,0.687-4.354,1.798
	c-2.746-3.44-5.845-5.888-8.737-7.61c-4.672-2.784-9.357-4.024-12.633-4.577C28.858,28.174,38.665,21.517,50,21.517
	c11.258,0,21.01,6.567,25.631,16.069c-3.251,0.428-8.603,1.592-13.941,4.773c-2.695,1.605-5.57,3.838-8.171,6.917
	C52.521,48.582,51.309,48.172,50,48.172z M55.141,78.01c0.087-0.381,0.138-0.773,0.138-1.18c0-12.034,3.855-20.523,11.458-25.231
	c5.031-3.115,10.244-3.64,11.66-3.726c0.052,0.703,0.087,1.41,0.087,2.127C78.483,63.95,68.4,75.582,55.141,78.01z"/>
</svg>
