<?xml version="1.0" encoding="iso-8859-1"?>
<!-- Generator: Adobe Illustrator 16.0.0, SVG Export Plug-In . SVG Version: 6.00 Build 0)  -->
<!DOCTYPE svg PUBLIC "-//W3C//DTD SVG 1.1//EN" "http://www.w3.org/Graphics/SVG/1.1/DTD/svg11.dtd">
<svg version="1.1" id="Capa_1" xmlns="http://www.w3.org/2000/svg" xmlns:xlink="http://www.w3.org/1999/xlink" x="0px" y="0px"
	 width="31.36px" height="21.401px" viewBox="0 0 31.36 21.401" style="enable-background:new 0 0 31.36 21.401;"
	 xml:space="preserve">
<path style="fill-rule:evenodd;clip-rule:evenodd;" d="M0,0v21.401h31.36V0H0z M5.352,11.825H4.6V19.2H2.885v-7.375H2.324V3.976
	h0.561V2.071H4.6v1.905h0.752V11.825z M13.086,15.977h-0.6v3.288h-1.715v-3.288h-0.714V8.129h0.714V2.136h1.715v5.993h0.6V15.977z
	 M21.01,12.814h-0.752v6.45h-1.715v-6.45h-0.562V4.967h0.562V2.136h1.715v2.831h0.752V12.814z M28.973,14.224h-0.715v5.041h-1.715
	v-5.041h-0.598V6.376h0.598v-4.24h1.715v4.24h0.715V14.224z"/>
<path style="fill-rule:evenodd;clip-rule:evenodd;" d="M2.718,11.251h2.206V4.434H2.718V11.251z M3.166,5.479h1.316v0.659H3.166
	V5.479z M3.166,6.846h1.316v0.66H3.166V6.846z M3.166,8.147h1.316v0.659H3.166V8.147z M3.161,9.548h1.315v0.66H3.161V9.548z"/>
<path style="fill-rule:evenodd;clip-rule:evenodd;" d="M10.514,15.433h2.205v-6.82h-2.205V15.433z M10.961,9.659h1.316v0.658h-1.316
	V9.659z M10.961,11.027h1.316v0.659h-1.316V11.027z M10.961,12.329h1.316v0.657h-1.316V12.329z M10.956,13.728h1.317v0.659h-1.317
	V13.728z"/>
<path style="fill-rule:evenodd;clip-rule:evenodd;" d="M18.381,12.311h2.206v-6.82h-2.206V12.311z M18.828,6.537h1.317v0.66h-1.317
	V6.537z M18.828,7.905h1.317v0.658h-1.317V7.905z M18.828,9.206h1.317v0.658h-1.317V9.206z M18.823,10.606h1.318v0.659h-1.318
	V10.606z"/>
<path style="fill-rule:evenodd;clip-rule:evenodd;" d="M26.389,13.651h2.205V6.833h-2.205V13.651z M26.836,7.877h1.316v0.658h-1.316
	V7.877z M26.836,9.246h1.316v0.66h-1.316V9.246z M26.836,10.547h1.316v0.659h-1.316V10.547z M26.831,11.948h1.318v0.659h-1.318
	V11.948z"/>
<g>
</g>
<g>
</g>
<g>
</g>
<g>
</g>
<g>
</g>
<g>
</g>
<g>
</g>
<g>
</g>
<g>
</g>
<g>
</g>
<g>
</g>
<g>
</g>
<g>
</g>
<g>
</g>
<g>
</g>
</svg>
