<?xml version="1.0" encoding="iso-8859-1"?>
<!-- Generator: Adobe Illustrator 17.0.0, SVG Export Plug-In . SVG Version: 6.00 Build 0)  -->
<!DOCTYPE svg PUBLIC "-//W3C//DTD SVG 1.1//EN" "http://www.w3.org/Graphics/SVG/1.1/DTD/svg11.dtd">
<svg version="1.1" id="Capa_1" xmlns="http://www.w3.org/2000/svg" xmlns:xlink="http://www.w3.org/1999/xlink" x="0px" y="0px"
	 width="64px" height="64px" viewBox="0 0 64 64" style="enable-background:new 0 0 64 64;" xml:space="preserve">
<g>
	<path d="M55.056,19.836c-1.059,7.058-10.941,8.47-10.941,6.176c0-2.294,0.706-15.529-3-16.587
		c-3.706-1.059-2.294-6.529-4.235-7.058c-1.463-0.399-3.123-0.302-3.854-0.229c-0.731-0.072-2.392-0.17-3.854,0.229
		c-1.941,0.529-0.529,6-4.235,7.058c-3.706,1.059-3,14.293-3,16.587c0,2.294-9.882,0.882-10.941-6.176
		c-1.059-7.058-9.882,10.058-1.235,16.94c7.833,6.235,20.88,6.242,23.265,6.188c2.385,0.054,15.432,0.047,23.265-6.188
		C64.938,29.895,56.115,12.778,55.056,19.836z M25.29,23.763c-0.731,0-1.323-0.593-1.323-1.323c0-0.731,0.593-1.323,1.323-1.323
		c0.731,0,1.323,0.593,1.323,1.323C26.613,23.17,26.021,23.763,25.29,23.763z M30.054,24.821c-0.731,0-1.323-0.593-1.323-1.323
		c0-0.731,0.593-1.323,1.323-1.323c0.731,0,1.323,0.593,1.323,1.323C31.378,24.229,30.785,24.821,30.054,24.821z M36.407,24.821
		c-0.731,0-1.323-0.593-1.323-1.323c0-0.731,0.593-1.323,1.323-1.323c0.731,0,1.323,0.593,1.323,1.323
		C37.73,24.229,37.138,24.821,36.407,24.821z M41.171,23.763c-0.731,0-1.323-0.593-1.323-1.323c0-0.731,0.593-1.323,1.323-1.323
		s1.323,0.593,1.323,1.323C42.495,23.17,41.902,23.763,41.171,23.763z"/>
	<path d="M40.859,55.289c0.237-3.893-0.87-5.969-2.15-7.085c-0.546-1.084-1.625-1.841-2.898-1.934
		c-0.002,0.228-0.038,0.446-0.092,0.658c-0.233,0.919-0.92,1.648-1.811,1.947c-0.153,0.051-0.309,0.091-0.472,0.115
		c-0.135,0.02-0.269,0.041-0.41,0.041s-0.275-0.021-0.41-0.041c-0.163-0.024-0.32-0.064-0.473-0.115
		c-0.891-0.299-1.577-1.028-1.81-1.947c-0.054-0.212-0.09-0.43-0.092-0.658c-1.273,0.093-2.352,0.85-2.898,1.934
		c-1.281,1.116-2.388,3.192-2.15,7.085c0.524,8.597-3.971,7.288-3.971,7.288s8.825,2.878,11.804-6.437
		c2.979,9.315,11.804,6.437,11.804,6.437S40.336,63.885,40.859,55.289z"/>
</g>
</svg>
