<?xml version="1.0" encoding="iso-8859-1"?>
<!-- Generator: Adobe Illustrator 17.0.0, SVG Export Plug-In . SVG Version: 6.00 Build 0)  -->
<!DOCTYPE svg PUBLIC "-//W3C//DTD SVG 1.1//EN" "http://www.w3.org/Graphics/SVG/1.1/DTD/svg11.dtd">
<svg version="1.1" id="Capa_1" xmlns="http://www.w3.org/2000/svg" xmlns:xlink="http://www.w3.org/1999/xlink" x="0px" y="0px"
	 width="64px" height="64px" viewBox="0 0 64 64" style="enable-background:new 0 0 64 64;" xml:space="preserve">
<path d="M51.894,23.055c-4.123,0-7.463,3.341-7.463,7.463s3.34,7.463,7.463,7.463c4.121,0,7.463-3.341,7.463-7.463
	S56.016,23.055,51.894,23.055z M51.894,35.32c-2.652,0-4.803-2.149-4.803-4.803s2.15-4.803,4.803-4.803
	c2.652,0,4.803,2.149,4.803,4.803S54.547,35.32,51.894,35.32z"/>
<g>
	<path d="M43.978,34.053c-0.486-1.081-0.764-2.274-0.764-3.535c0-1.799,0.553-3.471,1.498-4.856l-5.932,2.284h-7.389v-1.269h-0.628
		V23.89c0.62-0.394,1.035-1.081,1.035-1.87c0-1.224-0.992-2.216-2.217-2.216c-1.224,0-2.217,0.993-2.217,2.216
		c0,0.789,0.415,1.476,1.034,1.87v2.786h-0.627v1.269h-2.66v-1.418h-0.628v-2.785c0.62-0.394,1.034-1.082,1.034-1.87
		c0-1.224-0.992-2.217-2.216-2.217s-2.217,0.993-2.217,2.217c0,0.788,0.414,1.476,1.035,1.87v2.785h-0.628v1.418h-2.66V26.38h-0.628
		v-2.786c0.62-0.393,1.035-1.081,1.035-1.87c0-1.223-0.993-2.216-2.217-2.216c-1.224,0-2.216,0.993-2.216,2.216
		c0,0.789,0.414,1.477,1.035,1.87v2.786H15.21v1.565H5.808v0.001l-3.38-2.453v0.295v8.165L6.1,31.108h3.853
		c-0.595,0.748-0.95,1.635-0.95,2.591c0,2.646,2.652,4.799,5.911,4.799h0.296v2.733h3.62v-2.733h2.66v2.882h3.621v-2.882h2.66v3.029
		h3.621v-3.066c3.049-0.188,5.467-2.239,5.467-4.762c0-0.956-0.354-1.843-0.949-2.591h3.24L43.978,34.053z M15.21,36.133h-0.296
		c-1.922,0-3.547-1.114-3.547-2.434c0-1.319,1.625-2.434,3.547-2.434h0.296V36.133z M21.491,36.133h-2.66v-4.868h2.66V36.133z
		 M27.771,36.133h-2.66v-4.868h2.66V36.133z M31.392,36.101v-4.803c1.72,0.156,3.104,1.186,3.104,2.401
		C34.496,34.916,33.112,35.945,31.392,36.101z"/>
</g>
</svg>
