<?xml version="1.0" encoding="iso-8859-1"?>
<!-- Generator: Adobe Illustrator 17.0.0, SVG Export Plug-In . SVG Version: 6.00 Build 0)  -->
<!DOCTYPE svg PUBLIC "-//W3C//DTD SVG 1.1//EN" "http://www.w3.org/Graphics/SVG/1.1/DTD/svg11.dtd">
<svg version="1.1" id="Capa_1" xmlns="http://www.w3.org/2000/svg" xmlns:xlink="http://www.w3.org/1999/xlink" x="0px" y="0px"
	 width="64px" height="64px" viewBox="0 0 64 64" style="enable-background:new 0 0 64 64;" xml:space="preserve">
<path d="M21.537,38.355c-1.076-2.554-0.255-5.788,0.3-7.491c-3.296-3.354-7.431-4.74-10.591-3.126
	c-4.351,2.223-5.197,9.272-1.89,15.745c3.306,6.474,9.514,9.92,13.865,7.697c2.661-1.359,4.003-4.527,3.893-8.262
	C25.664,42.305,23.286,42.507,21.537,38.355z"/>
<path d="M52.723,27.419l-1.73-1.815c0.567,0.06,1.131-0.078,1.574-0.448c0.946-0.792,0.981-2.309,0.078-3.389
	c-0.903-1.08-2.403-1.313-3.35-0.521c-0.447,0.374-0.683,0.912-0.721,1.487c-0.543,0.364-1.149,0.683-1.781,0.981v-1.688
	c0.854-0.183,1.463-0.644,1.463-1.188c0-0.704-1.015-1.274-2.266-1.274c-1.251,0-2.266,0.571-2.266,1.274
	c0,0.544,0.61,1.005,1.463,1.188v2.346c-1.086,0.386-2.256,0.698-3.493,0.939v-2.338c0.854-0.183,1.463-0.644,1.463-1.188
	c0-0.704-1.015-1.274-2.266-1.274c-1.251,0-2.266,0.571-2.266,1.274c0,0.544,0.61,1.005,1.463,1.188v2.608
	c-1.042,0.148-2.113,0.256-3.209,0.322v-1.655c0.854-0.183,1.463-0.644,1.463-1.188c0-0.704-1.014-1.274-2.266-1.274
	c-1.251,0-2.266,0.571-2.266,1.274c0,0.544,0.609,1.005,1.463,1.188v1.726c-5.022,0.122-10.334-0.529-14.712-1.639
	c-8.937-2.266-10.112,2.138-10.112,2.138s0.003,0.016,0.004,0.02c0.134-0.081,0.259-0.172,0.399-0.244
	c4.959-2.533,12.034,1.394,15.803,8.772c3.682,7.207,2.836,15.026-1.827,17.747c2.812-0.609,4.948-4.524,6.903-8.891
	c0.016-0.035,0.037-0.072,0.053-0.108l1.806,1.894c1.189,1.247,2.817,1.935,4.585,1.935c1.775,0,3.478-0.692,4.794-1.948
	l9.292-8.862c1.3-1.241,2.071-2.888,2.17-4.638C54.536,30.361,53.928,28.681,52.723,27.419z M50.181,34.601l-9.292,8.863
	c-0.752,0.717-1.715,1.113-2.709,1.113c-0.933,0-1.785-0.354-2.399-0.998l-2.345-2.459c0.054-0.073,0.112-0.148,0.168-0.222
	l14.558-13.885l2.377,2.492c0.621,0.651,0.935,1.53,0.881,2.475C51.364,32.961,50.924,33.892,50.181,34.601z"/>
</svg>
