<?xml version="1.0" encoding="iso-8859-1"?>
<!-- Generator: Adobe Illustrator 17.0.0, SVG Export Plug-In . SVG Version: 6.00 Build 0)  -->
<!DOCTYPE svg PUBLIC "-//W3C//DTD SVG 1.1//EN" "http://www.w3.org/Graphics/SVG/1.1/DTD/svg11.dtd">
<svg version="1.1" id="Capa_1" xmlns="http://www.w3.org/2000/svg" xmlns:xlink="http://www.w3.org/1999/xlink" x="0px" y="0px"
	 width="64px" height="64px" viewBox="0 0 64 64" style="enable-background:new 0 0 64 64;" xml:space="preserve">
<path d="M51.727,12.931h-39.62c-5.858,0-10.607,4.477-10.607,10V46c0,5.523,4.749,10,10.607,10h39.62
	c5.858,0,10.607-4.477,10.607-10V22.931C62.333,17.408,57.585,12.931,51.727,12.931z M28.754,52.543
	c0,0.738-0.598,1.336-1.336,1.336h-1.169c-0.738,0-1.336-0.598-1.336-1.336v-1.169c0-0.738,0.598-1.336,1.336-1.336h1.169
	c0.738,0,1.336,0.598,1.336,1.336V52.543z M28.754,46.543c0,0.738-0.598,1.336-1.336,1.336h-1.169c-0.738,0-1.336-0.598-1.336-1.336
	v-1.169c0-0.738,0.598-1.336,1.336-1.336h1.169c0.738,0,1.336,0.598,1.336,1.336V46.543z M17.132,45.331
	C10.333,45.331,4.801,39.8,4.801,33s5.531-12.331,12.331-12.331S29.462,26.2,29.462,33S23.931,45.331,17.132,45.331z M28.113,21.675
	c-1.095,0-1.986-0.891-1.986-1.986v-0.848h-1.729c-0.276,0-0.5-0.224-0.5-0.5s0.224-0.5,0.5-0.5h1.729v-0.847
	c0-1.096,0.891-1.986,1.986-1.986s1.986,0.891,1.986,1.986v0.847h9.17c0.276,0,0.5,0.224,0.5,0.5s-0.224,0.5-0.5,0.5H30.1v0.848
	C30.1,20.784,29.208,21.675,28.113,21.675z M33.754,52.543c0,0.738-0.598,1.336-1.336,1.336h-1.169
	c-0.738,0-1.336-0.598-1.336-1.336v-1.169c0-0.738,0.598-1.336,1.336-1.336h1.169c0.738,0,1.336,0.598,1.336,1.336V52.543z
	 M33.754,46.543c0,0.738-0.598,1.336-1.336,1.336h-1.169c-0.738,0-1.336-0.598-1.336-1.336v-1.169c0-0.738,0.598-1.336,1.336-1.336
	h1.169c0.738,0,1.336,0.598,1.336,1.336V46.543z M38.754,52.543c0,0.738-0.598,1.336-1.336,1.336h-1.169
	c-0.738,0-1.336-0.598-1.336-1.336v-1.169c0-0.738,0.598-1.336,1.336-1.336h1.169c0.738,0,1.336,0.598,1.336,1.336V52.543z
	 M38.754,46.543c0,0.738-0.598,1.336-1.336,1.336h-1.169c-0.738,0-1.336-0.598-1.336-1.336v-1.169c0-0.738,0.598-1.336,1.336-1.336
	h1.169c0.738,0,1.336,0.598,1.336,1.336V46.543z M47.132,45.331c-6.799,0-12.331-5.531-12.331-12.331s5.531-12.331,12.331-12.331
	S59.462,26.2,59.462,33S53.931,45.331,47.132,45.331z"/>
<path d="M17.132,21.669c-6.248,0-11.331,5.083-11.331,11.331s5.083,11.331,11.331,11.331S28.462,39.248,28.462,33
	S23.379,21.669,17.132,21.669z M17.132,37.917c-2.716,0-4.917-2.202-4.917-4.917s2.202-4.917,4.917-4.917s4.917,2.202,4.917,4.917
	S19.848,37.917,17.132,37.917z M24.13,33.5c-0.276,0-0.5-0.224-0.5-0.5c0-3.583-2.915-6.498-6.498-6.498c-0.276,0-0.5-0.224-0.5-0.5
	s0.224-0.5,0.5-0.5c4.134,0,7.498,3.363,7.498,7.498C24.63,33.276,24.406,33.5,24.13,33.5z M26.815,33.5c-0.276,0-0.5-0.224-0.5-0.5
	c0-5.063-4.12-9.183-9.183-9.183c-0.276,0-0.5-0.224-0.5-0.5s0.224-0.5,0.5-0.5c5.615,0,10.183,4.568,10.183,10.183
	C27.315,33.276,27.091,33.5,26.815,33.5z"/>
<circle cx="17.132" cy="33" r="1.917"/>
<path d="M47.132,21.669c-6.248,0-11.331,5.083-11.331,11.331s5.083,11.331,11.331,11.331S58.462,39.248,58.462,33
	S53.379,21.669,47.132,21.669z M47.132,43.183c-5.615,0-10.183-4.568-10.183-10.183c0-0.276,0.224-0.5,0.5-0.5s0.5,0.224,0.5,0.5
	c0,5.063,4.119,9.183,9.183,9.183c0.276,0,0.5,0.224,0.5,0.5S47.408,43.183,47.132,43.183z M47.132,40.498
	c-4.134,0-7.498-3.363-7.498-7.498c0-0.276,0.224-0.5,0.5-0.5s0.5,0.224,0.5,0.5c0,3.583,2.915,6.498,6.498,6.498
	c0.276,0,0.5,0.224,0.5,0.5S47.408,40.498,47.132,40.498z M47.132,37.917c-2.716,0-4.917-2.202-4.917-4.917s2.202-4.917,4.917-4.917
	s4.917,2.202,4.917,4.917S49.848,37.917,47.132,37.917z"/>
<circle cx="47.132" cy="33" r="1.917"/>
<path d="M28.113,16.008c-0.544,0-0.986,0.442-0.986,0.986v0.847v1v0.848c0,0.544,0.442,0.986,0.986,0.986s0.986-0.442,0.986-0.986
	v-0.848v-1v-0.847C29.1,16.45,28.657,16.008,28.113,16.008z"/>
</svg>
