<?xml version="1.0" encoding="iso-8859-1"?>
<!-- Generator: Adobe Illustrator 16.0.0, SVG Export Plug-In . SVG Version: 6.00 Build 0)  -->
<!DOCTYPE svg PUBLIC "-//W3C//DTD SVG 1.1//EN" "http://www.w3.org/Graphics/SVG/1.1/DTD/svg11.dtd">
<svg version="1.1" id="Capa_1" xmlns="http://www.w3.org/2000/svg" xmlns:xlink="http://www.w3.org/1999/xlink" x="0px" y="0px"
	 width="26.54px" height="25.328px" viewBox="0 0 26.54 25.328" style="enable-background:new 0 0 26.54 25.328;"
	 xml:space="preserve">
<path style="fill:#000000;" d="M24.429,0H2.111C0.945,0,0,0.945,0,2.111v21.107c0,1.162,0.945,2.109,2.111,2.109h22.317
	c1.163,0,2.111-0.947,2.111-2.109V2.111C26.54,0.945,25.592,0,24.429,0z M20.207,1.906h3.312v7.152h-3.312V1.906z M11.341,1.906
	h3.312v12.189h-3.312V1.906z M3.021,1.906h3.31v4.117h-3.31V1.906z M6.331,23.422h-3.31V11.104h3.31V23.422z M7.262,9.865h-5.17
	v-2.73h5.17V9.865z M14.652,23.422h-3.312v-4.246h3.312V23.422z M15.583,18.102h-5.171v-2.73h5.171V18.102z M23.519,23.422h-3.312
	v-9.471h3.312V23.422z M24.449,12.824h-5.173v-2.729h5.173V12.824z"/>
<g>
</g>
<g>
</g>
<g>
</g>
<g>
</g>
<g>
</g>
<g>
</g>
<g>
</g>
<g>
</g>
<g>
</g>
<g>
</g>
<g>
</g>
<g>
</g>
<g>
</g>
<g>
</g>
<g>
</g>
</svg>
