<?xml version="1.0" encoding="utf-8"?>
<!-- Generator: Adobe Illustrator 16.0.0, SVG Export Plug-In . SVG Version: 6.00 Build 0)  -->
<!DOCTYPE svg PUBLIC "-//W3C//DTD SVG 1.1//EN" "http://www.w3.org/Graphics/SVG/1.1/DTD/svg11.dtd">
<svg version="1.1" id="Layer_1" xmlns="http://www.w3.org/2000/svg" xmlns:xlink="http://www.w3.org/1999/xlink" x="0px" y="0px"
	 width="50px" height="50px" viewBox="0 0 50 50" enable-background="new 0 0 50 50" xml:space="preserve">
<g>
	<path d="M21,18.542c0-0.829-0.671-1.5-1.5-1.5s-1.5,0.671-1.5,1.5V23h3V18.542z"/>
	<path d="M17.25,26H18v5.458c0,0.829,0.671,1.5,1.5,1.5s1.5-0.671,1.5-1.5V26h0.75v-2h-4.5V26z"/>
	<path d="M26.5,18.542c0-0.829-0.671-1.5-1.5-1.5s-1.5,0.671-1.5,1.5v8.125h3V18.542z"/>
	<path d="M22.75,29.667h0.75v1.792c0,0.829,0.671,1.5,1.5,1.5s1.5-0.671,1.5-1.5v-1.792h0.75v-2h-4.5V29.667z"/>
	<path d="M32,18.542c0-0.829-0.671-1.5-1.5-1.5s-1.5,0.671-1.5,1.5v1.708h3V18.542z"/>
	<path d="M32.75,21.25h-4.5v2H29v8.208c0,0.829,0.671,1.5,1.5,1.5s1.5-0.671,1.5-1.5V23.25h0.75V21.25z"/>
</g>
</svg>
