<?xml version="1.0" encoding="utf-8"?>
<!-- Generator: Adobe Illustrator 16.0.4, SVG Export Plug-In . SVG Version: 6.00 Build 0)  -->
<!DOCTYPE svg PUBLIC "-//W3C//DTD SVG 1.1//EN" "http://www.w3.org/Graphics/SVG/1.1/DTD/svg11.dtd">
<svg version="1.1" id="Layer_1" xmlns="http://www.w3.org/2000/svg" xmlns:xlink="http://www.w3.org/1999/xlink" x="0px" y="0px"
	 width="26px" height="26px" viewBox="0 0 26 26" enable-background="new 0 0 26 26" xml:space="preserve">
<g>
	<path fill="#333333" d="M12.797,9.134c0.715-0.613,1.657-0.921,2.592-0.85L15.721,8H13c-0.551,0-1,0.449-1,1v1.134
		C12.201,9.766,12.461,9.423,12.797,9.134z"/>
	<path fill="#333333" d="M22.298,9.061l-1.745,1.497c0.5,0.028,0.899,0.435,0.899,0.941c0,0.525-0.427,0.952-0.952,0.952
		s-0.952-0.427-0.952-0.952c0-0.034,0.017-0.063,0.021-0.097l-0.866,0.743C18.646,12.817,18.4,13.459,18,13.999V22
		c0,0.551,0.449,1,1,1h3c0.551,0,1-0.449,1-1V10C23,9.555,22.701,9.189,22.298,9.061z M20.5,21.451
		c-0.525,0-0.952-0.428-0.952-0.952s0.427-0.952,0.952-0.952s0.952,0.428,0.952,0.952S21.025,21.451,20.5,21.451z"/>
	<path fill="#333333" d="M4,6H1C0.449,6,0,6.449,0,7v18c0,0.551,0.449,1,1,1h3c0.551,0,1-0.449,1-1V7C5,6.449,4.551,6,4,6z
		 M2.5,21.451c-0.525,0-0.952-0.428-0.952-0.952s0.427-0.952,0.952-0.952s0.952,0.428,0.952,0.952S3.025,21.451,2.5,21.451z
		 M2.5,12.451c-0.525,0-0.952-0.427-0.952-0.952s0.427-0.952,0.952-0.952s0.952,0.427,0.952,0.952S3.025,12.451,2.5,12.451z"/>
	<path fill="#333333" d="M10,7H7C6.449,7,6,7.449,6,8v16c0,0.551,0.449,1,1,1h3c0.551,0,1-0.449,1-1V8C11,7.449,10.551,7,10,7z
		 M8.5,21.451c-0.525,0-0.952-0.428-0.952-0.952s0.427-0.952,0.952-0.952s0.952,0.428,0.952,0.952S9.025,21.451,8.5,21.451z
		 M8.5,12.451c-0.525,0-0.952-0.427-0.952-0.952s0.427-0.952,0.952-0.952s0.952,0.427,0.952,0.952S9.025,12.451,8.5,12.451z"/>
	<path fill="#333333" d="M15.137,15.441c-1.05,0-2.042-0.457-2.725-1.252c-0.16-0.187-0.297-0.385-0.412-0.592V23
		c0,0.551,0.449,1,1,1h3c0.551,0,1-0.449,1-1v-8.087C16.441,15.254,15.798,15.441,15.137,15.441z M14.5,21.451
		c-0.525,0-0.952-0.428-0.952-0.952s0.427-0.952,0.952-0.952s0.952,0.428,0.952,0.952S15.025,21.451,14.5,21.451z"/>
</g>
<g>
	<g>
		<path fill="#333333" d="M17.18,11.476l8.397-7.204c0.438-0.375,0.485-1.035,0.11-1.471c-0.371-0.436-1.033-0.488-1.472-0.113
			l-8.397,7.204c-0.68-0.235-1.459-0.122-2.045,0.38c-0.874,0.751-0.975,2.067-0.224,2.942c0.75,0.874,2.068,0.976,2.943,0.225
			C17.079,12.938,17.309,12.184,17.18,11.476z"/>
	</g>
</g>
</svg>
